<svg width="23" height="24" viewBox="0 0 23 24" fill="none" xmlns="http://www.w3.org/2000/svg">
<g clip-path="url(#clip0_2032_3037)">
<path d="M22.5622 17.487C22.5622 17.6082 22.5585 17.8712 22.5512 18.0744C22.5333 18.5715 22.4939 19.213 22.4343 19.5053C22.3448 19.9445 22.2096 20.359 22.0333 20.7041C21.8247 21.1123 21.5587 21.4779 21.2425 21.7934C20.9271 22.1084 20.5618 22.3734 20.1542 22.5811C19.8074 22.7579 19.3902 22.8932 18.9485 22.9823C18.6591 23.0408 18.0225 23.0794 17.5285 23.097C17.3252 23.1042 17.0621 23.1079 16.9413 23.1079L6.03496 23.1061C5.91368 23.1061 5.65071 23.1024 5.44754 23.0951C4.95042 23.0773 4.30897 23.0379 4.01668 22.9783C3.57747 22.8887 3.16289 22.7536 2.81785 22.5773C2.40965 22.3687 2.04404 22.1026 1.72849 21.7865C1.41355 21.471 1.14855 21.1058 0.940835 20.6982C0.764033 20.3513 0.62876 19.9342 0.53958 19.4925C0.48118 19.2031 0.442527 18.5665 0.424942 18.0725C0.417718 17.8692 0.414062 17.6061 0.414062 17.4853L0.415793 6.57893C0.415793 6.45765 0.419492 6.19465 0.426781 5.99148C0.444625 5.49436 0.484013 4.85291 0.543603 4.56065C0.633173 4.12143 0.768359 3.70685 0.944664 3.36179C1.15324 2.95362 1.41931 2.58799 1.73543 2.27243C2.05088 1.95752 2.41616 1.69249 2.82373 1.48476C3.17061 1.308 3.58778 1.17273 4.02949 1.08355C4.31883 1.02513 4.9555 0.986473 5.44944 0.968909C5.65281 0.961663 5.91589 0.958008 6.03667 0.958008L16.943 0.95976C17.0643 0.95976 17.3273 0.963459 17.5305 0.970748C18.0276 0.988592 18.669 1.02798 18.9613 1.08757C19.4005 1.17714 19.8151 1.31233 20.1601 1.48863C20.5683 1.69721 20.9339 1.96328 21.2495 2.2794C21.5644 2.59484 21.8294 2.96011 22.0371 3.3677C22.2139 3.71458 22.3492 4.13173 22.4384 4.57343C22.4968 4.8628 22.5354 5.49945 22.553 5.99341C22.5603 6.19677 22.5639 6.45983 22.5639 6.58066L22.5622 17.487V17.487Z" fill="black"/>
<path d="M17.3604 6.1963C15.8608 4.69547 13.8666 3.86852 11.7418 3.86768C7.36387 3.86768 3.80077 7.42942 3.79902 11.8074C3.79846 13.2068 4.1642 14.5728 4.85925 15.7769L3.73242 19.8915L7.94299 18.7874C9.10313 19.42 10.4093 19.7533 11.7386 19.7539H11.7419C16.1194 19.7539 19.6828 16.1917 19.6846 11.8137C19.6854 9.69209 18.86 7.69713 17.3604 6.1963ZM11.7419 18.4128H11.7392C10.5546 18.4124 9.39273 18.0943 8.37913 17.4929L8.13805 17.3499L5.63944 18.0052L6.30637 15.5698L6.14936 15.3201C5.48853 14.2694 5.13951 13.0549 5.14003 11.8079C5.14145 8.16913 8.10299 5.20872 11.7445 5.20872C13.5077 5.2094 15.1653 5.89679 16.4117 7.1442C17.6581 8.39162 18.3442 10.0498 18.3435 11.8132C18.3421 15.4523 15.3806 18.4128 11.7419 18.4128ZM15.3631 13.4701C15.1646 13.3708 14.1889 12.8908 14.0069 12.8246C13.825 12.7584 13.6927 12.7253 13.5604 12.9239C13.4281 13.1225 13.0478 13.5694 12.932 13.7018C12.8162 13.8342 12.7004 13.8508 12.502 13.7515C12.3035 13.6522 11.6641 13.4427 10.906 12.7668C10.3161 12.2408 9.91773 11.591 9.80197 11.3923C9.6862 11.1937 9.78966 11.0864 9.889 10.9874C9.97827 10.8986 10.0875 10.7557 10.1867 10.6399C10.2859 10.524 10.319 10.4412 10.3851 10.3088C10.4513 10.1764 10.4182 10.0606 10.3686 9.96125C10.319 9.86195 9.92208 8.8854 9.75669 8.48817C9.59562 8.1013 9.43197 8.15365 9.31015 8.14757C9.19451 8.14182 9.06207 8.1406 8.92979 8.1406C8.7975 8.1406 8.58248 8.19024 8.40057 8.38887C8.21866 8.5875 7.70597 9.06748 7.70597 10.044C7.70597 11.0205 8.41709 11.964 8.51633 12.0964C8.61557 12.2288 9.91576 14.2328 11.9066 15.0921C12.3801 15.2965 12.7498 15.4186 13.038 15.5101C13.5134 15.661 13.9461 15.6397 14.2881 15.5887C14.6694 15.5317 15.4622 15.1087 15.6277 14.6453C15.793 14.1818 15.793 13.7846 15.7434 13.7018C15.6938 13.6191 15.5615 13.5694 15.3631 13.4701Z" fill="white"/>
</g>
<defs>
<clipPath id="clip0_2032_3037">
<rect width="22.1489" height="22.1489" fill="white" transform="translate(0.414062 0.936035)"/>
</clipPath>
</defs>
</svg>
