<svg width="24" height="16" viewBox="0 0 24 16" fill="none" xmlns="http://www.w3.org/2000/svg">
<g clip-path="url(#clip0_2141_4842)">
<path d="M1.52147 6.47876C1.2894 6.47617 1.0595 6.43361 0.841882 6.35294C0.682967 6.2942 0.539189 6.20068 0.421059 6.07924C0.299281 5.96134 0.205628 5.81753 0.147059 5.65847C0.0664561 5.44086 0.0239519 5.21099 0.0214118 4.97894C0.00358823 4.59318 0 4.47747 0 3.5C0 2.52253 0.00394118 2.40724 0.0212353 2.02118C0.0240837 1.78922 0.0666401 1.55947 0.147059 1.34188C0.205914 1.18294 0.299433 1.03911 0.420824 0.920824C0.538807 0.799155 0.682653 0.70559 0.841706 0.647059C1.05933 0.566389 1.28922 0.523825 1.52129 0.521235C1.90718 0.503588 2.02306 0.5 3 0.5C3.97694 0.5 4.09276 0.503941 4.47882 0.521235C4.71084 0.524064 4.94065 0.56662 5.15829 0.647059C5.31728 0.705667 5.46108 0.799199 5.57912 0.920765C5.70072 1.03884 5.79429 1.18268 5.85294 1.34171C5.93363 1.55932 5.97621 1.78922 5.97882 2.02129C5.99647 2.40735 6.00006 2.52294 6.00006 3.50012C6.00006 4.47729 5.99647 4.59288 5.97882 4.97894C5.97602 5.21098 5.93344 5.44082 5.85294 5.65847C5.79205 5.8163 5.69878 5.95964 5.57914 6.07925C5.4595 6.19885 5.31614 6.29209 5.15829 6.35294C4.94068 6.43363 4.71078 6.47621 4.47871 6.47882C4.093 6.49647 3.97706 6.50006 2.99988 6.50006C2.02271 6.50006 1.90712 6.49665 1.52141 6.47882" fill="url(#paint0_radial_2141_4842)"/>
<path d="M1.52147 6.47876C1.2894 6.47617 1.0595 6.43361 0.841882 6.35294C0.682967 6.2942 0.539189 6.20068 0.421059 6.07924C0.299281 5.96134 0.205628 5.81753 0.147059 5.65847C0.0664561 5.44086 0.0239519 5.21099 0.0214118 4.97894C0.00358823 4.59318 0 4.47747 0 3.5C0 2.52253 0.00394118 2.40724 0.0212353 2.02118C0.0240837 1.78922 0.0666401 1.55947 0.147059 1.34188C0.205914 1.18294 0.299433 1.03911 0.420824 0.920824C0.538807 0.799155 0.682653 0.70559 0.841706 0.647059C1.05933 0.566389 1.28922 0.523825 1.52129 0.521235C1.90718 0.503588 2.02306 0.5 3 0.5C3.97694 0.5 4.09276 0.503941 4.47882 0.521235C4.71084 0.524064 4.94065 0.56662 5.15829 0.647059C5.31728 0.705667 5.46108 0.799199 5.57912 0.920765C5.70072 1.03884 5.79429 1.18268 5.85294 1.34171C5.93363 1.55932 5.97621 1.78922 5.97882 2.02129C5.99647 2.40735 6.00006 2.52294 6.00006 3.50012C6.00006 4.47729 5.99647 4.59288 5.97882 4.97894C5.97602 5.21098 5.93344 5.44082 5.85294 5.65847C5.79205 5.8163 5.69878 5.95964 5.57914 6.07925C5.4595 6.19885 5.31614 6.29209 5.15829 6.35294C4.94068 6.43363 4.71078 6.47621 4.47871 6.47882C4.093 6.49647 3.97706 6.50006 2.99988 6.50006C2.02271 6.50006 1.90712 6.49665 1.52141 6.47882" fill="url(#paint1_radial_2141_4842)"/>
<path d="M2.26542 3.51277C2.26543 3.36581 2.30902 3.22216 2.39067 3.09998C2.47232 2.9778 2.58837 2.88258 2.72415 2.82636C2.85992 2.77013 3.00932 2.75543 3.15345 2.78412C3.29757 2.8128 3.42996 2.88358 3.53386 2.98751C3.63776 3.09143 3.70851 3.22384 3.73716 3.36797C3.76581 3.5121 3.75107 3.6615 3.69482 3.79726C3.63856 3.93302 3.54331 4.04904 3.42111 4.13067C3.29891 4.21229 3.15525 4.25585 3.0083 4.25583C2.81125 4.2558 2.62229 4.17749 2.48297 4.03814C2.34366 3.8988 2.2654 3.70981 2.26542 3.51277ZM1.86371 3.51277C1.86371 3.73915 1.93084 3.96044 2.05661 4.14867C2.18238 4.33689 2.36114 4.4836 2.57028 4.57023C2.77943 4.65686 3.00957 4.67953 3.23159 4.63536C3.45362 4.5912 3.65757 4.48219 3.81764 4.32211C3.97772 4.16204 4.08673 3.9581 4.13089 3.73607C4.17506 3.51404 4.15239 3.2839 4.06576 3.07475C3.97913 2.86561 3.83242 2.68685 3.6442 2.56108C3.45597 2.43531 3.23468 2.36818 3.0083 2.36818C2.85799 2.36817 2.70914 2.39777 2.57027 2.45529C2.4314 2.51281 2.30522 2.59712 2.19893 2.7034C2.09265 2.80969 2.00834 2.93587 1.95082 3.07474C1.8933 3.21361 1.8637 3.36246 1.86371 3.51277ZM3.93071 2.32283C3.93069 2.37573 3.94635 2.42745 3.97572 2.47145C4.00509 2.51544 4.04685 2.54974 4.09571 2.57001C4.14458 2.59028 4.19836 2.5956 4.25024 2.5853C4.30213 2.575 4.3498 2.54955 4.38723 2.51216C4.42465 2.47477 4.45014 2.42712 4.46049 2.37524C4.47083 2.32336 4.46556 2.26958 4.44533 2.2207C4.42511 2.17181 4.39085 2.13003 4.34688 2.10062C4.3029 2.07121 4.2512 2.0555 4.1983 2.05547C4.12739 2.05551 4.05939 2.08368 4.00924 2.13381C3.95909 2.18394 3.93089 2.25192 3.93083 2.32283M2.10789 5.32718C1.96654 5.32563 1.82651 5.29976 1.69394 5.25071C1.5978 5.21365 1.51048 5.15687 1.43761 5.08403C1.36474 5.01119 1.30792 4.9239 1.27083 4.82777C1.22175 4.6952 1.19589 4.55517 1.19436 4.41383C1.18353 4.17889 1.18141 4.1083 1.18141 3.51306C1.18141 2.91783 1.18377 2.84742 1.19436 2.61224C1.19607 2.47091 1.22193 2.33091 1.27083 2.1983C1.30788 2.10212 1.36468 2.01478 1.43755 1.94191C1.51043 1.86903 1.59777 1.81223 1.69394 1.77518C1.82651 1.72611 1.96654 1.70024 2.10789 1.69871C2.34283 1.68789 2.41341 1.68577 3.00841 1.68577C3.60341 1.68577 3.67406 1.68806 3.90924 1.69877C4.05057 1.70048 4.19057 1.72635 4.32318 1.77524C4.41935 1.8123 4.50669 1.86909 4.57956 1.94197C4.65244 2.01485 4.70924 2.10219 4.7463 2.19836C4.79537 2.33092 4.82123 2.47095 4.82277 2.6123C4.83359 2.84759 4.83571 2.91783 4.83571 3.51312C4.83571 4.10842 4.83353 4.17877 4.82277 4.41394C4.82112 4.55528 4.79526 4.69529 4.7463 4.82789C4.7092 4.92401 4.65239 5.01131 4.57951 5.08415C4.50664 5.15699 4.41932 5.21377 4.32318 5.25083C4.19061 5.2999 4.05059 5.32577 3.90924 5.3273C3.6743 5.33812 3.60371 5.34024 3.00841 5.34024C2.41312 5.34024 2.34277 5.33806 2.10789 5.3273M2.08941 1.29736C1.90446 1.30099 1.72147 1.336 1.54824 1.40088C1.40015 1.45814 1.26566 1.54571 1.15339 1.65798C1.04112 1.77025 0.953553 1.90474 0.896296 2.05283C0.831419 2.22606 0.796413 2.40905 0.792768 2.594C0.781768 2.83165 0.779297 2.90765 0.779297 3.513C0.779297 4.11836 0.781827 4.1943 0.792768 4.432C0.796412 4.61695 0.831418 4.79994 0.896296 4.97318C0.953556 5.12127 1.04113 5.25575 1.1534 5.36802C1.26566 5.48029 1.40015 5.56786 1.54824 5.62512C1.72148 5.68998 1.90447 5.72498 2.08941 5.72865C2.32718 5.73947 2.40306 5.74212 3.00841 5.74212C3.61377 5.74212 3.68971 5.73959 3.92742 5.72865C4.11236 5.725 4.29535 5.68999 4.46859 5.62512C4.61668 5.56786 4.75116 5.48029 4.86343 5.36802C4.9757 5.25575 5.06327 5.12127 5.12053 4.97318C5.1855 4.79997 5.22051 4.61696 5.22406 4.432C5.23489 4.19418 5.23736 4.11836 5.23736 3.513C5.23736 2.90765 5.23483 2.83171 5.22406 2.594C5.22043 2.40905 5.18542 2.22606 5.12053 2.05283C5.06328 1.90477 4.97573 1.7703 4.86349 1.65803C4.75126 1.54577 4.61681 1.45818 4.46877 1.40088C4.29555 1.33596 4.11255 1.30095 3.92759 1.29736C3.68989 1.28647 3.61394 1.28389 3.00871 1.28389C2.40347 1.28389 2.32736 1.28642 2.08953 1.29736" fill="white"/>
</g>
<g clip-path="url(#clip1_2141_4842)">
<path d="M22.6 9.5H19.4C18.6268 9.5 18 10.1268 18 10.9V14.1C18 14.8732 18.6268 15.5 19.4 15.5H22.6C23.3732 15.5 24 14.8732 24 14.1V10.9C24 10.1268 23.3732 9.5 22.6 9.5Z" fill="url(#paint2_linear_2141_4842)"/>
<mask id="mask0_2141_4842" style="mask-type:luminance" maskUnits="userSpaceOnUse" x="18" y="9" width="6" height="7">
<path d="M22.6 9.5H19.4C18.6268 9.5 18 10.1268 18 10.9V14.1C18 14.8732 18.6268 15.5 19.4 15.5H22.6C23.3732 15.5 24 14.8732 24 14.1V10.9C24 10.1268 23.3732 9.5 22.6 9.5Z" fill="white"/>
</mask>
<g mask="url(#mask0_2141_4842)">
<path fill-rule="evenodd" clip-rule="evenodd" d="M20.3968 14.0808C20.5893 14.1258 20.7926 14.15 21.0027 14.15C22.2177 14.15 23.2027 13.3441 23.2027 12.35C23.2027 11.3559 22.2177 10.55 21.0027 10.55C19.7877 10.55 18.8027 11.3559 18.8027 12.35C18.8027 12.9988 19.2222 13.5674 19.8515 13.8841C19.817 14.1295 19.7173 14.3097 19.5527 14.425C19.8817 14.425 20.1631 14.3103 20.3968 14.0808Z" fill="white"/>
</g>
</g>
<g clip-path="url(#clip2_2141_4842)">
<path d="M14.9998 4.98332C14.9998 5.01617 14.9988 5.08742 14.9968 5.14246C14.992 5.27712 14.9813 5.45089 14.9651 5.53006C14.9409 5.64904 14.9043 5.76134 14.8565 5.85482C14.8 5.96539 14.7279 6.06443 14.6423 6.14992C14.5568 6.23523 14.4579 6.30702 14.3475 6.36329C14.2535 6.41117 14.1405 6.44782 14.0209 6.47198C13.9425 6.4878 13.77 6.49827 13.6362 6.50303C13.5811 6.505 13.5098 6.50599 13.4771 6.50599L10.5227 6.50552C10.4898 6.50552 10.4186 6.50451 10.3635 6.50253C10.2289 6.49771 10.0551 6.48703 9.97593 6.47089C9.85695 6.44662 9.74464 6.41 9.65117 6.36225C9.54059 6.30574 9.44155 6.23367 9.35607 6.14803C9.27076 6.06258 9.19897 5.96363 9.1427 5.85322C9.0948 5.75925 9.05816 5.64625 9.034 5.5266C9.01818 5.44821 9.00771 5.27575 9.00295 5.14193C9.00099 5.08685 9 5.01559 9 4.98286L9.00047 2.0284C9.00047 1.99555 9.00147 1.92431 9.00345 1.86927C9.00828 1.7346 9.01895 1.56084 9.03509 1.48167C9.05936 1.36268 9.09598 1.25038 9.14374 1.1569C9.20024 1.04633 9.27231 0.947284 9.35795 0.861802C9.4434 0.776495 9.54236 0.7047 9.65276 0.648427C9.74673 0.600544 9.85974 0.5639 9.97939 0.539741C10.0578 0.523915 10.2302 0.513444 10.3641 0.508687C10.4191 0.506724 10.4904 0.505733 10.5231 0.505733L13.4776 0.506208C13.5104 0.506208 13.5817 0.50721 13.6367 0.509185C13.7714 0.514019 13.9451 0.524689 14.0243 0.540831C14.1433 0.565095 14.2556 0.601716 14.3491 0.649476C14.4597 0.705978 14.5587 0.778054 14.6442 0.863689C14.7295 0.949142 14.8013 1.04809 14.8575 1.1585C14.9054 1.25247 14.9421 1.36547 14.9662 1.48513C14.9821 1.56351 14.9925 1.73598 14.9973 1.86979C14.9993 1.92488 15.0003 1.99614 15.0003 2.02887L14.9998 4.98332V4.98332Z" fill="url(#paint3_linear_2141_4842)"/>
<path d="M13.5882 1.92527C13.182 1.5187 12.6418 1.29469 12.0662 1.29446C10.8802 1.29446 9.915 2.25931 9.91453 3.44527C9.91437 3.82437 10.0134 4.19442 10.2017 4.5206L9.89648 5.63522L11.0371 5.33612C11.3514 5.50747 11.7052 5.59777 12.0653 5.59793H12.0662C13.252 5.59793 14.2173 4.63296 14.2178 3.44698C14.218 2.87226 13.9945 2.33183 13.5882 1.92527ZM12.0662 5.23465H12.0655C11.7446 5.23453 11.4298 5.14835 11.1552 4.98546L11.0899 4.94671L10.4131 5.12421L10.5938 4.46449L10.5512 4.39685C10.3722 4.11221 10.2777 3.78321 10.2778 3.44541C10.2782 2.4597 11.0804 1.65774 12.0669 1.65774C12.5446 1.65792 12.9936 1.84413 13.3312 2.18205C13.6689 2.51997 13.8547 2.96915 13.8545 3.44685C13.8541 4.43265 13.0519 5.23465 12.0662 5.23465ZM13.0471 3.89569C12.9934 3.86879 12.7291 3.73877 12.6798 3.72083C12.6305 3.70289 12.5947 3.69393 12.5588 3.74774C12.523 3.80154 12.42 3.9226 12.3886 3.95847C12.3572 3.99434 12.3259 3.99883 12.2721 3.97192C12.2183 3.94502 12.0451 3.88826 11.8398 3.70517C11.6799 3.56267 11.572 3.38666 11.5407 3.33284C11.5093 3.27904 11.5373 3.24996 11.5643 3.22316C11.5884 3.19908 11.618 3.16038 11.6449 3.129C11.6718 3.09762 11.6807 3.07519 11.6987 3.03933C11.7166 3.00346 11.7076 2.97207 11.6942 2.94517C11.6807 2.91827 11.5732 2.65373 11.5284 2.54612C11.4848 2.44132 11.4405 2.4555 11.4075 2.45385C11.3761 2.4523 11.3403 2.45197 11.3044 2.45197C11.2686 2.45197 11.2103 2.46542 11.1611 2.51922C11.1118 2.57303 10.9729 2.70305 10.9729 2.96759C10.9729 3.23212 11.1655 3.48769 11.1924 3.52355C11.2193 3.55943 11.5715 4.10229 12.1108 4.33509C12.2391 4.39046 12.3392 4.42353 12.4173 4.4483C12.5461 4.4892 12.6633 4.48343 12.7559 4.4696C12.8592 4.45417 13.074 4.33958 13.1188 4.21404C13.1636 4.08849 13.1636 3.98089 13.1502 3.95847C13.1367 3.93605 13.1009 3.9226 13.0471 3.89569Z" fill="white"/>
</g>
<g clip-path="url(#clip3_2141_4842)">
<mask id="mask1_2141_4842" style="mask-type:luminance" maskUnits="userSpaceOnUse" x="9" y="9" width="6" height="7">
<path d="M15 9.5H9V15.5H15V9.5Z" fill="white"/>
</mask>
<g mask="url(#mask1_2141_4842)">
<path d="M14.2969 9.5H9.70312C9.3148 9.5 9 9.8148 9 10.2031V14.7969C9 15.1852 9.3148 15.5 9.70312 15.5H14.2969C14.6852 15.5 15 15.1852 15 14.7969V10.2031C15 9.8148 14.6852 9.5 14.2969 9.5Z" fill="black"/>
<path d="M13.17 10.6719H13.7902L12.4352 12.2206L14.0293 14.3281H12.7811L11.8035 13.0499L10.6849 14.3281H10.0643L11.5136 12.6716L9.98438 10.6719H11.2642L12.1479 11.8402L13.17 10.6719ZM12.9523 13.9569H13.296L11.0775 11.0236H10.7087L12.9523 13.9569Z" fill="white"/>
</g>
</g>
<g clip-path="url(#clip4_2141_4842)">
<path d="M23.25 0.5H18.75C18.3364 0.5 18 0.836375 18 1.25V5.75C18 6.16363 18.3364 6.5 18.75 6.5H23.25C23.6636 6.5 24 6.16363 24 5.75V1.25C24 0.836375 23.6636 0.5 23.25 0.5Z" fill="#1976D2"/>
<path fill-rule="evenodd" clip-rule="evenodd" d="M23.0625 3.5H22.125V2.75C22.125 2.543 22.293 2.5625 22.5 2.5625H22.875V1.625H22.125C21.8266 1.625 21.5405 1.74353 21.3295 1.9545C21.1185 2.16548 21 2.45163 21 2.75V3.5H20.25V4.4375H21V6.5H22.125V4.4375H22.6875L23.0625 3.5Z" fill="#FAFAFA"/>
</g>
<g clip-path="url(#clip5_2141_4842)">
<path d="M3 15.5C4.65685 15.5 6 14.1569 6 12.5C6 10.8431 4.65685 9.5 3 9.5C1.34315 9.5 0 10.8431 0 12.5C0 14.1569 1.34315 15.5 3 15.5Z" fill="white"/>
<path d="M3 9.5C1.34321 9.5 0 10.8432 0 12.5C0 13.7716 0.790123 14.858 1.90617 15.2951C1.87901 15.058 1.85679 14.6926 1.91605 14.4333C1.97037 14.1988 2.26667 12.942 2.26667 12.942C2.26667 12.942 2.17778 12.7617 2.17778 12.4975C2.17778 12.0802 2.41975 11.7691 2.72099 11.7691C2.97778 11.7691 3.10123 11.9617 3.10123 12.1914C3.10123 12.4481 2.93827 12.8333 2.85185 13.1914C2.78025 13.4901 3.00247 13.7346 3.2963 13.7346C3.82963 13.7346 4.23951 13.1716 4.23951 12.3617C4.23951 11.6432 3.72346 11.142 2.98519 11.142C2.13086 11.142 1.62963 11.7815 1.62963 12.4432C1.62963 12.7 1.7284 12.9765 1.85185 13.1272C1.87654 13.1568 1.87901 13.184 1.87161 13.2136C1.84938 13.3074 1.79753 13.5123 1.78765 13.5543C1.77531 13.6086 1.74321 13.621 1.68642 13.5938C1.31111 13.4185 1.07654 12.8728 1.07654 12.4309C1.07654 11.4852 1.76296 10.616 3.05926 10.616C4.09877 10.616 4.90864 11.3568 4.90864 12.3494C4.90864 13.384 4.25679 14.216 3.35309 14.216C3.04938 14.216 2.76296 14.058 2.66667 13.8704C2.66667 13.8704 2.51605 14.4432 2.47901 14.584C2.41235 14.8457 2.22963 15.1716 2.10617 15.3716C2.38765 15.458 2.68395 15.5049 2.99506 15.5049C4.65185 15.5049 5.99506 14.1617 5.99506 12.5049C6 10.8432 4.65679 9.5 3 9.5Z" fill="#E60019"/>
</g>
<defs>
<radialGradient id="paint0_radial_2141_4842" cx="0" cy="0" r="1" gradientUnits="userSpaceOnUse" gradientTransform="translate(0.388294 6.36859) scale(7.61776)">
<stop offset="0.09" stop-color="#FA8F21"/>
<stop offset="0.78" stop-color="#D82D7E"/>
</radialGradient>
<radialGradient id="paint1_radial_2141_4842" cx="0" cy="0" r="1" gradientUnits="userSpaceOnUse" gradientTransform="translate(4.156 6.17588) scale(6.70371)">
<stop offset="0.64" stop-color="#8C3AAA" stop-opacity="0"/>
<stop offset="1" stop-color="#8C3AAA"/>
</radialGradient>
<linearGradient id="paint2_linear_2141_4842" x1="318" y1="9.5" x2="318" y2="609.5" gradientUnits="userSpaceOnUse">
<stop stop-color="#91FC8A"/>
<stop offset="1" stop-color="#00DD35"/>
</linearGradient>
<linearGradient id="paint3_linear_2141_4842" x1="12.0001" y1="0.505733" x2="12.0001" y2="6.506" gradientUnits="userSpaceOnUse">
<stop stop-color="#61FD7D"/>
<stop offset="1" stop-color="#2BB826"/>
</linearGradient>
<clipPath id="clip0_2141_4842">
<rect width="6" height="6" fill="white" transform="translate(0 0.5)"/>
</clipPath>
<clipPath id="clip1_2141_4842">
<rect width="6" height="6" fill="white" transform="translate(18 9.5)"/>
</clipPath>
<clipPath id="clip2_2141_4842">
<rect width="6" height="6" fill="white" transform="translate(9 0.5)"/>
</clipPath>
<clipPath id="clip3_2141_4842">
<rect width="6" height="6" fill="white" transform="translate(9 9.5)"/>
</clipPath>
<clipPath id="clip4_2141_4842">
<rect width="6" height="6" fill="white" transform="translate(18 0.5)"/>
</clipPath>
<clipPath id="clip5_2141_4842">
<rect width="6" height="6" fill="white" transform="translate(0 9.5)"/>
</clipPath>
</defs>
</svg>
