<svg width="40" height="38" viewBox="0 0 40 38" fill="none" xmlns="http://www.w3.org/2000/svg">
<path d="M27.8981 19.6373L21.6372 25.8982C21.572 25.9634 21.4835 26 21.3913 26C21.2991 26 21.2106 25.9634 21.1454 25.8982C21.0802 25.8329 21.0435 25.7445 21.0435 25.6522C21.0435 25.56 21.0802 25.4715 21.1454 25.4063L26.8125 19.7392H12.3478C12.2556 19.7392 12.1671 19.7026 12.1019 19.6373C12.0366 19.5721 12 19.4836 12 19.3914C12 19.2991 12.0366 19.2107 12.1019 19.1454C12.1671 19.0802 12.2556 19.0435 12.3478 19.0435H26.8125L21.1454 13.3764C21.0802 13.3112 21.0435 13.2227 21.0435 13.1305C21.0435 13.0383 21.0802 12.9498 21.1454 12.8846C21.2106 12.8194 21.2991 12.7827 21.3913 12.7827C21.4835 12.7827 21.572 12.8194 21.6372 12.8846L27.8981 19.1454C27.9304 19.1777 27.956 19.2161 27.9735 19.2583C27.991 19.3005 28 19.3457 28 19.3914C28 19.437 27.991 19.4823 27.9735 19.5245C27.956 19.5667 27.9304 19.605 27.8981 19.6373Z" fill="white"/>
</svg>
