<svg width="23" height="24" viewBox="0 0 23 24" fill="none" xmlns="http://www.w3.org/2000/svg">
<g clip-path="url(#clip0_2032_3066)">
<path d="M11.4885 0.936035C5.37162 0.936035 0.414062 5.89359 0.414062 12.0105C0.414062 16.7042 3.33409 20.71 7.45241 22.3236C7.35723 21.4454 7.26639 20.1044 7.49134 19.1483C7.69466 18.2832 8.78913 13.6457 8.78913 13.6457C8.78913 13.6457 8.45603 12.9838 8.45603 12.0019C8.45603 10.4618 9.34718 9.3111 10.459 9.3111C11.402 9.3111 11.8606 10.0206 11.8606 10.8728C11.8606 11.8245 11.2549 13.2434 10.9435 14.5585C10.6839 15.6616 11.4972 16.5614 12.583 16.5614C14.5513 16.5614 16.0654 14.485 16.0654 11.4914C16.0654 8.83957 14.162 6.98373 11.4409 6.98373C8.29164 6.98373 6.44013 9.34571 6.44013 11.7899C6.44013 12.7416 6.80784 13.7625 7.26639 14.3162C7.35723 14.4244 7.37021 14.5239 7.34426 14.632C7.26206 14.9824 7.07172 15.7352 7.03711 15.8866C6.98953 16.0899 6.87705 16.1331 6.66508 16.0336C5.28077 15.3891 4.41558 13.3689 4.41558 11.7423C4.41558 8.24691 6.95492 5.04138 11.7308 5.04138C15.5722 5.04138 18.5572 7.77971 18.5572 11.4395C18.5572 15.255 16.1519 18.3264 12.8123 18.3264C11.6919 18.3264 10.6363 17.7424 10.2729 17.0546C10.2729 17.0546 9.71921 19.17 9.58511 19.6891C9.3342 20.6495 8.65935 21.8564 8.20945 22.5918C9.24768 22.9119 10.3465 23.085 11.4885 23.085C17.6054 23.085 22.563 18.1274 22.563 12.0105C22.563 5.89359 17.6054 0.936035 11.4885 0.936035Z" fill="black"/>
</g>
<defs>
<clipPath id="clip0_2032_3066">
<rect width="22.1489" height="22.1489" fill="white" transform="translate(0.414062 0.936035)"/>
</clipPath>
</defs>
</svg>
