<svg width="23" height="24" viewBox="0 0 23 24" fill="none" xmlns="http://www.w3.org/2000/svg">
<g clip-path="url(#clip0_2032_3027)">
<path d="M11.5315 2.9303C14.4905 2.9303 14.8409 2.94328 16.0045 2.99519C17.086 3.04278 17.67 3.22447 18.0594 3.37588C18.5742 3.57487 18.9462 3.81713 19.3312 4.20214C19.7206 4.59147 19.9585 4.95918 20.1575 5.47397C20.3089 5.86331 20.4906 6.45164 20.5382 7.5288C20.5901 8.69681 20.603 9.04722 20.603 12.0019C20.603 14.9608 20.5901 15.3112 20.5382 16.4749C20.4906 17.5564 20.3089 18.1404 20.1575 18.5297C19.9585 19.0445 19.7162 19.4166 19.3312 19.8016C18.9419 20.1909 18.5742 20.4288 18.0594 20.6278C17.67 20.7792 17.0817 20.9609 16.0045 21.0085C14.8365 21.0604 14.4861 21.0734 11.5315 21.0734C8.57254 21.0734 8.22214 21.0604 7.05845 21.0085C5.97696 20.9609 5.39296 20.7792 5.00362 20.6278C4.48883 20.4288 4.1168 20.1866 3.73179 19.8016C3.34245 19.4122 3.10452 19.0445 2.90553 18.5297C2.75412 18.1404 2.57243 17.5521 2.52484 16.4749C2.47293 15.3069 2.45995 14.9565 2.45995 12.0019C2.45995 9.04289 2.47293 8.69249 2.52484 7.5288C2.57243 6.44731 2.75412 5.86331 2.90553 5.47397C3.10452 4.95918 3.34678 4.58715 3.73179 4.20214C4.12112 3.8128 4.48883 3.57487 5.00362 3.37588C5.39296 3.22447 5.98129 3.04278 7.05845 2.99519C8.22214 2.94328 8.57254 2.9303 11.5315 2.9303ZM11.5315 0.936035C8.52496 0.936035 8.1486 0.949013 6.96761 1.00092C5.79095 1.05284 4.98199 1.24318 4.28118 1.51571C3.5501 1.80123 2.93148 2.17759 2.3172 2.7962C1.69858 3.41049 1.32222 4.0291 1.03671 4.75586C0.764175 5.46099 0.573832 6.26562 0.521921 7.44229C0.470009 8.6276 0.457031 9.00396 0.457031 12.0105C0.457031 15.017 0.470009 15.3934 0.521921 16.5744C0.573832 17.7511 0.764175 18.56 1.03671 19.2608C1.32222 19.9919 1.69858 20.6105 2.3172 21.2248C2.93148 21.8391 3.5501 22.2198 4.27686 22.501C4.98199 22.7735 5.78662 22.9638 6.96328 23.0158C8.14427 23.0677 8.52063 23.0806 11.5272 23.0806C14.5337 23.0806 14.9101 23.0677 16.0911 23.0158C17.2677 22.9638 18.0767 22.7735 18.7775 22.501C19.5043 22.2198 20.1229 21.8391 20.7372 21.2248C21.3514 20.6105 21.7321 19.9919 22.0133 19.2651C22.2858 18.56 22.4762 17.7554 22.5281 16.5787C22.58 15.3977 22.593 15.0214 22.593 12.0148C22.593 9.00829 22.58 8.63193 22.5281 7.45094C22.4762 6.27428 22.2858 5.46532 22.0133 4.76451C21.7408 4.0291 21.3644 3.41049 20.7458 2.7962C20.1315 2.18191 19.5129 1.80123 18.7861 1.52004C18.081 1.2475 17.2764 1.05716 16.0997 1.00525C14.9144 0.949013 14.538 0.936035 11.5315 0.936035Z" fill="black"/>
<path d="M11.5324 6.32178C8.39174 6.32178 5.84375 8.86977 5.84375 12.0104C5.84375 15.1511 8.39174 17.6991 11.5324 17.6991C14.673 17.6991 17.221 15.1511 17.221 12.0104C17.221 8.86977 14.673 6.32178 11.5324 6.32178ZM11.5324 15.7005C9.49486 15.7005 7.84235 14.0479 7.84235 12.0104C7.84235 9.97289 9.49486 8.32037 11.5324 8.32037C13.5699 8.32037 15.2224 9.97289 15.2224 12.0104C15.2224 14.0479 13.5699 15.7005 11.5324 15.7005Z" fill="black"/>
<path d="M18.7733 6.09663C18.7733 6.83204 18.1763 7.4247 17.4453 7.4247C16.7098 7.4247 16.1172 6.82772 16.1172 6.09663C16.1172 5.36121 16.7142 4.76855 17.4453 4.76855C18.1763 4.76855 18.7733 5.36554 18.7733 6.09663Z" fill="black"/>
</g>
<defs>
<clipPath id="clip0_2032_3027">
<rect width="22.1489" height="22.1489" fill="white" transform="translate(0.457031 0.936035)"/>
</clipPath>
</defs>
</svg>
