<svg width="25" height="24" viewBox="0 0 25 24" fill="none" xmlns="http://www.w3.org/2000/svg">
<path d="M11.9863 0.75H12.3916C18.5973 0.75 23.6278 5.78066 23.6279 11.9863C23.6279 18.1921 18.5973 23.2227 12.3916 23.2227H11.9863C5.78066 23.2226 0.75 18.192 0.75 11.9863C0.750086 5.78071 5.78071 0.750083 11.9863 0.75Z" fill="#9E9E9E" fill-opacity="0.03"/>
<path d="M11.9863 0.75H12.3916C18.5973 0.75 23.6278 5.78066 23.6279 11.9863C23.6279 18.1921 18.5973 23.2227 12.3916 23.2227H11.9863C5.78066 23.2226 0.75 18.192 0.75 11.9863C0.750086 5.78071 5.78071 0.750083 11.9863 0.75Z" stroke="#9E9E9E" stroke-width="1.5"/>
<path d="M5.50871 15.4865L7.7302 9.08801H8.86977V10.365H8.47957L6.91433 15.4865H5.50871ZM6.69705 13.9345L7.02518 12.9324H9.98274L10.3109 13.9345H6.69705ZM10.1202 15.4865L8.55939 10.365V9.08801H9.30432L11.5302 15.4865H10.1202ZM12.6166 15.4865V9.08801H15.1352C15.7707 9.08801 16.3117 9.21217 16.7581 9.46048C17.2044 9.70583 17.5459 10.0635 17.7824 10.5335C18.0188 11.0036 18.1371 11.5726 18.1371 12.2407V12.2495C18.1371 12.9383 18.0188 13.5236 17.7824 14.0055C17.5488 14.4873 17.2089 14.8553 16.7625 15.1095C16.3161 15.3608 15.7737 15.4865 15.1352 15.4865H12.6166ZM13.9557 14.3824H14.9224C15.3185 14.3824 15.654 14.3011 15.9289 14.1385C16.2038 13.9759 16.4122 13.7379 16.5541 13.4246C16.699 13.1083 16.7714 12.724 16.7714 12.2717V12.2628C16.7714 11.8224 16.6975 11.4484 16.5497 11.141C16.4048 10.8306 16.1935 10.5956 15.9156 10.436C15.6407 10.2734 15.3096 10.1921 14.9224 10.1921H13.9557V14.3824Z" fill="#9E9E9E"/>
<line x1="20.7448" y1="3.74477" x2="3.74469" y2="20.7448" stroke="#9E9E9E" stroke-width="0.692308"/>
<line x1="20.2552" y1="20.7448" x2="3.25516" y2="3.74469" stroke="#9E9E9E" stroke-width="0.692308"/>
</svg>
