<svg width="19" height="20" viewBox="0 0 19 20" fill="none" xmlns="http://www.w3.org/2000/svg">
<path d="M7.43031 13.2251C4.92355 12.4709 2.2818 12.4071 0.363912 13.0546C0.28002 13.083 0.187004 13.0691 0.114789 13.0173C0.0426145 12.9655 -0.000244141 12.8821 -0.000244141 12.7932V3.13115C-0.000244141 3.01279 0.0751336 2.90753 0.18745 2.8697C0.663193 2.70897 1.17956 2.58724 1.72205 2.50785L1.80193 3.05386C1.36308 3.11817 0.943456 3.21155 0.551566 3.33198V12.4185C2.5529 11.8485 5.09166 11.9452 7.58942 12.6967L7.43031 13.2251ZM17.4395 13.0691C17.4098 13.0691 17.38 13.0643 17.3513 13.0547C16.689 12.8311 15.9479 12.6896 15.149 12.634L15.1874 12.0834C15.8908 12.1324 16.5538 12.2449 17.1636 12.4187V3.33194C16.7719 3.21147 16.3523 3.11813 15.9134 3.05382L15.9933 2.50781C16.536 2.5872 17.0521 2.70893 17.5278 2.86966C17.64 2.90753 17.7154 3.01275 17.7154 3.13111V12.7932C17.7154 12.8821 17.6726 12.9655 17.6004 13.0173C17.5529 13.0514 17.4964 13.0691 17.4395 13.0691Z" fill="#9E9E9E"/>
<path d="M7.69641 11.8255C5.78217 10.6958 3.8084 10.3745 1.82968 10.8719C1.74758 10.8926 1.65995 10.8742 1.59277 10.8218C1.5257 10.7695 1.48657 10.6893 1.48657 10.6043V0.816811C1.48657 0.496325 1.70549 0.226684 2.01896 0.160917C4.3371 -0.326058 6.63699 0.233578 8.85809 1.82478C11.079 0.233578 13.379 -0.32622 15.6975 0.160917C16.0108 0.226684 16.2298 0.496325 16.2298 0.816811V10.6043C16.2298 10.6894 16.1906 10.7695 16.1236 10.8218C16.0566 10.8742 15.9686 10.8926 15.8867 10.8719C15.2798 10.7195 14.6689 10.6422 14.0706 10.6422C14.0694 10.6422 14.0681 10.6422 14.0671 10.6422L14.0667 10.0902C14.068 10.0902 14.0693 10.0902 14.0706 10.0902C14.6012 10.0902 15.1403 10.1467 15.678 10.258V0.816811C15.678 0.759396 15.6403 0.712888 15.5842 0.701008C13.3695 0.236173 11.162 0.80335 9.02239 2.38782C8.92487 2.46 8.79143 2.46 8.69387 2.38782C6.55451 0.803512 4.34703 0.235524 2.13233 0.701008C2.07524 0.713051 2.03834 0.758464 2.03834 0.816811V10.258C4.04803 9.84226 6.04329 10.2091 7.97679 11.3502L7.69641 11.8255Z" fill="#9E9E9E"/>
<path d="M7.74353 8.44504C7.69686 8.44504 7.64938 8.4332 7.60608 8.40814C6.06605 7.51999 4.48429 7.15312 2.90542 7.31628C2.7543 7.33327 2.6183 7.2218 2.60257 7.07024C2.58684 6.91867 2.69704 6.78308 2.84861 6.76739C4.54536 6.5919 6.2389 6.98265 7.8816 7.93013C8.01362 8.00615 8.05899 8.17491 7.9828 8.30693C7.93188 8.39549 7.83898 8.44504 7.74353 8.44504Z" fill="#9E9E9E"/>
<path d="M7.74353 6.77256C7.69686 6.77256 7.64938 6.76068 7.60608 6.73567C6.06605 5.84752 4.48506 5.4802 2.90542 5.64364C2.7543 5.65954 2.6183 5.54917 2.60257 5.39756C2.58684 5.24599 2.69704 5.11044 2.84861 5.09471C4.54503 4.91906 6.23874 5.30998 7.8816 6.25765C8.01362 6.33368 8.05899 6.50244 7.9828 6.63442C7.93188 6.72297 7.83898 6.77256 7.74353 6.77256Z" fill="#9E9E9E"/>
<path d="M7.74353 5.09979C7.69686 5.09979 7.64938 5.08795 7.60608 5.0629C6.06589 4.17491 4.48446 3.80771 2.90542 3.97104C2.7543 3.98693 2.6183 3.87656 2.60257 3.72499C2.58684 3.57343 2.69704 3.43788 2.84861 3.42215C4.54503 3.24601 6.23874 3.63741 7.8816 4.58476C8.01362 4.66095 8.05899 4.82971 7.9828 4.96169C7.93188 5.05025 7.83898 5.09979 7.74353 5.09979Z" fill="#9E9E9E"/>
<path d="M7.74353 3.42738C7.69686 3.42738 7.64938 3.41554 7.60608 3.39048C6.06605 2.50233 4.48429 2.13546 2.90542 2.29862C2.7543 2.31452 2.6183 2.20415 2.60257 2.05258C2.58684 1.90097 2.69704 1.76542 2.84861 1.74973C4.54536 1.57408 6.2389 1.96516 7.8816 2.91251C8.01362 2.98854 8.05899 3.15729 7.9828 3.28928C7.93188 3.37783 7.83898 3.42738 7.74353 3.42738Z" fill="#9E9E9E"/>
<path d="M7.74353 10.1177C7.69686 10.1177 7.64938 10.1058 7.60608 10.0808C6.06589 9.1928 4.48446 8.82564 2.90542 8.98893C2.7543 9.00592 2.6183 8.89445 2.60257 8.74288C2.58684 8.59132 2.69704 8.45577 2.84861 8.44004C4.54503 8.26406 6.23874 8.6553 7.8816 9.60265C8.01362 9.67884 8.05899 9.8476 7.9828 9.97958C7.93188 10.0681 7.83898 10.1177 7.74353 10.1177Z" fill="#9E9E9E"/>
<path d="M9.1338 2.16626H8.58203V10.2135H9.1338V2.16626Z" fill="#9E9E9E"/>
<path d="M9.97234 8.44512C9.87689 8.44512 9.784 8.39557 9.73303 8.30702C9.6568 8.175 9.70221 8.00628 9.83424 7.93021C11.4769 6.98286 13.1703 6.59134 14.8672 6.76747C15.0188 6.78317 15.129 6.91872 15.1133 7.07032C15.0975 7.22193 14.9621 7.33291 14.8104 7.31636C13.2307 7.15357 11.65 7.52024 10.1098 8.40823C10.0665 8.43328 10.019 8.44512 9.97234 8.44512Z" fill="#9E9E9E"/>
<path d="M9.97234 6.77261C9.87689 6.77261 9.784 6.72302 9.73303 6.6345C9.6568 6.50248 9.70221 6.33376 9.83424 6.25774C11.4771 5.31022 13.1708 4.91886 14.8672 5.0948C15.0188 5.11053 15.129 5.24604 15.1133 5.39765C15.0975 5.54925 14.9621 5.66104 14.8104 5.64373C13.2311 5.48061 11.65 5.84776 10.1098 6.73575C10.0665 6.76073 10.019 6.77261 9.97234 6.77261Z" fill="#9E9E9E"/>
<path d="M9.97234 5.0998C9.87689 5.0998 9.784 5.05025 9.73303 4.96169C9.6568 4.82967 9.70221 4.66095 9.83424 4.58477C11.4771 3.63758 13.1708 3.24634 14.8672 3.42215C15.0188 3.43788 15.129 3.57339 15.1133 3.725C15.0975 3.87661 14.9621 3.98758 14.8104 3.97104C13.2324 3.80808 11.6503 4.17491 10.1098 5.0629C10.0665 5.08792 10.019 5.0998 9.97234 5.0998Z" fill="#9E9E9E"/>
<path d="M9.97234 3.42729C9.87689 3.42729 9.784 3.37774 9.73303 3.28918C9.6568 3.1572 9.70221 2.98844 9.83424 2.91241C11.4769 1.96506 13.1703 1.57354 14.8672 1.74964C15.0188 1.76537 15.129 1.90088 15.1133 2.05248C15.0975 2.20405 14.9621 2.31556 14.8104 2.29853C13.2307 2.13553 11.65 2.5024 10.1098 3.39039C10.0665 3.41545 10.019 3.42729 9.97234 3.42729Z" fill="#9E9E9E"/>
<path d="M11.0774 9.56887C10.9693 9.56887 10.8668 9.50504 10.8225 9.39918C10.764 9.25848 10.8304 9.09698 10.9711 9.03826C12.2481 8.50555 13.5587 8.30395 14.8675 8.43994C15.019 8.45568 15.1292 8.59119 15.1135 8.74279C15.0978 8.8944 14.9624 9.00619 14.8107 8.98884C13.5943 8.86277 12.3744 9.05091 11.1834 9.54754C11.1488 9.56214 11.1127 9.56887 11.0774 9.56887Z" fill="#9E9E9E"/>
<path d="M16.9707 19.858C16.5591 19.858 16.1389 19.6434 15.7839 19.2437L13.3701 16.5256L13.7827 16.1591L16.1964 18.8771C16.4921 19.2103 16.8283 19.3601 17.1186 19.2881C17.3164 19.2393 17.4636 19.0921 17.5124 18.8943C17.5841 18.604 17.4344 18.2677 17.1016 17.9721L14.3842 15.5588L14.7505 15.1461L17.468 17.5594C17.9592 17.9958 18.1707 18.5304 18.0483 19.0266C17.9508 19.421 17.6452 19.7266 17.2508 19.824C17.1585 19.8468 17.0649 19.858 16.9707 19.858Z" fill="#9E9E9E"/>
<path d="M14.8193 17.6828L14.4292 17.2926L15.5119 16.2098L15.902 16.6001L14.8193 17.6828Z" fill="#9E9E9E"/>
<path d="M11.3821 17.303C9.90288 17.303 8.52483 16.5081 7.78606 15.2283C6.64254 13.2475 7.32361 10.7056 9.3044 9.56192C9.93479 9.19797 10.6509 9.00549 11.3747 9.00549C12.854 9.00549 14.232 9.80042 14.9708 11.0803C16.1143 13.0611 15.4333 15.603 13.4525 16.7467C12.8221 17.1106 12.106 17.303 11.3821 17.303ZM11.3747 9.55742C10.7476 9.55742 10.127 9.72424 9.58032 10.0399C7.86302 11.0314 7.27261 13.235 8.26403 14.9524C8.90456 16.0619 10.0994 16.7512 11.3821 16.7512C12.0093 16.7512 12.6299 16.5844 13.1766 16.2687C14.8939 15.2772 15.4843 13.0735 14.4928 11.3562C13.8523 10.2466 12.6575 9.55742 11.3747 9.55742Z" fill="#9E9E9E"/>
<path d="M11.3806 16.0631C10.3435 16.0631 9.37754 15.5057 8.85954 14.6085C8.05772 13.2198 8.53521 11.4377 9.92399 10.6358C10.3659 10.3806 10.868 10.2458 11.3755 10.2458C12.4127 10.2458 13.3786 10.8031 13.8967 11.7004C14.6984 13.089 14.2209 14.8713 12.8321 15.6731C12.3902 15.9281 11.8882 16.0631 11.3806 16.0631ZM11.3755 10.7976C10.9647 10.7976 10.5581 10.9069 10.1999 11.1138C9.07469 11.7634 8.68795 13.2074 9.33756 14.3326C9.75718 15.0595 10.5401 15.5111 11.3806 15.5111C11.7914 15.5111 12.1981 15.4018 12.5562 15.1951C13.6813 14.5455 14.0683 13.1015 13.4187 11.9763C12.9989 11.2493 12.216 10.7976 11.3755 10.7976Z" fill="#9E9E9E"/>
</svg>
