<svg width="21" height="24" viewBox="0 0 21 24" fill="none" xmlns="http://www.w3.org/2000/svg">
<path d="M12.0132 0C9.91902 0 7.54497 0.3645 5.61044 1.482C3.67287 2.601 2.21437 4.5765 2.21437 7.4235C2.21437 8.9445 2.08358 9.399 1.82199 9.8985C1.56041 10.3995 1.0494 11.043 0.434976 12.4935C0.387647 12.6071 0.369339 12.7305 0.381661 12.8527C0.393982 12.9749 0.436558 13.0923 0.505644 13.1945C0.57473 13.2967 0.668212 13.3806 0.777875 13.4389C0.887538 13.4971 1.01002 13.5279 1.13457 13.5285H2.6828L2.67976 14.118C2.67971 14.123 2.67971 14.128 2.67976 14.133V16.5675C2.67976 17.2725 2.58242 17.976 3.07822 18.645C3.32612 18.978 3.71546 19.2135 4.14738 19.3395C4.58082 19.4655 5.07662 19.509 5.70473 19.509H7.45067V23.25C7.45067 23.4489 7.53079 23.6397 7.6734 23.7803C7.816 23.921 8.00942 24 8.2111 24H16.6366C16.8383 24 17.0317 23.921 17.1743 23.7803C17.3169 23.6397 17.3971 23.4489 17.3971 23.25V18.003C17.3971 15.5175 18.051 14.352 18.7856 13.0905C19.4897 11.883 20.2608 10.506 20.3308 8.3265C20.3621 8.24295 20.3781 8.15457 20.3779 8.0655C20.3779 3.2625 16.3887 0.00299978 12.0132 0.00299978V0ZM12.0132 1.488V1.494C15.6405 1.494 18.8571 4.062 18.8571 8.0565C18.8571 10.089 18.2214 11.0415 17.467 12.3345C16.7127 13.6275 15.8747 15.2295 15.8747 17.994V22.491H8.97153V18.75C8.97153 18.5511 8.89141 18.3603 8.7488 18.2197C8.60619 18.079 8.41278 18 8.2111 18H5.70473C5.16027 18 4.78766 17.9535 4.57626 17.892C4.36334 17.8305 4.33292 17.7855 4.30859 17.751C4.25688 17.682 4.20213 17.289 4.20213 16.5585V14.115C4.20821 13.5075 4.21125 13.173 4.20669 12.9675C4.20669 12.8625 4.20669 12.8025 4.18692 12.6795C4.17628 12.6195 4.17628 12.534 4.07134 12.372C3.90745 12.1756 3.67332 12.0489 3.41737 12.018H2.39536C2.65846 11.556 2.96111 10.98 3.17403 10.5735C3.53904 9.8745 3.73523 9.0375 3.73523 7.4115C3.73523 5.0415 4.79526 3.6795 6.37847 2.766C7.96016 1.851 10.1061 1.488 12.0132 1.488Z" fill="#9E9E9E"/>
<path d="M8.50973 7.80485C8.34104 7.80485 8.19597 7.67508 8.18247 7.5087C8.12512 6.78996 7.4976 6.7101 7.42675 6.70345C7.24794 6.68681 7.11636 6.53042 7.12986 6.35406C7.14673 6.1777 7.30529 6.04793 7.48073 6.06124C7.91257 6.09452 8.75264 6.42727 8.83361 7.45879C8.8471 7.63515 8.71215 7.79154 8.53334 7.80485C8.52659 7.80485 8.51985 7.80485 8.50973 7.80485Z" fill="#9E9E9E"/>
<path d="M10.8477 2.94934C11.5186 2.94943 12.1429 3.23988 12.5674 3.74915C12.9783 3.48033 13.4742 3.35615 13.9834 3.41223C14.5501 3.47358 15.0787 3.76642 15.4346 4.21594C15.7006 4.54982 15.853 4.94896 15.8809 5.36145L15.8887 5.52551C15.8887 5.56918 15.8851 5.61271 15.8818 5.65637C16.1495 5.80209 16.3968 6.00738 16.5947 6.25208L16.5957 6.25305C17.0023 6.75966 17.1784 7.39903 17.0889 8.04797C16.9439 9.08973 16.0676 9.932 15.0029 10.0577H15L14.999 10.0587C14.9976 10.0591 14.9945 10.06 14.9912 10.0607C14.9887 10.0611 14.9852 10.0604 14.9814 10.0607L14.9824 10.0616C14.8989 10.0712 14.8217 10.09 14.751 10.1154L14.75 10.1163C14.7465 10.1175 14.7435 10.1186 14.7393 10.1202C14.7351 10.1219 14.7293 10.1239 14.7227 10.1261C14.6942 10.1355 14.6635 10.1476 14.6367 10.1622L14.6348 10.1632C14.5757 10.1923 14.5153 10.2271 14.4688 10.2638C14.464 10.2682 14.4578 10.2735 14.4531 10.2775C14.4457 10.2839 14.4403 10.2883 14.4385 10.2902L14.4355 10.2931C14.2818 10.4199 14.1821 10.5821 14.1426 10.7677L14.1299 10.8488C14.1067 11.058 14.1028 11.3113 14.1162 11.6193C14.1201 11.7193 14.0809 11.818 14.0117 11.8907L14.0127 11.8917C13.9444 11.967 13.8453 12.005 13.7422 12.005H12.7061C12.593 12.0049 12.4883 11.9549 12.415 11.8712L12.4141 11.8702C12.3441 11.7858 12.3126 11.674 12.332 11.5626C12.3383 11.5217 12.422 10.9707 12.0322 10.4855C11.898 10.317 11.7211 10.174 11.5039 10.0568L11.2734 9.94836C10.9036 9.7986 10.4897 9.7395 10.0439 9.76575C7.50151 9.92964 7.30449 9.92454 7.23438 9.92102V9.922L7.23242 9.92102L7.23145 9.922V9.92102C6.74392 9.92037 6.26672 9.73698 5.90039 9.39954V9.39856C5.49584 9.02976 5.2603 8.50434 5.25684 7.95813L5.2666 7.76184C5.31309 7.30925 5.51975 6.88884 5.85547 6.56067H5.85645C6.16517 6.2628 6.54763 6.07194 6.95801 6.00891C6.93986 5.8886 6.93146 5.76547 6.9375 5.63684C6.9861 4.6132 7.91044 3.79471 8.94141 3.82141C8.98122 3.82143 9.02446 3.82587 9.06348 3.82922C9.4823 3.28102 10.143 2.94934 10.8477 2.94934ZM10.8506 3.70325C10.3219 3.70329 9.83244 3.98354 9.56836 4.43372C9.48237 4.57983 9.31048 4.64868 9.14746 4.60657V4.60559C9.06904 4.5863 8.99592 4.57434 8.9209 4.57434H8.91895C8.2878 4.5521 7.7256 5.05806 7.69336 5.67493C7.68703 5.87026 7.7228 6.0541 7.80273 6.21497H7.80176C7.86481 6.33935 7.84888 6.48583 7.76758 6.5968C7.70595 6.68074 7.61153 6.73398 7.51074 6.74719H7.40918L7.25781 6.7345H7.24707C6.97622 6.73461 6.70679 6.83195 6.48242 7.01086L6.38867 7.0929C6.14505 7.33006 6.0127 7.63653 6.0127 7.95813C6.01608 8.29671 6.1628 8.62621 6.41504 8.85266C6.64497 9.06334 6.93961 9.17493 7.25098 9.17493H7.25293C7.32696 9.1781 7.71107 9.16854 9.99707 9.01868C10.557 8.98501 11.0848 9.06218 11.5615 9.255C11.9511 9.41169 12.2739 9.62886 12.5244 9.89954L12.6279 10.0197C12.9766 10.4608 13.0742 10.9296 13.0947 11.2579H13.3584C13.3595 11.0779 13.3659 10.9156 13.3848 10.7667C13.4268 10.359 13.6304 9.98881 13.9512 9.7218L13.9531 9.72083C13.9554 9.71829 13.9578 9.71595 13.96 9.71399C13.9644 9.70986 13.9705 9.70551 13.9756 9.70129C13.987 9.69192 13.9981 9.68281 14.0098 9.67297L14.0117 9.67102C14.0985 9.60599 14.2029 9.54098 14.3145 9.48938L14.5049 9.41223L14.5078 9.41125L14.5186 9.40735C14.6371 9.36613 14.7622 9.33936 14.8965 9.32239L14.9004 9.32141L14.9072 9.31848H14.9238C15.6505 9.23117 16.2458 8.65628 16.3438 7.95129C16.406 7.50222 16.2875 7.06665 16.0098 6.7218C15.8725 6.55112 15.6959 6.40611 15.5029 6.30286L15.501 6.30188C15.4463 6.27017 15.3919 6.24463 15.3408 6.22571H15.3398C15.1672 6.15992 15.0744 5.97802 15.1094 5.80188L15.1338 5.61145C15.1374 5.54737 15.1367 5.48218 15.1318 5.41614V5.41516C15.1176 5.18051 15.0391 4.95784 14.9043 4.76184L14.8428 4.67883C14.6116 4.38655 14.2694 4.1968 13.9053 4.15833C13.4715 4.11336 13.0653 4.25495 12.7627 4.55969C12.6768 4.64635 12.5534 4.67613 12.4404 4.66028C12.3275 4.64436 12.2172 4.58136 12.1592 4.47473C12.12 4.40403 12.0742 4.33369 12.0156 4.25989C11.7353 3.90625 11.3111 3.70325 10.8506 3.70325Z" fill="#9E9E9E" stroke="#9E9E9E" stroke-width="0.10139"/>
<path d="M13.9019 6.84326C13.8344 6.84326 13.7635 6.82329 13.7062 6.77671C13.5611 6.67023 13.5341 6.46725 13.6421 6.32417C14.4484 5.27601 15.5213 5.55219 15.5651 5.5655C15.7405 5.61208 15.8418 5.79177 15.7945 5.96147C15.7473 6.13117 15.5685 6.23433 15.3931 6.18774C15.3593 6.18109 14.6913 6.02469 14.165 6.71349C14.0975 6.8 13.9997 6.84326 13.9019 6.84326Z" fill="#9E9E9E"/>
<path d="M11.1819 7.03952C11.1752 7.03952 11.1718 7.03952 11.165 7.03952C10.9862 7.03286 10.8445 6.8798 10.8547 6.70344C10.8715 6.37734 10.8007 6.14109 10.6489 5.99801C10.4262 5.7917 10.0618 5.82498 10.0585 5.82831C9.87965 5.84827 9.71771 5.72183 9.69746 5.54547C9.67722 5.36911 9.80205 5.20939 9.98086 5.1861C10.0483 5.17612 10.6455 5.11622 11.0908 5.52218C11.3911 5.79836 11.5328 6.20431 11.5092 6.73339C11.5024 6.90309 11.3574 7.03952 11.1819 7.03952Z" fill="#9E9E9E"/>
<path d="M14.7483 10.0242C14.0162 10.0242 12.8826 9.758 12.5992 8.69986C12.552 8.52683 12.6566 8.35047 12.832 8.30721C13.0075 8.26063 13.1863 8.36378 13.2301 8.53681C13.4832 9.48515 14.9136 9.37201 14.9305 9.37201C15.1127 9.35537 15.2679 9.48847 15.2847 9.66483C15.3016 9.84119 15.17 9.99758 14.9912 10.0142C14.917 10.0209 14.836 10.0242 14.7483 10.0242Z" fill="#9E9E9E"/>
</svg>
