<svg width="16" height="14" viewBox="0 0 16 14" fill="none" xmlns="http://www.w3.org/2000/svg">
<path d="M14.9781 11.959C17.2759 9.39088 15.2485 4.10493 13.3111 2.39284C11.6892 0.906032 8.98588 -0.310449 8.71555 0.140099C8.31005 0.815922 9.88697 1.26648 11.1034 2.3478C12.5903 3.96977 14.167 6.10182 12.0945 7.00292C9.88683 7.99412 9.25611 8.53485 9.166 9.79639C9.03084 12.9052 12.7253 14.1667 14.9781 11.959Z" fill="#CFCFCF"/>
<path d="M6.62848 11.959C8.92628 9.39088 6.89867 4.10493 4.96131 2.39284C3.33933 0.906032 0.636044 -0.310449 0.365715 0.140099C-0.0397787 0.815922 1.53714 1.26647 2.75362 2.34778C4.24043 3.96976 5.81743 6.10182 3.74491 7.00292C1.53722 7.99413 0.906513 8.53486 0.816403 9.79639C0.681239 12.9052 4.37574 14.1667 6.62848 11.959Z" fill="#CFCFCF"/>
</svg>
