<?xml version="1.0" encoding="UTF-8"?>
<svg width="148px" height="137px" viewBox="0 0 148 137" version="1.1" xmlns="http://www.w3.org/2000/svg" xmlns:xlink="http://www.w3.org/1999/xlink">
    <title>􀒂</title>
    <g id="Page-1" stroke="none" stroke-width="1" fill="none" fill-rule="evenodd">
        <g id="􀒂" fill="#000000" fill-rule="nonzero">
            <path d="M0,45.354416 C0,38.6930674 1.07981716,32.5911681 3.23945148,27.0487179 C5.39908579,21.5062678 8.39135021,16.7054131 12.2162447,12.6461538 C16.0411392,8.58689459 20.5295359,5.46438746 25.6814346,3.27863248 C30.8333333,1.09287749 36.4275668,0 42.464135,0 C49.3853727,0 55.5520394,1.50921178 60.964135,4.52763533 C66.3762307,7.54605888 70.7475387,11.4752137 74.0780591,16.3150997 C77.3565401,11.4231719 81.6888186,7.48100665 87.0748945,4.48860399 C92.4609705,1.49620133 98.640647,0 105.613924,0 C111.650492,0 117.231716,1.09287749 122.357595,3.27863248 C127.483474,5.46438746 131.98488,8.58689459 135.861814,12.6461538 C139.738748,16.7054131 142.731013,21.5062678 144.838608,27.0487179 C146.946203,32.5911681 148,38.6930674 148,45.354416 C148,55.8668566 145.228903,66.2622032 139.686709,76.5404558 C134.144515,86.8187085 126.299578,96.8367521 116.151899,106.594587 C106.004219,116.352422 94.0091421,125.654891 80.1666667,134.501994 C79.2299578,135.126496 78.1761603,135.698955 77.0052743,136.219373 C75.8343882,136.739791 74.8586498,137 74.0780591,137 C73.1933896,137 72.1786217,136.739791 71.0337553,136.219373 C69.8888889,135.698955 68.8220816,135.126496 67.8333333,134.501994 C54.0428973,125.654891 42.0608298,116.352422 31.8871308,106.594587 C21.7134318,96.8367521 13.8554852,86.8187085 8.31329114,76.5404558 C2.77109705,66.2622032 0,55.8668566 0,45.354416 Z M13.5042194,45.2763533 C13.5042194,51.9897436 15.1044304,58.7811966 18.3048523,65.6507123 C21.5052743,72.5202279 25.8765823,79.2726496 31.4187764,85.9079772 C36.9609705,92.5433048 43.2707454,98.9184236 50.3481013,105.033333 C57.4254571,111.148243 64.8410689,116.781766 72.5949367,121.933903 C73.3755274,122.454321 73.8699015,122.71453 74.0780591,122.71453 C74.2341772,122.71453 74.7025316,122.454321 75.4831224,121.933903 C83.2369902,116.781766 90.652602,111.148243 97.7299578,105.033333 C104.807314,98.9184236 111.104079,92.5433048 116.620253,85.9079772 C122.136428,79.2726496 126.507736,72.5202279 129.734177,65.6507123 C132.960619,58.7811966 134.57384,51.9897436 134.57384,45.2763533 C134.57384,38.9272555 133.298875,33.3587844 130.748945,28.5709402 C128.199015,23.7830959 124.712377,20.0490978 120.28903,17.3689459 C115.865682,14.6887939 110.843882,13.3487179 105.223629,13.3487179 C100.748242,13.3487179 96.871308,14.1553656 93.592827,15.768661 C90.314346,17.3819563 87.5172293,19.3855651 85.2014768,21.7794872 C82.8857243,24.1734093 80.895218,26.5413105 79.2299578,28.8831909 C78.1371308,30.3403609 77.2394515,31.3551757 76.5369198,31.9276353 C75.8343882,32.500095 75.0147679,32.7863248 74.0780591,32.7863248 C73.1413502,32.7863248 72.2827004,32.5131054 71.5021097,31.9666667 C70.721519,31.4202279 69.8108298,30.3924027 68.7700422,28.8831909 C67.2088608,26.4892688 65.2703938,24.0953466 62.9546414,21.7014245 C60.6388889,19.3075024 57.8417722,17.3169041 54.5632911,15.7296296 C51.2848101,14.1423552 47.3818565,13.3487179 42.8544304,13.3487179 C37.2341772,13.3487179 32.2123769,14.6887939 27.7890295,17.3689459 C23.3656821,20.0490978 19.8790436,23.7830959 17.3291139,28.5709402 C14.7791842,33.3587844 13.5042194,38.9272555 13.5042194,45.2763533 Z" id="Shape"></path>
        </g>
    </g>
</svg>