<svg width="23" height="23" viewBox="0 0 23 23" fill="none" xmlns="http://www.w3.org/2000/svg">
<g clip-path="url(#clip0_2032_3056)">
<path d="M11.5315 0.846191C5.41529 0.846191 0.457031 5.80445 0.457031 11.9207C0.457031 17.1141 4.03276 21.4722 8.85635 22.6691V15.305H6.5728V11.9207H8.85635V10.4624C8.85635 6.69307 10.5623 4.94596 14.2629 4.94596C14.9646 4.94596 16.1752 5.08373 16.6705 5.22105V8.28868C16.4091 8.26121 15.9551 8.24748 15.3912 8.24748C13.5754 8.24748 12.8737 8.93543 12.8737 10.7237V11.9207H16.4911L15.8696 15.305H12.8737V22.9141C18.3574 22.2518 22.6064 17.5828 22.6064 11.9207C22.606 5.80445 17.6477 0.846191 11.5315 0.846191Z" fill="black"/>
</g>
<defs>
<clipPath id="clip0_2032_3056">
<rect width="22.1489" height="22.1489" fill="white" transform="translate(0.457031 0.846191)"/>
</clipPath>
</defs>
</svg>
