<svg width="16" height="14" viewBox="0 0 16 14" fill="none" xmlns="http://www.w3.org/2000/svg">
<path d="M1.02192 11.914C-1.27587 9.34588 0.751495 4.05993 2.68885 2.34784C4.31083 0.861033 7.01412 -0.355447 7.28445 0.0951012C7.68995 0.770924 6.11303 1.22148 4.89655 2.3028C3.40974 3.92477 1.83296 6.05682 3.90548 6.95792C6.11317 7.94913 6.74389 8.48986 6.834 9.75139C6.96916 12.8602 3.27467 14.1217 1.02192 11.914Z" fill="#292929"/>
<path d="M9.37152 11.914C7.07372 9.34588 9.10133 4.05993 11.0387 2.34784C12.6607 0.861033 15.364 -0.355447 15.6343 0.0951012C16.0398 0.770924 14.4629 1.22147 13.2464 2.30279C11.7596 3.92476 10.1826 6.05683 12.2551 6.95792C14.4628 7.94913 15.0935 8.48986 15.1836 9.7514C15.3188 12.8602 11.6243 14.1217 9.37152 11.914Z" fill="#292929"/>
</svg>
