<svg width="16" height="16" viewBox="0 0 16 16" fill="none" xmlns="http://www.w3.org/2000/svg">
<g clip-path="url(#clip0_1389_1484)">
<path d="M0.145386 6.26014C0.145386 9.62999 2.88161 12.3566 6.25148 12.3566C7.54756 12.3566 8.73806 11.9534 9.72693 11.2621L13.2984 14.8432C13.5 15.0352 13.7497 15.1216 14.0089 15.1216C14.5657 15.1216 14.969 14.6992 14.969 14.1423C14.969 13.8735 14.8633 13.6335 14.7001 13.4511L11.1479 9.88921C11.9063 8.87153 12.3479 7.62344 12.3479 6.26014C12.3479 2.89027 9.62133 0.154053 6.25148 0.154053C2.88161 0.154053 0.145386 2.89027 0.145386 6.26014ZM1.6239 6.26014C1.6239 3.69674 3.68806 1.63256 6.25148 1.63256C8.80526 1.63256 10.879 3.69674 10.879 6.26014C10.879 8.81394 8.80526 10.8877 6.25148 10.8877C3.68806 10.8877 1.6239 8.81394 1.6239 6.26014Z" fill="black"/>
<path d="M6.21158 9.84578C8.16624 9.84578 9.7508 8.26121 9.7508 6.30655C9.7508 4.3519 8.16624 2.76733 6.21158 2.76733C4.25693 2.76733 2.67236 4.3519 2.67236 6.30655C2.67236 8.26121 4.25693 9.84578 6.21158 9.84578Z" fill="black"/>
</g>
<defs>
<clipPath id="clip0_1389_1484">
<rect width="14.9434" height="15.14" fill="white" transform="translate(0.116211 0.0146484)"/>
</clipPath>
</defs>
</svg>
