<?xml version="1.0" encoding="UTF-8"?>
<svg width="129px" height="149px" viewBox="0 0 129 149" version="1.1" xmlns="http://www.w3.org/2000/svg" xmlns:xlink="http://www.w3.org/1999/xlink">
    <title>share</title>
    <g id="Page-1" stroke="none" stroke-width="1" fill="none" fill-rule="evenodd">
        <g id="share" fill="#212121" fill-rule="nonzero">
            <path d="M121.717742,58.3460977 C125.538528,58.3460977 128.672058,61.2933302 128.97586,65.0418691 L129,65.6400898 L129,125.034026 C129,137.962253 118.779799,148.499578 105.990377,148.982694 L105.072581,149 L23.9274194,149 C11.0199902,149 0.499616958,138.763331 0.0172780103,125.953301 L0,125.034026 L0,65.6400898 C0,61.6117292 3.260378,58.3460977 7.28225806,58.3460977 C11.1030441,58.3460977 14.2365744,61.2933302 14.5403757,65.0418691 L14.5645161,65.6400898 L14.5645161,125.034026 C14.5645161,129.997542 18.4143821,134.060424 23.2863776,134.39038 L23.9274194,134.412016 L105.072581,134.412016 C110.028111,134.412016 114.084458,130.555946 114.413883,125.676101 L114.435484,125.034026 L114.435484,65.6400898 C114.435484,61.6117292 117.695862,58.3460977 121.717742,58.3460977 Z M62.4148086,0.0686794381 L63.0343074,0.00656834412 L63.0343074,0.00656834412 L63.761393,0 L63.761393,0 L64.4043211,0.0542219121 L64.4043211,0.0542219121 L65.1446242,0.188691826 L65.1446242,0.188691826 L65.4317046,0.264759911 L65.4317046,0.264759911 C66.244499,0.489496395 67.0255628,0.860255809 67.7348881,1.37486892 L68.2322201,1.7709219 L68.2322201,1.7709219 L68.6189492,2.13052134 L100.986192,34.549918 C103.830091,37.3983991 103.830091,42.0166994 100.986192,44.8651809 C98.3095813,47.546104 94.0677638,47.7038055 91.2070111,45.3382851 L90.6875239,44.8651809 L70.7419355,24.8854297 L70.7419355,105.236047 C70.7419355,109.06299 67.7994442,112.201569 64.0569358,112.50586 L63.4596774,112.530039 C59.6388913,112.530039 56.5053611,109.582807 56.2015598,105.834268 L56.1774194,105.236047 L56.1774194,24.9021017 L36.2517065,44.8651809 C33.5750959,47.546104 29.3332784,47.7038055 26.4725261,45.3382851 L25.9530385,44.8651809 C23.2764279,42.1842574 23.1189805,37.9356049 25.4806955,35.0702427 L25.9530385,34.549918 L58.2114747,2.23147607 C58.4439876,1.98943657 58.6930321,1.76344356 58.956788,1.55531941 L59.42837,1.21868604 L59.42837,1.21868604 C59.5853076,1.10801563 59.7495251,1.00749425 59.9178526,0.913467566 L59.9960711,0.875214662 C60.7329899,0.470231753 61.5493189,0.193236024 62.4148086,0.0686794381 Z" id="🎨-Color"></path>
        </g>
    </g>
</svg>