<svg width="109" height="43" viewBox="0 0 109 43" fill="none" xmlns="http://www.w3.org/2000/svg">
<rect width="109" height="43" rx="21.5" fill="#0F0F0F"/>
<path d="M28.251 26.208C25.924 26.208 24.377 25.181 24.364 22.945H25.755C25.781 24.544 26.873 25.025 28.251 25.025C29.642 25.025 30.409 24.492 30.409 23.478C30.409 22.659 29.863 22.282 28.316 21.944L27.523 21.775C25.846 21.437 24.637 20.722 24.637 19.045C24.637 17.537 25.859 16.536 27.913 16.536C30.578 16.536 31.553 17.849 31.592 19.461H30.214C30.136 18.369 29.603 17.719 27.926 17.719C26.678 17.719 26.054 18.226 26.054 19.019C26.054 19.838 26.483 20.228 28.069 20.579L28.875 20.748C31.033 21.203 31.852 22.035 31.852 23.439C31.852 25.155 30.513 26.208 28.251 26.208ZM35.9805 26.156C34.0825 26.156 32.7695 24.804 32.7695 22.646C32.7695 20.54 34.0435 19.136 35.9545 19.136C37.9825 19.136 39.1395 20.683 39.1395 22.698V23.075H34.0825C34.1995 24.44 34.9405 25.064 36.0065 25.064C36.8775 25.064 37.4365 24.622 37.6705 23.946H38.9705C38.6455 25.246 37.5925 26.156 35.9805 26.156ZM34.1085 22.048H37.8005C37.6835 21.008 37.0465 20.228 35.9545 20.228C34.9795 20.228 34.2645 20.826 34.1085 22.048ZM43.1093 19.292V20.358H41.7573V24.375C41.7573 24.765 41.9523 24.947 42.5243 24.947H43.1093V26C42.8363 26.013 42.5503 26.039 42.3163 26.039C41.1073 26.039 40.4573 25.623 40.4573 24.505V20.358H39.3783V19.292H40.4573V17.368H41.7573V19.292H43.1093ZM48.5588 23.075V19.292H49.8588V26H48.6108V24.999C48.1818 25.662 47.4538 26.156 46.5048 26.156C45.0618 26.156 44.1518 25.324 44.1518 23.79V19.292H45.4518V23.608C45.4518 24.57 45.9588 25.012 46.8688 25.012C47.6748 25.012 48.5588 24.427 48.5588 23.075ZM54.8087 19.136C56.6677 19.136 57.8767 20.501 57.8767 22.646C57.8767 24.791 56.6677 26.156 54.8087 26.156C53.8467 26.156 53.1057 25.753 52.6247 25.064V28.548H51.3247V19.292H52.5727V20.306C53.0537 19.565 53.8077 19.136 54.8087 19.136ZM54.5617 25.038C55.7577 25.038 56.5247 24.128 56.5247 22.594C56.5247 21.06 55.7577 20.254 54.5617 20.254C53.3657 20.254 52.5987 21.112 52.5987 22.646C52.5987 24.18 53.3657 25.038 54.5617 25.038Z" fill="white"/>
<path d="M84.8981 21.7459L78.6372 28.0068C78.572 28.072 78.4835 28.1087 78.3913 28.1087C78.2991 28.1087 78.2106 28.072 78.1454 28.0068C78.0802 27.9416 78.0435 27.8531 78.0435 27.7609C78.0435 27.6686 78.0802 27.5802 78.1454 27.515L83.8125 21.8478H69.3478C69.2556 21.8478 69.1671 21.8112 69.1019 21.746C69.0366 21.6807 69 21.5923 69 21.5C69 21.4078 69.0366 21.3193 69.1019 21.2541C69.1671 21.1888 69.2556 21.1522 69.3478 21.1522H83.8125L78.1454 15.4851C78.0802 15.4198 78.0435 15.3314 78.0435 15.2391C78.0435 15.1469 78.0802 15.0584 78.1454 14.9932C78.2106 14.928 78.2991 14.8914 78.3913 14.8914C78.4835 14.8914 78.572 14.928 78.6372 14.9932L84.8981 21.2541C84.9304 21.2864 84.956 21.3247 84.9735 21.3669C84.991 21.4091 85 21.4543 85 21.5C85 21.5457 84.991 21.5909 84.9735 21.6331C84.956 21.6753 84.9304 21.7137 84.8981 21.7459Z" fill="white"/>
</svg>
