<svg width="64" height="64" viewBox="0 0 64 64" fill="none" xmlns="http://www.w3.org/2000/svg">
<path d="M55.991 36.458C55.9881 40.8129 54.2575 44.9887 51.1791 48.069C48.1007 51.1493 43.9259 52.8824 39.571 52.888H10.009C9.4786 52.888 8.96989 52.6773 8.59482 52.3022C8.21975 51.9271 8.00903 51.4184 8.00903 50.888C8.00903 50.3576 8.21975 49.8489 8.59482 49.4738C8.96989 49.0987 9.4786 48.888 10.009 48.888H39.571C42.8469 48.8586 45.9786 47.5367 48.2847 45.2098C50.5908 42.883 51.8846 39.7395 51.8846 36.4635C51.8846 33.1875 50.5908 30.0441 48.2847 27.7172C45.9786 25.3903 42.8469 24.0684 39.571 24.039H15.591L22.136 29.42C22.3402 29.5864 22.5095 29.7914 22.6342 30.0234C22.759 30.2554 22.8366 30.5097 22.8628 30.7717C22.889 31.0338 22.8632 31.2985 22.7868 31.5505C22.7104 31.8026 22.585 32.0371 22.4177 32.2405C22.2505 32.444 22.0447 32.6124 21.8122 32.7361C21.5797 32.8598 21.325 32.9364 21.0629 32.9614C20.8007 32.9865 20.5361 32.9595 20.2844 32.882C20.0327 32.8046 19.7988 32.6781 19.596 32.51L8.73903 23.583C8.71503 23.563 8.69703 23.539 8.67403 23.518C8.62197 23.4708 8.57256 23.4207 8.52603 23.368L8.51003 23.353C8.49603 23.337 8.47803 23.325 8.46403 23.309V23.303C8.44303 23.278 8.42803 23.249 8.40903 23.223C8.3697 23.1707 8.33331 23.1163 8.30003 23.06C8.29203 23.047 8.28103 23.035 8.27403 23.021C8.26703 23.007 8.24903 22.988 8.24003 22.97C8.23103 22.952 8.21903 22.916 8.20703 22.89C8.18038 22.8318 8.15635 22.7724 8.13503 22.712L8.12803 22.694C8.08675 22.5797 8.05759 22.4614 8.04103 22.341C8.03503 22.304 8.02303 22.269 8.02003 22.232C8.01703 22.195 8.02003 22.161 8.02003 22.126C8.02003 22.091 8.01103 22.069 8.01103 22.039C8.01103 22.009 8.01903 21.981 8.02003 21.951V21.846C8.02003 21.811 8.03503 21.773 8.04103 21.736C8.05753 21.6156 8.08669 21.4973 8.12803 21.383L8.13503 21.365C8.15703 21.304 8.18003 21.245 8.20703 21.187C8.21903 21.161 8.22603 21.133 8.24003 21.107C8.25403 21.081 8.26403 21.074 8.27403 21.056C8.28403 21.038 8.29203 21.03 8.30003 21.017C8.33266 20.9607 8.36838 20.9063 8.40703 20.854C8.42603 20.828 8.44103 20.799 8.46203 20.774V20.769C8.48203 20.744 8.50703 20.727 8.52803 20.703C8.57403 20.653 8.62103 20.603 8.67203 20.559C8.69503 20.538 8.71303 20.514 8.73703 20.494L8.74703 20.485L19.6 11.567C19.8028 11.3989 20.0367 11.2725 20.2884 11.195C20.5401 11.1175 20.8047 11.0905 21.0669 11.1156C21.329 11.1406 21.5837 11.2172 21.8162 11.3409C22.0487 11.4646 22.2545 11.633 22.4217 11.8365C22.589 12.04 22.7144 12.2744 22.7908 12.5265C22.8672 12.7785 22.893 13.0432 22.8668 13.3053C22.8406 13.5673 22.763 13.8217 22.6382 14.0536C22.5135 14.2856 22.3442 14.4906 22.14 14.657L15.595 20.039H39.575C43.9276 20.0448 48.1001 21.7766 51.1775 24.8546C54.255 27.9326 55.986 32.1055 55.991 36.458Z" fill="black"/>
</svg>
