<svg width="24" height="24" viewBox="0 0 24 24" fill="none" xmlns="http://www.w3.org/2000/svg">
<g clip-path="url(#clip0_1689_16853)">
<g clip-path="url(#clip1_1689_16853)">
<path d="M11.4863 1.48926C11.5557 1.67346 11.6484 1.84834 11.792 2C11.9635 2.18099 12.1729 2.29424 12.4023 2.37793C12.1729 2.46162 11.9635 2.57487 11.792 2.75586C11.6486 2.90729 11.5556 3.08174 11.4863 3.26562C11.417 3.08174 11.324 2.90729 11.1807 2.75586C11.009 2.57463 10.7991 2.46165 10.5693 2.37793C10.7991 2.29421 11.009 2.18122 11.1807 2C11.3242 1.84834 11.417 1.67346 11.4863 1.48926Z" stroke="#9E9E9E"/>
<path d="M6.7627 5.47461C6.79365 5.64687 6.82495 5.80584 6.8623 5.95117C6.97237 6.37928 7.13188 6.74977 7.4248 7.04004C7.71631 7.32879 8.08908 7.48745 8.52051 7.60059C8.71982 7.65283 8.94492 7.69708 9.19531 7.74023C8.93959 7.79426 8.7117 7.84818 8.51074 7.90625C8.08714 8.02869 7.72029 8.18793 7.43262 8.4668C7.14039 8.75017 6.97984 9.10815 6.86816 9.52734C6.83144 9.66524 6.79928 9.81621 6.76855 9.97949C6.73845 9.80735 6.70715 9.64817 6.66992 9.50293C6.56113 9.07867 6.40129 8.71425 6.10938 8.42676C5.82027 8.14208 5.4514 7.98167 5.02539 7.86426C4.8142 7.80605 4.57461 7.7542 4.30566 7.7041C4.56579 7.65046 4.79824 7.59866 5.00293 7.54102C5.42715 7.42152 5.79809 7.26643 6.08984 6.99121C6.38796 6.70995 6.55355 6.35211 6.66602 5.92969C6.703 5.79076 6.73278 5.63888 6.7627 5.47461Z" stroke="#9E9E9E"/>
<path d="M13.3857 7.50879C13.5559 8.80791 13.7341 9.86747 13.9912 10.7275C14.256 11.6132 14.6131 12.3196 15.1582 12.8711C16.2218 13.947 17.8849 14.3071 20.4385 14.5947C17.8847 14.8824 16.2218 15.2427 15.1582 16.3174C14.6132 16.8681 14.256 17.5728 13.9912 18.457C13.7338 19.3165 13.555 20.3756 13.3848 21.6738C13.205 20.3746 13.0209 19.3206 12.7598 18.4688C12.4912 17.5929 12.1335 16.8986 11.5898 16.3555C11.0457 15.812 10.3532 15.4577 9.4834 15.1953C8.64083 14.9412 7.60203 14.7645 6.3252 14.5947C8.87869 14.3069 10.5437 13.9478 11.6094 12.8711C12.155 12.3198 12.5137 11.6143 12.7793 10.7285C13.0372 9.86826 13.2155 8.80827 13.3857 7.50879Z" stroke="#9E9E9E"/>
</g>
</g>
<defs>
<clipPath id="clip0_1689_16853">
<rect width="24" height="24" fill="white"/>
</clipPath>
<clipPath id="clip1_1689_16853">
<rect width="18.4277" height="24.0723" fill="white" transform="translate(3)"/>
</clipPath>
</defs>
</svg>
