<svg width="25" height="20" viewBox="0 0 25 20" fill="none" xmlns="http://www.w3.org/2000/svg">
<rect x="1.25" y="1.35864" width="22.5" height="17.2826" rx="2.38043" stroke="#9E9E9E" stroke-width="1.5"/>
<line x1="14.5512" y1="6.16526" x2="20.6555" y2="6.16526" stroke="#9E9E9E" stroke-width="1.2" stroke-linecap="round"/>
<line x1="14.5512" y1="10.1303" x2="20.6555" y2="10.1303" stroke="#9E9E9E" stroke-width="1.2" stroke-linecap="round"/>
<line x1="14.5512" y1="14.0957" x2="20.6555" y2="14.0957" stroke="#9E9E9E" stroke-width="1.2" stroke-linecap="round"/>
<ellipse cx="8.15949" cy="7.54788" rx="2.24348" ry="2.45217" fill="#9E9E9E"/>
<path d="M11.8642 14.8C12.4405 14.8 12.9211 14.3241 12.7625 13.7701C12.7072 13.5771 12.6363 13.3875 12.5502 13.2027C12.3142 12.6963 11.9684 12.2362 11.5323 11.8486C11.0963 11.461 10.5786 11.1536 10.0089 10.9438C9.43924 10.7341 8.82863 10.6261 8.21199 10.6261C7.59535 10.6261 6.98475 10.7341 6.41504 10.9438C5.84534 11.1536 5.3277 11.461 4.89166 11.8486C4.45563 12.2362 4.10975 12.6963 3.87378 13.2027C3.78767 13.3875 3.71681 13.5771 3.66153 13.7701C3.50284 14.3241 3.98352 14.8 4.55982 14.8L8.21199 14.8H11.8642Z" fill="#9E9E9E"/>
</svg>
