<svg width="23" height="24" viewBox="0 0 23 24" fill="none" xmlns="http://www.w3.org/2000/svg">
<path d="M17.3754 0.936035H5.56262C2.70836 0.936035 0.394531 3.24987 0.394531 6.10412V17.9169C0.394531 20.7711 2.70836 23.085 5.56262 23.085H17.3754C20.2296 23.085 22.5435 20.7711 22.5435 17.9169V6.10412C22.5435 3.24987 20.2296 0.936035 17.3754 0.936035Z" fill="black"/>
<mask id="mask0_2032_3045" style="mask-type:luminance" maskUnits="userSpaceOnUse" x="0" y="0" width="23" height="24">
<path d="M17.3754 0.936035H5.56262C2.70836 0.936035 0.394531 3.24987 0.394531 6.10412V17.9169C0.394531 20.7711 2.70836 23.085 5.56262 23.085H17.3754C20.2296 23.085 22.5435 20.7711 22.5435 17.9169V6.10412C22.5435 3.24987 20.2296 0.936035 17.3754 0.936035Z" fill="white"/>
</mask>
<g mask="url(#mask0_2032_3045)">
<path fill-rule="evenodd" clip-rule="evenodd" d="M9.23012 17.8476C9.94073 18.0137 10.6912 18.1028 11.467 18.1028C15.9521 18.1028 19.5883 15.1279 19.5883 11.4582C19.5883 7.78845 15.9521 4.81348 11.467 4.81348C6.98182 4.81348 3.3457 7.78845 3.3457 11.4582C3.3457 13.8532 4.89428 15.9522 7.21715 17.1215C7.0898 18.0272 6.72194 18.6926 6.11432 19.118C7.32882 19.118 8.36742 18.6946 9.23012 17.8476Z" fill="white"/>
</g>
</svg>
