<?xml version="1.0" encoding="utf-8"?>
<!-- Generator: Adobe Illustrator 27.5.0, SVG Export Plug-In . SVG Version: 6.00 Build 0)  -->
<svg version="1.1" xmlns="http://www.w3.org/2000/svg" xmlns:xlink="http://www.w3.org/1999/xlink" x="0px" y="0px"
	 viewBox="0 0 500 500" style="enable-background:new 0 0 500 500;" xml:space="preserve">
<g id="BACKGROUND">
</g>
<g id="OBJECTS">
	<g>
		<path style="fill:#E6F0FF;" d="M253.579,293.318c32.878-0.288,65.755-0.577,98.633-0.865c7.199-0.063,14.736-0.21,21.048-3.671
			c6.313-3.461,10.803-11.392,7.942-17.999c-3.55-8.194-14.65-8.93-23.579-8.753c-8.928,0.177-20.233-1.754-22.415-10.413
			c-1.632-6.477,3.55-13.063,9.757-15.53c6.207-2.467,13.134-1.932,19.808-1.663c21.88,0.882,45.271-2.099,62.202-15.986
			c18.866-15.475,25.932-42.728,20.099-66.42c-5.833-23.693-23.153-43.581-44.259-55.825
			c-21.106-12.244-45.718-17.411-70.096-18.471c-24.377-1.059-130.378,2.45-158.215,2.737c-19.484,0.201-39.378,1.204-57.531,8.287
			c-30.86,12.041-53.624,42.002-58.217,74.808c-4.593,32.806,8.604,67.286,33.068,89.62c20.604,18.811,47.936,28.95,75.499,33.272
			S225.68,293.563,253.579,293.318z"/>
		<ellipse style="fill:#8CBE46;" cx="248.956" cy="462.722" rx="159.211" ry="7.102"/>
	</g>
	<g>
		<path d="M198.656,200.234c-0.56,18.074-0.576,36.4-1.136,54.474c25.086,0.04,50.605,0.495,75.691,0.535
			c2.131-14.031,4.263-28.062,6.395-42.093L198.656,200.234z"/>
		<g>
			<g>
				<path d="M100.491,372.175l-20.366,8.205l3.431,9.287c0.338,0.914,1.111,1.555,2.032,1.874c1.064,0.368,1.982,1.179,2.362,2.244
					c0.374,1.047,0.19,2.231-0.377,3.181c-0.49,0.82-0.659,1.79-0.328,2.685l4.145,11.219c0.444,1.203,1.377,2.12,2.506,2.727
					c0.771,0.414,1.403,1.082,1.704,1.908c0.299,0.82,0.247,1.73-0.07,2.538c-0.464,1.182-0.577,2.472-0.137,3.663l6.634,17.957
					c0.807,2.185,3.981,1.91,4.401-0.38l9.935-54.151C118.028,376.068,109.04,368.731,100.491,372.175z"/>
				<path style="fill:none;stroke:#FFFFFF;stroke-linecap:round;stroke-linejoin:round;stroke-miterlimit:10;" d="M89.155,377.943
					c5.597,20.467,11.193,40.933,16.79,61.4"/>
			</g>
			<g>
				
					<ellipse transform="matrix(0.7071 -0.7071 0.7071 0.7071 -231.5222 195.4753)" style="fill:#FFA5BC;" cx="120.199" cy="377.21" rx="8.692" ry="8.692"/>
				<path style="fill:none;stroke:#FFFFFF;stroke-linecap:round;stroke-linejoin:round;stroke-miterlimit:10;" d="M115.051,372.932
					c1.386-2.133,4.5-2.915,6.729-1.689"/>
			</g>
			<g>
				<circle style="fill:#FFA5BC;" cx="203.125" cy="329.774" r="8.692"/>
				<path style="fill:none;stroke:#FFFFFF;stroke-linecap:round;stroke-linejoin:round;stroke-miterlimit:10;" d="M198.273,326.02
					c1.74-2.221,5.166-2.9,7.622-1.511"/>
			</g>
			<g>
				<path d="M138.019,377.19l59.412-29.302c4.047-1.996,5.7-6.902,3.686-10.941l-4.439-8.902c-1.645-3.298-5.501-4.837-8.959-3.562
					c-11.203,4.13-36.042,14.938-60.508,36.736c-3.552,3.165-4.259,8.457-1.704,12.47h0
					C128.174,377.878,133.566,379.386,138.019,377.19z"/>
				<path style="fill:none;stroke:#FFFFFF;stroke-linecap:round;stroke-linejoin:round;stroke-miterlimit:10;" d="M126.011,372.076
					c21.072-16.615,44.421-30.338,69.19-40.662"/>
				<path style="fill:none;stroke:#FFFFFF;stroke-linecap:round;stroke-linejoin:round;stroke-miterlimit:10;" d="M140.694,374.953
					c-0.384-1.778,0.548-3.756,2.163-4.592c1.615-0.836,3.769-0.454,4.998,0.885"/>
				<path style="fill:none;stroke:#FFFFFF;stroke-linecap:round;stroke-linejoin:round;stroke-miterlimit:10;" d="M151.759,369.545
					c-0.639-1.938,0.39-4.276,2.251-5.113c1.86-0.837,4.293-0.058,5.32,1.705"/>
			</g>
			<g>
				<path style="fill:#FFA5BC;" d="M206.477,269.293c-1.919,9.33-3.838,18.66-5.757,27.991c-1.512,7.354-2.2,14.947,1.935,21.213
					c4.135,6.266,11.661,10.137,19.163,9.854c7.502-0.283,14.716-4.708,18.368-11.268c3.184-5.719,5.456-12.084,8.296-17.981
					L206.477,269.293z"/>
				<path style="fill:none;stroke:#FFFFFF;stroke-linecap:round;stroke-linejoin:round;stroke-miterlimit:10;" d="M237.007,315.757
					c-2.886,5.095-8.798,8.313-14.644,7.97"/>
				<path style="fill:none;stroke:#000000;stroke-linecap:round;stroke-linejoin:round;stroke-miterlimit:10;" d="M209.659,322.605
					c5.218-11.654,10.436-23.308,15.654-34.962"/>
				<path style="fill:none;stroke:#000000;stroke-linecap:round;stroke-linejoin:round;stroke-miterlimit:10;" d="M201.234,301.272
					c1.135,0.202,1.988,1.411,1.798,2.548c-0.19,1.137-1.391,2.002-2.53,1.823"/>
				<path style="fill:none;stroke:#000000;stroke-linecap:round;stroke-linejoin:round;stroke-miterlimit:10;" d="M202.203,292.278
					c0.951,0.27,1.627,1.289,1.507,2.27c-0.121,0.981-1.024,1.806-2.012,1.837"/>
			</g>
		</g>
		<g>
			<path style="fill:#FF7264;" d="M403.792,124.539c0.287-0.774,0.335-1.815-0.253-2.395c-6.946,1.76-13.892,3.521-20.838,5.281
				c-3.238,0.821-6.533,1.665-9.381,3.411c-2.848,1.746-5.573,4.686-5.957,8.005c-13.569,4.243-26.764,8.505-40.332,12.748
				c-5.807-11.663-11.613-23.326-17.42-34.989c-2.638-5.299-5.359-10.712-9.637-14.803c-4.278-4.091-10.771-5.657-16.678-6.03
				l-13.362-1.363l-39.947-6.538l-21.028-3.33c-9.911-1.359-19.858,0.099-28.847,4.488c-13.048,6.37-26.448,12.234-39.199,19.179
				c-11.161,6.078-18.835,18.611-18.856,31.32c-0.028,17.4,0.092,34.484,0.064,51.884c-1.721,2.122-2.37,4.892-2.97,7.557
				c-1.967,8.745-3.935,17.49-5.902,26.234c-1.218,0.479-2.844,0.816-4.062,1.294c-0.492,0.193-0.992,0.391-1.413,0.712
				c-0.42,0.322-0.759,0.789-0.803,1.316c-0.076-0.026-0.284,0.118-0.212,0.084c1.903,0.548,3.805,1.095,5.708,1.642
				c1.725,0.497,3.781,0.596,5.154-0.559c0.612,0.845,1.766,1.478,2.802,1.606c1.036,0.127,2.119-0.194,2.918-0.867
				c1.395,1.271,3.813,1.493,5.253,0.273c1.912,0.764,4.392,0.514,6.104-0.63c-0.075,1.217-0.226,2.567-0.053,3.775
				c0.115,0.802,0.48,1.728,1.275,1.883c4.169-6.112,7.745-12.263,10.738-19.029c10.475-23.672,11.101-51.469,10.509-77.348
				c9.9-3.44,19.588-6.845,29.488-10.285c-0.808,6.524-1.751,13.531-2.559,20.055l102.572,5.137
				c2.758,7.023,5.905,13.911,9.447,20.641c3.338,6.342,9.4,11.239,16.124,13.718c6.724,2.48,14.34,2.456,21.048-0.065
				c6.373-2.396,12.487-5.388,18.629-8.326c14.955-7.152,29.089-15.887,43.19-24.605c1.334-0.825,2.787-2.539,2.725-4.106
				c1.029-0.183,2.029-0.639,2.751-1.395c0.723-0.755,1.142-1.826,1.001-2.862c-0.141-1.036-0.767-2.117-1.808-2.212
				c-0.699-0.063-1.398-0.126-2.097-0.189c0.943-0.279,1.949-0.584,2.905-0.812c1.444-0.344,2.613-1.638,2.809-3.109
				c0.196-1.472-0.641-3.044-1.945-3.754c1.465-0.904,2.128-2.919,1.484-4.516c-0.644-1.598-2.462-2.517-4.145-2.152
				c1.199-1.319,2.397-2.638,3.595-3.958C402.938,125.945,403.505,125.314,403.792,124.539z"/>
			<path style="fill:none;stroke:#000000;stroke-linecap:round;stroke-linejoin:round;stroke-miterlimit:10;" d="M134.275,230.787
				c2.638-2.361,5.275-4.723,7.913-7.084"/>
			<path style="fill:none;stroke:#000000;stroke-linecap:round;stroke-linejoin:round;stroke-miterlimit:10;" d="M128.472,231.143
				c2.361-2.15,4.721-4.3,7.082-6.45"/>
			<path style="fill:none;stroke:#000000;stroke-linecap:round;stroke-linejoin:round;stroke-miterlimit:10;" d="M122.873,230.721
				c1.667-1.944,3.333-3.889,5-5.833"/>
			<path style="fill:none;stroke:#000000;stroke-linecap:round;stroke-linejoin:round;stroke-miterlimit:10;" d="M117.305,230.315
				c0.998-1.713,1.997-3.426,2.995-5.139"/>
			<path style="fill:none;stroke:#000000;stroke-linecap:round;stroke-linejoin:round;stroke-miterlimit:10;" d="M399.091,130.299
				c-3.126,1.223-6.053,2.956-8.629,5.108c-0.704,0.588-1.209,1.837-0.823,2.669s1.424,1.299,2.302,1.035
				c3.411-1.024,6.974-1.192,10.463-1.91"/>
			<path style="fill:none;stroke:#000000;stroke-linecap:round;stroke-linejoin:round;stroke-miterlimit:10;" d="M390.803,139.608
				c-1.001,0.261-1.763,1.251-1.759,2.285c0.004,1.035,0.774,2.018,1.778,2.271c2.749,0.692,5.785,0.651,8.607,0.923"/>
			<path style="fill:none;stroke:#000000;stroke-linecap:round;stroke-linejoin:round;stroke-miterlimit:10;" d="M391.566,144.756
				c-1.077-0.1-2.17,0.665-2.444,1.711c-0.274,1.046,0.304,2.249,1.292,2.689c2.533,1.128,5.227,1.305,7.781,2.386"/>
			<path style="fill:none;stroke:#000000;stroke-linecap:round;stroke-linejoin:round;stroke-miterlimit:10;" d="M390.115,149.62
				c-0.803,0.232-1.006,1.377-0.572,2.092c0.434,0.714,1.253,1.085,2.031,1.391c0.778,0.306,1.606,0.62,2.119,1.28"/>
			<path style="fill:none;stroke:#000000;stroke-linecap:round;stroke-linejoin:round;stroke-miterlimit:10;" d="M389.183,137.922
				c-2.19,2.856-4.38,5.712-6.57,8.568"/>
			<path style="fill:none;stroke:#000000;stroke-linecap:round;stroke-linejoin:round;stroke-miterlimit:10;" d="M367.829,143.275
				c0.37,2.582,0.74,5.165,1.109,7.747"/>
			<path style="fill:none;stroke:#000000;stroke-linecap:round;stroke-linejoin:round;stroke-miterlimit:10;" d="M327.175,151.271
				c-1.017,0.667-2.034,1.335-3.051,2.003"/>
		</g>
		<g>
			<g>
				<path style="fill:#FF7264;" d="M383.667,422.234l-65.913,19.64c-22.703-32.518-38.946-63.091-49.451-85.334
					c-10.212-21.647-14.989-35.403-14.989-35.403c-10.149-10.337-20.299-20.685-30.448-31.023
					c-3.648-3.721-7.296-7.432-10.944-11.153c-10.149-10.348-20.435-20.864-27.469-33.542c-7.035-12.679-10.547-28.002-6.23-41.852
					l66.603-3.167c0,0,15.386,28.629,30.438,56.36c6.679,12.323,13.296,24.459,18.469,33.845c5.373,9.762,12.7,25.149,20.152,41.549
					c11.184,24.584,22.692,51.468,28.483,65.129c2.477,5.822,7.108,10.452,12.93,12.919L383.667,422.234z"/>
				<path style="fill:none;stroke:#000000;stroke-linecap:round;stroke-linejoin:round;stroke-miterlimit:10;" d="M279.84,308.568
					c5.947,3.108,13.679,2.417,18.981-1.697"/>
			</g>
			<g>
				<path style="fill:#FFA5BC;" d="M383.667,422.234l-65.913,19.64c-22.703-32.518-38.946-63.091-49.451-85.334l45.583-24.386
					c11.184,24.584,22.692,51.468,28.483,65.129c2.477,5.822,7.108,10.452,12.93,12.919L383.667,422.234z"/>
				<polygon points="288.347,384.018 296.846,384.087 301.921,376.365 299.704,389.556 				"/>
				<path style="fill:none;stroke:#000000;stroke-linecap:round;stroke-linejoin:round;stroke-miterlimit:10;" d="M278.863,374.702
					c14.885-7.182,29.77-14.364,44.655-21.546"/>
				<path style="fill:none;stroke:#000000;stroke-linecap:round;stroke-linejoin:round;stroke-miterlimit:10;" d="M273.995,355.748
					c3.216,5.584,6.432,11.169,9.648,16.753"/>
				<path style="fill:none;stroke:#000000;stroke-linecap:round;stroke-linejoin:round;stroke-miterlimit:10;" d="M279.885,352.334
					c2.997,5.697,5.993,11.395,8.99,17.092"/>
				<path style="fill:none;stroke:#000000;stroke-linecap:round;stroke-linejoin:round;stroke-miterlimit:10;" d="M290.95,347.547
					c2.551,5.732,5.101,11.464,7.652,17.197"/>
				<path style="fill:none;stroke:#000000;stroke-linecap:round;stroke-linejoin:round;stroke-miterlimit:10;" d="M295.383,344.413
					c2.522,6.21,5.044,12.419,7.566,18.629"/>
				<path style="fill:none;stroke:#000000;stroke-linecap:round;stroke-linejoin:round;stroke-miterlimit:10;" d="M305,339.682
					c2.553,6.047,5.106,12.095,7.66,18.142"/>
				<path style="fill:none;stroke:#000000;stroke-linecap:round;stroke-linejoin:round;stroke-miterlimit:10;" d="M311.644,336.176
					c2.611,6.172,5.223,12.344,7.834,18.515"/>
			</g>
			<g>
				<path style="fill:#FFBE64;" d="M394.358,424.517l-40.575-16.795l-1.074,1.489c-1.146,1.588-1.908,3.441-2.089,5.391
					c-1.443,15.53-17.724,21.731-31.689,20.427c-2.241-0.209-4.456,0.587-6.078,2.146l12.495,22.749l12.918-5.77
					c1.266-0.565,2.357-1.536,2.876-2.822c0.317-0.785,0.895-1.465,1.65-1.852c0.823-0.421,1.805-0.468,2.685-0.195
					c1.306,0.405,2.697,0.443,3.945-0.114l14.137-6.314c1.243-0.555,2.132-1.624,2.656-2.88c0.362-0.866,1.015-1.609,1.871-2.005
					c0.874-0.404,1.888-0.413,2.797-0.108c1.327,0.444,2.754,0.491,4.032-0.08l19.507-8.712
					C396.408,428.184,396.369,425.349,394.358,424.517z"/>
				<path style="fill:none;stroke:#000000;stroke-linecap:round;stroke-linejoin:round;stroke-miterlimit:10;" d="M322.29,452.575
					c5.34-3.726,11.598-5.865,17.764-7.958c14.212-4.824,28.424-9.649,42.637-14.473c1.981-2.764,4.872-5.038,8.067-6.201"/>
				<path style="fill:none;stroke:#000000;stroke-linecap:round;stroke-linejoin:round;stroke-miterlimit:10;" d="M317.35,444.841
					c3.697-4.937,9.511-8.231,15.646-8.864s12.499,1.406,17.125,5.485"/>
				<path style="fill:none;stroke:#000000;stroke-linecap:round;stroke-linejoin:round;stroke-miterlimit:10;" d="M362.588,411.611
					c-0.828,2.244-1.656,4.488-2.483,6.731c2.516-1.623,5.032-3.245,7.549-4.868c-0.626,2.387-1.445,4.86-2.071,7.247
					c2.634-1.715,5.267-3.431,7.901-5.146"/>
				<path style="fill:none;stroke:#000000;stroke-linecap:round;stroke-linejoin:round;stroke-miterlimit:10;" d="M349.988,419.237
					c8.859,7.269,22.353,8.25,32.17,2.337"/>
			</g>
		</g>
		<g>
			<path style="fill:#8CBE46;" d="M275.264,256.761l-52.398,33.354c-3.648-3.721-7.296-7.432-10.944-11.153
				c-10.149-10.348-20.435-20.864-27.469-33.542c-7.035-12.679-10.547-28.002-6.23-41.852l66.603-3.167
				C244.826,200.401,260.212,229.03,275.264,256.761z"/>
			<g>
				<path d="M247.312,200.405l-80.107,21.048c-1.815,18.233,1.384,36.94,9.154,53.535c4.192-2.689,8.143-5.274,12.334-7.963
					c3.329-2.136,6.482-4.342,8.459-7.768c1.977-3.426,2.806-7.501,2.325-11.427c5.007,3.687,11.697,4.725,17.729,3.215
					c17.548-4.391,35.801-6.67,53.57-10.06C263.429,227.487,254.66,213.904,247.312,200.405z"/>
				<path style="fill:none;stroke:#FFFFFF;stroke-linecap:round;stroke-linejoin:round;stroke-miterlimit:10;" d="M254.475,216.975
					c4.665,8.167,9.33,16.335,13.995,24.502"/>
				<path style="fill:none;stroke:#FFFFFF;stroke-linecap:round;stroke-linejoin:round;stroke-miterlimit:10;" d="M198.99,247.311
					c-5.454-8.803-8.368-19.16-8.302-29.516"/>
				<path style="fill:none;stroke:#FFFFFF;stroke-linecap:round;stroke-linejoin:round;stroke-miterlimit:10;" d="M195.386,219.269
					c0.076,7.552,2.171,15.074,6.009,21.578c3.002,5.087,9.536,6.485,15.3,5.197c15.723-3.513,31.108-6.542,46.914-9.657"/>
				<path style="fill:none;stroke:#FFFFFF;stroke-linecap:round;stroke-linejoin:round;stroke-miterlimit:10;" d="M174.697,270.258
					c4.847-3.1,9.694-6.199,14.541-9.299c1.78-1.138,3.482-3.226,4.302-5.174c0.819-1.947,0.817-4.226-0.006-6.171
					c-4.043-9.552-7.763-19.313-8.306-29.671"/>
			</g>
		</g>
		<g>
			<path d="M273.845,93.068c-6.024-1.114-11.918-2.378-17.943-3.492c-1.273,3.052-4.848,4.949-8.089,4.294
				c-3.242-0.656-5.48-4.108-5.467-7.415c-6.4-0.232-12.37-0.668-18.769-0.899c-6.66,20.336-20.987,38.06-39.475,48.834
				c-1.028,9.71-1.986,19.607-3.013,29.316l104.926-22.876C280.641,125.095,276.369,109.503,273.845,93.068z"/>
			<g>
				<path style="fill:#FFFFFF;" d="M289.813,166.762c4.582-8.873,5.634-19.23,3.8-29.047c-2.651-14.19-4.888-28.446-7.539-42.637
					l-7.947-1.3c0.059,9.799-4.898,20.675-12.833,26.426c-7.934,5.751-18.684,7.401-27.978,4.294
					c-7.209-2.409-13.552-7.708-16.559-14.688c-3.257-7.557-2.57-16.7-1.472-24.856l-9.812-0.778
					c-2.001,13.579-4.959,27.017-8.845,40.181c-1.337,4.528-2.851,9.15-5.878,12.773c-3.028,3.623-7.937,6.058-12.505,4.865
					l-33.632,78.183c40.481,22.476,65.284-27.059,134.075-2.696L289.813,166.762z"/>
				<g>
					<path style="fill:none;stroke:#FFBE64;stroke-linecap:round;stroke-linejoin:round;stroke-miterlimit:10;" d="M208.524,108.648
						c0.663,0.814,1.327,1.627,1.99,2.441"/>
					<path style="fill:none;stroke:#FFBE64;stroke-linecap:round;stroke-linejoin:round;stroke-miterlimit:10;" d="M213.457,118.669
						c-0.252,1.064-0.505,2.128-0.757,3.193"/>
					<path style="fill:none;stroke:#FFBE64;stroke-linecap:round;stroke-linejoin:round;stroke-miterlimit:10;" d="M205.39,125.321
						c0,1.394,0,2.787,0,4.181"/>
					<path style="fill:none;stroke:#FFBE64;stroke-linecap:round;stroke-linejoin:round;stroke-miterlimit:10;" d="M216.949,130.24
						c1.558,0,3.115,0,4.673,0"/>
					<path style="fill:none;stroke:#FFBE64;stroke-linecap:round;stroke-linejoin:round;stroke-miterlimit:10;" d="M211.784,139.094
						c0.082,1.23,0.164,2.459,0.246,3.689"/>
					<path style="fill:none;stroke:#FFBE64;stroke-linecap:round;stroke-linejoin:round;stroke-miterlimit:10;" d="M197.22,145.994
						c0.326,1.23,0.651,2.461,0.977,3.691"/>
					<path style="fill:none;stroke:#FFBE64;stroke-linecap:round;stroke-linejoin:round;stroke-miterlimit:10;" d="M182.523,149.958
						c1.231-0.151,2.463-0.303,3.694-0.454"/>
					<path style="fill:none;stroke:#FFBE64;stroke-linecap:round;stroke-linejoin:round;stroke-miterlimit:10;" d="M185.771,162.695
						c0.255,1.72,0.511,3.44,0.766,5.161"/>
					<path style="fill:none;stroke:#FFBE64;stroke-linecap:round;stroke-linejoin:round;stroke-miterlimit:10;" d="M173.672,171.145
						c1.395-0.157,2.789-0.314,4.184-0.47"/>
					<path style="fill:none;stroke:#FFBE64;stroke-linecap:round;stroke-linejoin:round;stroke-miterlimit:10;" d="M196.504,173.009
						c-0.991,1.306-1.982,2.612-2.974,3.918"/>
					<path style="fill:none;stroke:#FFBE64;stroke-linecap:round;stroke-linejoin:round;stroke-miterlimit:10;" d="M207.603,160.245
						c1.64,0.82,3.279,1.64,4.919,2.459"/>
					<path style="fill:none;stroke:#FFBE64;stroke-linecap:round;stroke-linejoin:round;stroke-miterlimit:10;" d="M224.263,167.594
						c-0.409,0.902-0.819,1.804-1.228,2.706"/>
					<path style="fill:none;stroke:#FFBE64;stroke-linecap:round;stroke-linejoin:round;stroke-miterlimit:10;" d="M227.033,143.029
						c-0.492,1.066-0.984,2.132-1.476,3.197"/>
					<path style="fill:none;stroke:#FFBE64;stroke-linecap:round;stroke-linejoin:round;stroke-miterlimit:10;" d="M242.281,144.996
						c1.722,0.246,3.443,0.492,5.165,0.738"/>
					<path style="fill:none;stroke:#FFBE64;stroke-linecap:round;stroke-linejoin:round;stroke-miterlimit:10;" d="M236.563,156.814
						c0.317,1.478,0.634,2.956,0.951,4.434"/>
					<path style="fill:none;stroke:#FFBE64;stroke-linecap:round;stroke-linejoin:round;stroke-miterlimit:10;" d="M259.989,136.388
						c1.722-0.492,3.443-0.984,5.165-1.476"/>
					<path style="fill:none;stroke:#FFBE64;stroke-linecap:round;stroke-linejoin:round;stroke-miterlimit:10;" d="M234.657,134.421
						c0,1.066,0,2.132,0,3.197"/>
					<path style="fill:none;stroke:#FFBE64;stroke-linecap:round;stroke-linejoin:round;stroke-miterlimit:10;" d="M263.037,147.514
						c0.487,1.232,0.974,2.463,1.461,3.695"/>
					<path style="fill:none;stroke:#FFBE64;stroke-linecap:round;stroke-linejoin:round;stroke-miterlimit:10;" d="M255.07,164.917
						c-1.148,1.558-2.295,3.115-3.443,4.673"/>
					<path style="fill:none;stroke:#FFBE64;stroke-linecap:round;stroke-linejoin:round;stroke-miterlimit:10;" d="M271.794,164.426
						c1.066,0.738,2.132,1.476,3.197,2.213"/>
					<path style="fill:none;stroke:#FFBE64;stroke-linecap:round;stroke-linejoin:round;stroke-miterlimit:10;" d="M282.385,147.732
						c1.397-0.731,2.794-1.463,4.191-2.194"/>
					<path style="fill:none;stroke:#FFBE64;stroke-linecap:round;stroke-linejoin:round;stroke-miterlimit:10;" d="M282.615,128.518
						c0,1.394,0,2.787,0,4.181"/>
					<path style="fill:none;stroke:#FFBE64;stroke-linecap:round;stroke-linejoin:round;stroke-miterlimit:10;" d="M279.418,117.697
						c1.312-0.164,2.623-0.328,3.935-0.492"/>
					<path style="fill:none;stroke:#FFBE64;stroke-linecap:round;stroke-linejoin:round;stroke-miterlimit:10;" d="M283.845,174.755
						c-0.656,0.984-1.312,1.967-1.967,2.951"/>
					<path style="fill:none;stroke:#FFBE64;stroke-linecap:round;stroke-linejoin:round;stroke-miterlimit:10;" d="M264.786,175.518
						c0.252,1.228,0.505,2.457,0.757,3.685"/>
					<path style="fill:none;stroke:#FFBE64;stroke-linecap:round;stroke-linejoin:round;stroke-miterlimit:10;" d="M273.515,191.971
						c1.476-0.738,2.951-1.476,4.427-2.213"/>
					<path style="fill:none;stroke:#FFBE64;stroke-linecap:round;stroke-linejoin:round;stroke-miterlimit:10;" d="M251.094,191.481
						c0.074,1.312,0.149,2.624,0.223,3.936"/>
					<path style="fill:none;stroke:#FFBE64;stroke-linecap:round;stroke-linejoin:round;stroke-miterlimit:10;" d="M233.693,182.425
						c1.31-0.578,2.619-1.157,3.929-1.735"/>
					<path style="fill:none;stroke:#FFBE64;stroke-linecap:round;stroke-linejoin:round;stroke-miterlimit:10;" d="M212.314,178.695
						c-0.243,1.804-0.485,3.608-0.728,5.412"/>
					<path style="fill:none;stroke:#FFBE64;stroke-linecap:round;stroke-linejoin:round;stroke-miterlimit:10;" d="M221.868,192.217
						c1.148,1.394,2.295,2.787,3.443,4.181"/>
					<path style="fill:none;stroke:#FFBE64;stroke-linecap:round;stroke-linejoin:round;stroke-miterlimit:10;" d="M202.193,196.398
						c-0.492,0.656-0.984,1.312-1.476,1.968"/>
					<path style="fill:none;stroke:#FFBE64;stroke-linecap:round;stroke-linejoin:round;stroke-miterlimit:10;" d="M184.731,185.576
						c0.656,0.984,1.312,1.967,1.968,2.951"/>
					<path style="fill:none;stroke:#FFBE64;stroke-linecap:round;stroke-linejoin:round;stroke-miterlimit:10;" d="M172.188,202.546
						c1.394-0.41,2.787-0.82,4.181-1.23"/>
					<path style="fill:none;stroke:#FFBE64;stroke-linecap:round;stroke-linejoin:round;stroke-miterlimit:10;" d="M169.236,184.101
						c0,1.476,0,2.951,0,4.427"/>
					<path style="fill:none;stroke:#FFBE64;stroke-linecap:round;stroke-linejoin:round;stroke-miterlimit:10;" d="M163.098,205.497
						c0.164,1.64,0.328,3.279,0.492,4.919"/>
					<path style="fill:none;stroke:#FFBE64;stroke-linecap:round;stroke-linejoin:round;stroke-miterlimit:10;" d="M184.743,211.915
						c1.396-0.733,2.792-1.466,4.188-2.199"/>
					<path style="fill:none;stroke:#FFBE64;stroke-linecap:round;stroke-linejoin:round;stroke-miterlimit:10;" d="M216.127,204.072
						c0.8,1.324,1.599,2.648,2.399,3.972"/>
					<path style="fill:none;stroke:#FFBE64;stroke-linecap:round;stroke-linejoin:round;stroke-miterlimit:10;" d="M267.859,197.628
						c-1.312,1.066-2.623,2.131-3.935,3.197"/>
					<path style="fill:none;stroke:#FFBE64;stroke-linecap:round;stroke-linejoin:round;stroke-miterlimit:10;" d="M278.647,205.5
						c0.085,0.984,0.169,1.967,0.254,2.951"/>
				</g>
				<path style="fill:none;stroke:#000000;stroke-linecap:round;stroke-linejoin:round;stroke-miterlimit:10;" d="M217.221,85.506
					c-5.058,12.234-1.954,27.397,7.504,36.659c9.458,9.263,24.682,12.05,36.808,6.738c12.125-5.312,20.399-18.392,20.003-31.624"/>
				<path style="fill:none;stroke:#000000;stroke-linecap:round;stroke-linejoin:round;stroke-miterlimit:10;" d="M151.861,214.145
					c9.215,5.064,20.435,5.138,30.743,3.06c10.308-2.078,20.101-6.133,30.221-8.987c22.586-6.371,46.864-6.632,69.582-0.748"/>
			</g>
		</g>
		<g>
			<g>
				<path style="fill:#FFBE64;" d="M244.61,61.094c-2.34-2.765-5.677-4.667-9.248-5.272c-1.966-0.333-3.986-0.285-5.941-0.674
					c-5.122-1.02-9.447-5.276-10.549-10.381l-5.031,7.586c0.797,1.699,2.3,3.069,4.094,3.634c-1.917,0.075-3.841-0.555-5.378-1.699
					l-7.266,10.955c3.076,3.248,7.53,5.187,11.962,5.793c4.432,0.606,9.062-0.344,12.896-2.647c2.104-1.263,3.98-2.92,6.223-3.914
					c2.243-0.995,5.088-1.189,6.972,0.382c-0.7,0.502-1.392,0.867-2.092,1.368c-0.12,2.156-0.521,4.193-0.641,6.348
					c2.992,2.134,7.073,2.849,10.359,1.203c3.286-1.646,5.532-5.192,5.614-8.867L244.61,61.094z"/>
				<path style="fill:none;stroke:#FFBE64;stroke-linecap:round;stroke-linejoin:round;stroke-miterlimit:10;" d="M220.644,43.2
					c-0.374,4.887,2.869,9.825,7.503,11.423c2.448,0.844,5.099,0.814,7.656,1.223c2.557,0.41,5.243,1.424,6.58,3.643"/>
			</g>
			<g>
				<path style="fill:#FF7264;" d="M269.933,94.404c-4.019-0.893-7.917-1.746-11.936-2.638c0.295-1.843,0.716-3.806,1.011-5.649
					c2.457-0.311,4.785-1.55,6.415-3.415c1.63-1.865,2.337-4.594,2.554-7.061c0.368-4.184,0.136-8.344-0.613-12.476
					c-4.921,0.3-9.804,0.622-14.724,0.922c-0.399,2.823-1.78,5.523-3.851,7.484c-0.353,0.334-0.81,0.545-1.296,0.553
					c-0.005,0-0.011,0-0.016,0c-0.629,0.015-1.226-0.249-1.618-0.741c-0.519-0.651-1.073-1.312-1.514-1.945
					c-1.859-0.742-4.144-0.247-5.53,1.197c-1.385,1.444-1.785,3.748-0.967,5.575c0.818,1.826,2.803,3.063,4.803,2.991
					c-0.893,2.966-1.939,6.139-2.832,9.105c-3.196-0.124-6.635-0.316-9.831-0.439c-2.124,7.388,0.045,15.985,5.761,21.127
					c5.716,5.142,14.429,6.669,21.552,3.777C264.423,109.879,269.418,102.075,269.933,94.404z"/>
				<circle cx="266.678" cy="73.071" r="1"/>
				<circle cx="256.009" cy="73.571" r="1"/>
				<path style="fill:none;stroke:#000000;stroke-linecap:round;stroke-linejoin:round;stroke-miterlimit:10;" d="M242.286,79.175
					c0.833,0.125,1.715-0.131,2.352-0.683"/>
				<path style="fill:none;stroke:#000000;stroke-linecap:round;stroke-linejoin:round;stroke-miterlimit:10;" d="M239.927,73.152
					c1.153,0.215,2.307,0.43,3.46,0.646"/>
				<path style="fill:none;stroke:#000000;stroke-linecap:round;stroke-linejoin:round;stroke-miterlimit:10;" d="M254.48,70.001
					c0.747-1.138,2.574-1.345,3.557-0.403"/>
				<path style="fill:none;stroke:#000000;stroke-linecap:round;stroke-linejoin:round;stroke-miterlimit:10;" d="M261.808,72.329
					c0.477,1.399,0.953,2.798,1.43,4.197c-0.492,0-1.036-0.024-1.528-0.024"/>
				<path style="fill:none;stroke:#000000;stroke-linecap:round;stroke-linejoin:round;stroke-miterlimit:10;" d="M265.276,69.119
					c0.615-0.041,1.23-0.082,1.845-0.122"/>
				<path style="fill:none;stroke:#000000;stroke-linecap:round;stroke-linejoin:round;stroke-miterlimit:10;" d="M257.595,77.154
					c-0.272,0.477-0.16,1.139,0.253,1.501c0.413,0.362,1.083,0.386,1.521,0.054"/>
				<path style="fill:none;stroke:#000000;stroke-linecap:round;stroke-linejoin:round;stroke-miterlimit:10;" d="M250.557,84.418
					c2.656,1.269,5.64,1.842,8.577,1.648"/>
			</g>
			<g>
				<path style="fill:#8CBE46;" d="M239.208,69.246c-0.659-5.208,1.627-10.691,5.79-13.889c4.164-3.198,10.05-3.992,14.912-2.012
					c4.862,1.98,8.519,6.66,9.265,11.857l6.7,0.699c0.73,0.076,0.706,1.148-0.027,1.191L239.208,69.246z"/>
				
					<line style="fill:none;stroke:#000000;stroke-linecap:round;stroke-linejoin:round;stroke-miterlimit:10;" x1="269.176" y1="65.202" x2="239.818" y2="68.087"/>
			</g>
		</g>
	</g>
</g>
</svg>
