<svg width="24" height="24" viewBox="0 0 24 24" fill="none" xmlns="http://www.w3.org/2000/svg">
<g clip-path="url(#clip0_1532_4287)">
<path d="M14.1182 21.7498C14.0073 22.0629 13.8302 22.3522 13.5908 22.5916C13.1689 23.0133 12.5966 23.2498 12 23.2498C11.4034 23.2498 10.8311 23.0133 10.4092 22.5916C10.1698 22.3522 9.99268 22.0629 9.88184 21.7498H14.1182ZM12 0.748779C12.1048 0.748779 12.2089 0.770715 12.3047 0.813232C12.4003 0.855746 12.4864 0.918221 12.5566 0.99585C12.6268 1.0735 12.6802 1.16499 12.7129 1.2644C12.7456 1.36396 12.7566 1.4697 12.7461 1.57397L12.6787 2.24976L13.3438 2.38354C16.4278 3.00576 18.7498 5.7337 18.75 8.99976C18.75 9.88252 18.9441 12.1852 19.4219 14.4597C19.6612 15.5992 19.9778 16.7606 20.3896 17.7468C20.534 18.0926 20.6977 18.4326 20.8818 18.7498H3.11816C3.30229 18.4326 3.46597 18.0926 3.61035 17.7468C4.02216 16.7606 4.33876 15.5992 4.57812 14.4597C5.05587 12.1852 5.25 9.88252 5.25 8.99976L5.25586 8.70874C5.3183 7.25528 5.84959 5.85782 6.77344 4.72729C7.75882 3.52153 9.13118 2.69343 10.6572 2.38354L11.3213 2.24878L11.2539 1.57397C11.2434 1.4697 11.2544 1.36396 11.2871 1.2644C11.3198 1.16499 11.3732 1.0735 11.4434 0.99585C11.5136 0.91822 11.5997 0.855745 11.6953 0.813232C11.7911 0.770715 11.8952 0.748779 12 0.748779Z" stroke="#9E9E9E" stroke-width="1.5"/>
</g>
<defs>
<clipPath id="clip0_1532_4287">
<rect width="24" height="24" fill="white"/>
</clipPath>
</defs>
</svg>
