<svg width="207" height="389" viewBox="0 0 207 389" fill="none" xmlns="http://www.w3.org/2000/svg">
<rect x="1" y="1" width="205" height="387" rx="33" fill="#141414" stroke="#494949" stroke-width="2"/>
<rect x="84" y="21" width="40" height="3" rx="1.5" fill="#323232"/>
<rect x="16" y="69" width="175" height="72" rx="11" fill="white"/>
<path d="M72.7188 85.1797C72.7188 84.7708 72.7852 84.3893 72.918 84.0352C73.0534 83.6784 73.2461 83.3659 73.4961 83.0977C73.7487 82.8294 74.0508 82.6198 74.4023 82.4688C74.7539 82.3177 75.1471 82.2422 75.582 82.2422C75.9388 82.2422 76.2852 82.3099 76.6211 82.4453C76.9596 82.5781 77.263 82.7721 77.5312 83.0273C77.8021 83.2799 78.0169 83.5872 78.1758 83.9492C78.3346 84.3112 78.4141 84.7214 78.4141 85.1797C78.4141 85.5885 78.3464 85.9714 78.2109 86.3281C78.0781 86.6823 77.8854 86.9935 77.6328 87.2617C77.3828 87.5299 77.082 87.7396 76.7305 87.8906C76.3789 88.0417 75.9857 88.1172 75.5508 88.1172C75.194 88.1172 74.8464 88.0508 74.5078 87.918C74.1719 87.7826 73.8685 87.5885 73.5977 87.3359C73.3294 87.0807 73.1159 86.7721 72.957 86.4102C72.7982 86.0482 72.7188 85.638 72.7188 85.1797ZM73.6602 85.1016C73.6602 85.4453 73.7044 85.7734 73.793 86.0859C73.8841 86.3958 74.0143 86.6719 74.1836 86.9141C74.3555 87.1536 74.5625 87.3438 74.8047 87.4844C75.0469 87.6224 75.3203 87.6914 75.625 87.6914C76.0599 87.6914 76.4128 87.5794 76.6836 87.3555C76.9544 87.1315 77.1523 86.8346 77.2773 86.4648C77.4049 86.0951 77.4688 85.6927 77.4688 85.2578C77.4688 84.9141 77.4232 84.5872 77.332 84.2773C77.2435 83.9648 77.1133 83.6888 76.9414 83.4492C76.7721 83.207 76.5664 83.0169 76.3242 82.8789C76.082 82.7383 75.8086 82.668 75.5039 82.668C75.069 82.668 74.7161 82.7799 74.4453 83.0039C74.1745 83.2279 73.9753 83.5247 73.8477 83.8945C73.7227 84.2617 73.6602 84.6641 73.6602 85.1016ZM77.6758 89.4375C77.5091 89.4375 77.3516 89.4141 77.2031 89.3672C77.0547 89.3229 76.8945 89.2448 76.7227 89.1328C76.5508 89.0208 76.3477 88.8672 76.1133 88.6719L75.1055 87.8242C75.1576 87.8398 75.2161 87.8529 75.2812 87.8633C75.3464 87.8737 75.4128 87.8815 75.4805 87.8867C75.5482 87.8919 75.6094 87.8945 75.6641 87.8945C75.7708 87.8945 75.8724 87.8854 75.9688 87.8672C76.0677 87.849 76.151 87.8255 76.2188 87.7969L76.9883 88.3906C77.2747 88.6146 77.5378 88.7721 77.7773 88.8633C78.0169 88.957 78.2578 88.9909 78.5 88.9648V89.2305C78.3958 89.293 78.2708 89.3424 78.125 89.3789C77.9792 89.418 77.8294 89.4375 77.6758 89.4375ZM80.3242 84.0469V86.582C80.3242 86.9128 80.4062 87.1654 80.5703 87.3398C80.737 87.5117 80.9674 87.5977 81.2617 87.5977C81.4727 87.5977 81.6523 87.5547 81.8008 87.4688C81.9518 87.3802 82.0638 87.276 82.1367 87.1562V84.8594C82.1367 84.7526 82.1211 84.6797 82.0898 84.6406C82.0612 84.6016 81.9909 84.569 81.8789 84.543L81.5625 84.4688V84.207L82.9102 84.0469V87.2266C82.9102 87.3307 82.9258 87.4036 82.957 87.4453C82.9883 87.4844 83.0612 87.5182 83.1758 87.5469L83.4844 87.6211V87.8789L82.1523 88.043V87.4492C82.0404 87.6315 81.8763 87.7839 81.6602 87.9062C81.4466 88.026 81.1901 88.0859 80.8906 88.0859C80.4948 88.0859 80.1732 87.974 79.9258 87.75C79.6784 87.5234 79.5547 87.2057 79.5547 86.7969V84.8594C79.5547 84.7526 79.5391 84.6797 79.5078 84.6406C79.4792 84.6016 79.4076 84.569 79.293 84.543L78.9805 84.4688V84.207L80.3242 84.0469ZM86.0547 88.0859C85.6849 88.0859 85.3516 88 85.0547 87.8281C84.7604 87.6562 84.5273 87.418 84.3555 87.1133C84.1836 86.8086 84.0977 86.4583 84.0977 86.0625C84.0977 85.6562 84.1862 85.2995 84.3633 84.9922C84.5404 84.6823 84.7799 84.4401 85.082 84.2656C85.3867 84.0911 85.7318 84.0039 86.1172 84.0039C86.4896 84.0039 86.8229 84.0898 87.1172 84.2617C87.4141 84.4336 87.6484 84.6719 87.8203 84.9766C87.9922 85.2812 88.0781 85.6315 88.0781 86.0273C88.0781 86.431 87.9896 86.7878 87.8125 87.0977C87.6354 87.4076 87.3945 87.6497 87.0898 87.8242C86.7852 87.9987 86.4401 88.0859 86.0547 88.0859ZM86.1172 87.6797C86.474 87.6797 86.7513 87.5391 86.9492 87.2578C87.1471 86.9766 87.2461 86.5924 87.2461 86.1055C87.2461 85.7591 87.194 85.4596 87.0898 85.207C86.9857 84.9518 86.8438 84.7552 86.6641 84.6172C86.487 84.4792 86.2839 84.4102 86.0547 84.4102C85.7005 84.4102 85.4245 84.5508 85.2266 84.832C85.0286 85.1107 84.9297 85.4948 84.9297 85.9844C84.9297 86.3307 84.9805 86.6315 85.082 86.8867C85.1862 87.1393 85.3268 87.3346 85.5039 87.4727C85.6836 87.6107 85.888 87.6797 86.1172 87.6797ZM89.2305 86.8828V84.5H88.6953V84.293L89.8633 83.3633H90V84.1133L91.2383 84.0898V84.5L90 84.4844V86.7031C90 87.0495 90.0703 87.2865 90.2109 87.4141C90.3516 87.5391 90.5286 87.6016 90.7422 87.6016C90.849 87.6016 90.9518 87.5885 91.0508 87.5625C91.1497 87.5339 91.2344 87.4974 91.3047 87.4531V87.75C91.2161 87.8464 91.0846 87.9271 90.9102 87.9922C90.7357 88.0547 90.5417 88.0859 90.3281 88.0859C90.1328 88.0859 89.9518 88.0469 89.7852 87.9688C89.6185 87.8906 89.4844 87.7643 89.3828 87.5898C89.2812 87.4128 89.2305 87.1771 89.2305 86.8828ZM91.7148 86.0742C91.7148 85.668 91.793 85.3099 91.9492 85C92.1081 84.6901 92.3281 84.4479 92.6094 84.2734C92.8906 84.0964 93.2135 84.0078 93.5781 84.0078C93.9323 84.0078 94.2305 84.0755 94.4727 84.2109C94.7174 84.3464 94.9023 84.5404 95.0273 84.793C95.1549 85.043 95.2188 85.3424 95.2188 85.6914C95.2188 85.7409 95.2174 85.7891 95.2148 85.8359C95.2148 85.8828 95.2122 85.9245 95.207 85.9609H92.1289V85.6172H94.5781L94.4727 85.7344C94.4727 85.7135 94.4727 85.694 94.4727 85.6758C94.4727 85.6576 94.4727 85.6354 94.4727 85.6094C94.4727 85.2188 94.3932 84.9219 94.2344 84.7188C94.0781 84.513 93.8555 84.4102 93.5664 84.4102C93.2565 84.4102 93.0013 84.5273 92.8008 84.7617C92.6003 84.9935 92.5 85.3581 92.5 85.8555C92.5 86.2096 92.5651 86.5169 92.6953 86.7773C92.8255 87.0378 93.0091 87.2396 93.2461 87.3828C93.4831 87.526 93.7604 87.5977 94.0781 87.5977C94.276 87.5977 94.4688 87.5638 94.6562 87.4961C94.8464 87.4284 95.0026 87.3372 95.125 87.2227V87.5195C94.9844 87.681 94.7878 87.8164 94.5352 87.9258C94.2826 88.0326 93.9896 88.0859 93.6562 88.0859C93.2891 88.0859 92.9583 88.0065 92.6641 87.8477C92.3724 87.6862 92.1406 87.4557 91.9688 87.1562C91.7995 86.8542 91.7148 86.4935 91.7148 86.0742ZM99.9766 88.0859C99.6068 88.0859 99.2734 88 98.9766 87.8281C98.6823 87.6562 98.4492 87.418 98.2773 87.1133C98.1055 86.8086 98.0195 86.4583 98.0195 86.0625C98.0195 85.6562 98.1081 85.2995 98.2852 84.9922C98.4622 84.6823 98.7018 84.4401 99.0039 84.2656C99.3086 84.0911 99.6536 84.0039 100.039 84.0039C100.411 84.0039 100.745 84.0898 101.039 84.2617C101.336 84.4336 101.57 84.6719 101.742 84.9766C101.914 85.2812 102 85.6315 102 86.0273C102 86.431 101.911 86.7878 101.734 87.0977C101.557 87.4076 101.316 87.6497 101.012 87.8242C100.707 87.9987 100.362 88.0859 99.9766 88.0859ZM100.039 87.6797C100.396 87.6797 100.673 87.5391 100.871 87.2578C101.069 86.9766 101.168 86.5924 101.168 86.1055C101.168 85.7591 101.116 85.4596 101.012 85.207C100.908 84.9518 100.766 84.7552 100.586 84.6172C100.409 84.4792 100.206 84.4102 99.9766 84.4102C99.6224 84.4102 99.3464 84.5508 99.1484 84.832C98.9505 85.1107 98.8516 85.4948 98.8516 85.9844C98.8516 86.3307 98.9023 86.6315 99.0039 86.8867C99.1081 87.1393 99.2487 87.3346 99.4258 87.4727C99.6055 87.6107 99.8099 87.6797 100.039 87.6797ZM104.004 87.3164C104.004 87.4128 104.017 87.4857 104.043 87.5352C104.069 87.5846 104.128 87.6211 104.219 87.6445C104.31 87.6654 104.451 87.6849 104.641 87.7031V88H102.66V87.7031C102.915 87.6771 103.074 87.6432 103.137 87.6016C103.202 87.5599 103.234 87.4805 103.234 87.3633V84.5H102.66V84.293L103.234 84.0898V83.5977C103.234 83.2852 103.283 83.0234 103.379 82.8125C103.478 82.6016 103.616 82.444 103.793 82.3398C103.973 82.2331 104.184 82.1797 104.426 82.1797C104.702 82.1797 104.913 82.2448 105.059 82.375C105.207 82.5026 105.281 82.6536 105.281 82.8281C105.281 82.9349 105.245 83.026 105.172 83.1016C105.102 83.1745 105.013 83.2109 104.906 83.2109C104.797 83.2109 104.707 83.1745 104.637 83.1016C104.566 83.0286 104.531 82.9375 104.531 82.8281C104.531 82.7266 104.565 82.6419 104.633 82.5742C104.703 82.5039 104.786 82.4688 104.883 82.4688C104.974 82.4688 105.051 82.5039 105.113 82.5742C105.178 82.6419 105.211 82.7266 105.211 82.8281H104.941C104.921 82.7578 104.874 82.694 104.801 82.6367C104.728 82.5768 104.638 82.5469 104.531 82.5469C104.365 82.5469 104.234 82.6133 104.141 82.7461C104.049 82.8789 104.004 83.0794 104.004 83.3477V84.1055L105.152 84.0898V84.5L104.004 84.4844V87.3164ZM107.949 86.8828V84.5H107.414V84.293L108.582 83.3633H108.719V84.1133L109.957 84.0898V84.5L108.719 84.4844V86.7031C108.719 87.0495 108.789 87.2865 108.93 87.4141C109.07 87.5391 109.247 87.6016 109.461 87.6016C109.568 87.6016 109.671 87.5885 109.77 87.5625C109.868 87.5339 109.953 87.4974 110.023 87.4531V87.75C109.935 87.8464 109.803 87.9271 109.629 87.9922C109.454 88.0547 109.26 88.0859 109.047 88.0859C108.852 88.0859 108.671 88.0469 108.504 87.9688C108.337 87.8906 108.203 87.7643 108.102 87.5898C108 87.4128 107.949 87.1771 107.949 86.8828ZM111.754 82.1953V84.6172C111.871 84.4401 112.038 84.2943 112.254 84.1797C112.473 84.0625 112.73 84.0039 113.027 84.0039C113.431 84.0039 113.759 84.1146 114.012 84.3359C114.264 84.5547 114.391 84.8633 114.391 85.2617V87.3633C114.391 87.4414 114.402 87.5026 114.426 87.5469C114.452 87.5885 114.505 87.6211 114.586 87.6445C114.667 87.6654 114.793 87.6849 114.965 87.7031V88H113.082V87.7031C113.322 87.6771 113.47 87.6445 113.527 87.6055C113.587 87.5664 113.617 87.4909 113.617 87.3789V85.4766C113.617 85.1562 113.533 84.9128 113.363 84.7461C113.197 84.5768 112.97 84.4922 112.684 84.4922C112.454 84.4922 112.26 84.5352 112.102 84.6211C111.945 84.707 111.829 84.8112 111.754 84.9336V87.3789C111.754 87.4909 111.784 87.5664 111.844 87.6055C111.904 87.6445 112.053 87.6771 112.293 87.7031V88H110.41V87.7031C110.665 87.6771 110.824 87.6432 110.887 87.6016C110.952 87.5599 110.984 87.4805 110.984 87.3633V83.0117C110.984 82.9049 110.969 82.832 110.938 82.793C110.909 82.7513 110.837 82.7174 110.723 82.6914L110.41 82.6172V82.3594L111.754 82.1953ZM115.559 86.0742C115.559 85.668 115.637 85.3099 115.793 85C115.952 84.6901 116.172 84.4479 116.453 84.2734C116.734 84.0964 117.057 84.0078 117.422 84.0078C117.776 84.0078 118.074 84.0755 118.316 84.2109C118.561 84.3464 118.746 84.5404 118.871 84.793C118.999 85.043 119.062 85.3424 119.062 85.6914C119.062 85.7409 119.061 85.7891 119.059 85.8359C119.059 85.8828 119.056 85.9245 119.051 85.9609H115.973V85.6172H118.422L118.316 85.7344C118.316 85.7135 118.316 85.694 118.316 85.6758C118.316 85.6576 118.316 85.6354 118.316 85.6094C118.316 85.2188 118.237 84.9219 118.078 84.7188C117.922 84.513 117.699 84.4102 117.41 84.4102C117.1 84.4102 116.845 84.5273 116.645 84.7617C116.444 84.9935 116.344 85.3581 116.344 85.8555C116.344 86.2096 116.409 86.5169 116.539 86.7773C116.669 87.0378 116.853 87.2396 117.09 87.3828C117.327 87.526 117.604 87.5977 117.922 87.5977C118.12 87.5977 118.312 87.5638 118.5 87.4961C118.69 87.4284 118.846 87.3372 118.969 87.2227V87.5195C118.828 87.681 118.632 87.8164 118.379 87.9258C118.126 88.0326 117.833 88.0859 117.5 88.0859C117.133 88.0859 116.802 88.0065 116.508 87.8477C116.216 87.6862 115.984 87.4557 115.812 87.1562C115.643 86.8542 115.559 86.4935 115.559 86.0742ZM121.863 86.0938C121.863 85.6797 121.945 85.3164 122.109 85.0039C122.276 84.6888 122.5 84.444 122.781 84.2695C123.062 84.0924 123.376 84.0039 123.723 84.0039C123.941 84.0039 124.141 84.0417 124.32 84.1172C124.503 84.1927 124.652 84.2878 124.77 84.4023V83.0117C124.77 82.9049 124.754 82.832 124.723 82.793C124.694 82.7513 124.624 82.7174 124.512 82.6914L124.195 82.6172V82.3594L125.543 82.1953V87.2266C125.543 87.3307 125.559 87.4036 125.59 87.4453C125.621 87.4844 125.695 87.5182 125.812 87.5469L126.117 87.6211V87.8789L124.789 88.043V87.4062C124.682 87.6068 124.508 87.7708 124.266 87.8984C124.023 88.0234 123.758 88.0859 123.469 88.0859C123.182 88.0859 122.917 88.0065 122.672 87.8477C122.43 87.6888 122.234 87.4609 122.086 87.1641C121.938 86.8672 121.863 86.5104 121.863 86.0938ZM122.668 86.0234C122.668 86.513 122.776 86.8984 122.992 87.1797C123.208 87.4583 123.497 87.5977 123.859 87.5977C124.065 87.5977 124.247 87.5573 124.406 87.4766C124.568 87.3958 124.689 87.2799 124.77 87.1289V84.8242C124.704 84.7122 124.594 84.6159 124.438 84.5352C124.284 84.4544 124.099 84.4141 123.883 84.4141C123.529 84.4141 123.237 84.5573 123.008 84.8438C122.781 85.1302 122.668 85.5234 122.668 86.0234ZM127.863 88.0859C127.533 88.0859 127.255 87.9922 127.031 87.8047C126.81 87.6172 126.699 87.3789 126.699 87.0898C126.699 86.8737 126.75 86.6875 126.852 86.5312C126.956 86.375 127.118 86.2422 127.34 86.1328C127.561 86.0208 127.846 85.9271 128.195 85.8516L129.477 85.5703V85.9297L128.527 86.1328C128.15 86.2161 127.88 86.3216 127.719 86.4492C127.56 86.5768 127.48 86.7448 127.48 86.9531C127.48 87.1667 127.552 87.3333 127.695 87.4531C127.839 87.5729 128.021 87.6328 128.242 87.6328C128.432 87.6328 128.604 87.5951 128.758 87.5195C128.914 87.444 129.036 87.3424 129.125 87.2148V85.3398C129.125 84.9909 129.036 84.7487 128.859 84.6133C128.682 84.4779 128.454 84.4102 128.176 84.4102C128.007 84.4102 127.85 84.4323 127.707 84.4766C127.566 84.5182 127.447 84.5833 127.348 84.6719C127.249 84.7578 127.178 84.8672 127.137 85H126.938C126.938 84.8646 126.975 84.75 127.051 84.6562C127.126 84.5599 127.216 84.5117 127.32 84.5117C127.427 84.5117 127.52 84.5534 127.598 84.6367C127.676 84.7201 127.715 84.819 127.715 84.9336C127.715 85.0534 127.672 85.1523 127.586 85.2305C127.503 85.3086 127.397 85.3477 127.27 85.3477C127.145 85.3477 127.038 85.3073 126.949 85.2266C126.863 85.1458 126.82 85.0417 126.82 84.9141C126.82 84.7318 126.895 84.5729 127.043 84.4375C127.191 84.3021 127.388 84.1966 127.633 84.1211C127.88 84.043 128.15 84.0039 128.441 84.0039C128.884 84.0039 129.234 84.1029 129.492 84.3008C129.753 84.4987 129.883 84.8073 129.883 85.2266V87.1719C129.883 87.3464 129.924 87.4688 130.008 87.5391C130.094 87.6094 130.195 87.6445 130.312 87.6445C130.409 87.6445 130.484 87.6315 130.539 87.6055V87.8789C130.474 87.9232 130.387 87.9648 130.277 88.0039C130.168 88.043 130.044 88.0625 129.906 88.0625C129.776 88.0625 129.659 88.0417 129.555 88C129.453 87.9583 129.367 87.8971 129.297 87.8164C129.229 87.7357 129.181 87.6367 129.152 87.5195C129.038 87.6706 128.866 87.8034 128.637 87.918C128.408 88.0299 128.15 88.0859 127.863 88.0859ZM131.141 85.0156C131.078 84.8594 131.02 84.7409 130.965 84.6602C130.91 84.5794 130.845 84.5208 130.77 84.4844C130.694 84.4453 130.592 84.4128 130.465 84.3867V84.0898H132.395V84.3867C132.126 84.4102 131.961 84.457 131.898 84.5273C131.839 84.5951 131.849 84.737 131.93 84.9531L132.809 87.3008H132.633L133.562 84.9531C133.648 84.7344 133.66 84.5911 133.598 84.5234C133.535 84.4531 133.368 84.4076 133.098 84.3867V84.0898H134.652V84.3867C134.52 84.4049 134.415 84.4297 134.34 84.4609C134.267 84.4922 134.203 84.5495 134.148 84.6328C134.094 84.7161 134.03 84.8464 133.957 85.0234L133.016 87.3008L132.727 88L132.074 89.7969H131.371V89.7812C131.454 89.6276 131.551 89.4479 131.66 89.2422C131.77 89.0365 131.883 88.8203 132 88.5938C132.117 88.3698 132.229 88.1549 132.336 87.9492L131.141 85.0156Z" fill="#575757"/>
<path d="M33.2266 98.3594L33.2734 99.7656H33C32.9505 99.4714 32.8763 99.2513 32.7773 99.1055C32.6784 98.9596 32.526 98.8607 32.3203 98.8086C32.1172 98.7539 31.8307 98.7214 31.4609 98.7109L31.2148 98.7031V103.176C31.2148 103.301 31.2305 103.398 31.2617 103.469C31.2956 103.539 31.3646 103.591 31.4688 103.625C31.5755 103.656 31.7396 103.682 31.9609 103.703V104H29.6289V103.703C29.8503 103.682 30.013 103.656 30.1172 103.625C30.2214 103.591 30.2891 103.539 30.3203 103.469C30.3542 103.398 30.3711 103.301 30.3711 103.176V98.7031L30.1289 98.7109C29.7617 98.7214 29.4753 98.7539 29.2695 98.8086C29.0638 98.8607 28.9115 98.9596 28.8125 99.1055C28.7135 99.2513 28.6393 99.4714 28.5898 99.7656H28.3164L28.3633 98.3594H33.2266ZM35.0938 98.1953V100.617C35.2109 100.44 35.3776 100.294 35.5938 100.18C35.8125 100.062 36.0703 100.004 36.3672 100.004C36.7708 100.004 37.099 100.115 37.3516 100.336C37.6042 100.555 37.7305 100.863 37.7305 101.262V103.363C37.7305 103.441 37.7422 103.503 37.7656 103.547C37.7917 103.589 37.8451 103.621 37.9258 103.645C38.0065 103.665 38.1328 103.685 38.3047 103.703V104H36.4219V103.703C36.6615 103.677 36.8099 103.645 36.8672 103.605C36.9271 103.566 36.957 103.491 36.957 103.379V101.477C36.957 101.156 36.8724 100.913 36.7031 100.746C36.5365 100.577 36.3099 100.492 36.0234 100.492C35.7943 100.492 35.6003 100.535 35.4414 100.621C35.2852 100.707 35.1693 100.811 35.0938 100.934V103.379C35.0938 103.491 35.1237 103.566 35.1836 103.605C35.2435 103.645 35.3932 103.677 35.6328 103.703V104H33.75V103.703C34.0052 103.677 34.1641 103.643 34.2266 103.602C34.2917 103.56 34.3242 103.48 34.3242 103.363V99.0117C34.3242 98.9049 34.3086 98.832 34.2773 98.793C34.2487 98.7513 34.1771 98.7174 34.0625 98.6914L33.75 98.6172V98.3594L35.0938 98.1953ZM38.8984 102.074C38.8984 101.668 38.9766 101.31 39.1328 101C39.2917 100.69 39.5117 100.448 39.793 100.273C40.0742 100.096 40.3971 100.008 40.7617 100.008C41.1159 100.008 41.4141 100.076 41.6562 100.211C41.901 100.346 42.0859 100.54 42.2109 100.793C42.3385 101.043 42.4023 101.342 42.4023 101.691C42.4023 101.741 42.401 101.789 42.3984 101.836C42.3984 101.883 42.3958 101.924 42.3906 101.961H39.3125V101.617H41.7617L41.6562 101.734C41.6562 101.714 41.6562 101.694 41.6562 101.676C41.6562 101.658 41.6562 101.635 41.6562 101.609C41.6562 101.219 41.5768 100.922 41.418 100.719C41.2617 100.513 41.0391 100.41 40.75 100.41C40.4401 100.41 40.1849 100.527 39.9844 100.762C39.7839 100.993 39.6836 101.358 39.6836 101.855C39.6836 102.21 39.7487 102.517 39.8789 102.777C40.0091 103.038 40.1927 103.24 40.4297 103.383C40.6667 103.526 40.944 103.598 41.2617 103.598C41.4596 103.598 41.6523 103.564 41.8398 103.496C42.0299 103.428 42.1862 103.337 42.3086 103.223V103.52C42.168 103.681 41.9714 103.816 41.7188 103.926C41.4661 104.033 41.1732 104.086 40.8398 104.086C40.4727 104.086 40.1419 104.007 39.8477 103.848C39.556 103.686 39.3242 103.456 39.1523 103.156C38.9831 102.854 38.8984 102.493 38.8984 102.074ZM45.5312 101.016C45.4766 100.859 45.4219 100.741 45.3672 100.66C45.3125 100.579 45.2448 100.521 45.1641 100.484C45.0859 100.445 44.9818 100.413 44.8516 100.387V100.09H46.6836V100.387C46.4596 100.405 46.3216 100.451 46.2695 100.523C46.2201 100.594 46.2305 100.737 46.3008 100.953L47.0625 103.301H46.8984L47.7266 100.953C47.8021 100.74 47.8151 100.596 47.7656 100.523C47.7161 100.448 47.5911 100.402 47.3906 100.387V100.09H49.0859V100.387C48.8854 100.402 48.7617 100.448 48.7148 100.523C48.668 100.596 48.6784 100.74 48.7461 100.953L49.5039 103.301H49.3398L50.1562 100.953C50.2318 100.734 50.2435 100.59 50.1914 100.52C50.1393 100.449 50 100.405 49.7734 100.387V100.09H51.2227V100.387C51.0951 100.405 50.9935 100.43 50.918 100.461C50.8451 100.49 50.7812 100.546 50.7266 100.629C50.6745 100.71 50.6159 100.839 50.5508 101.016L49.4531 104H49.0117L47.9648 100.926H48.1406L47.0234 104H46.582L45.5312 101.016ZM53.3164 104.086C52.9466 104.086 52.6133 104 52.3164 103.828C52.0221 103.656 51.7891 103.418 51.6172 103.113C51.4453 102.809 51.3594 102.458 51.3594 102.062C51.3594 101.656 51.4479 101.299 51.625 100.992C51.8021 100.682 52.0417 100.44 52.3438 100.266C52.6484 100.091 52.9935 100.004 53.3789 100.004C53.7513 100.004 54.0846 100.09 54.3789 100.262C54.6758 100.434 54.9102 100.672 55.082 100.977C55.2539 101.281 55.3398 101.632 55.3398 102.027C55.3398 102.431 55.2513 102.788 55.0742 103.098C54.8971 103.408 54.6562 103.65 54.3516 103.824C54.0469 103.999 53.7018 104.086 53.3164 104.086ZM53.3789 103.68C53.7357 103.68 54.013 103.539 54.2109 103.258C54.4089 102.977 54.5078 102.592 54.5078 102.105C54.5078 101.759 54.4557 101.46 54.3516 101.207C54.2474 100.952 54.1055 100.755 53.9258 100.617C53.7487 100.479 53.5456 100.41 53.3164 100.41C52.9622 100.41 52.6862 100.551 52.4883 100.832C52.2904 101.111 52.1914 101.495 52.1914 101.984C52.1914 102.331 52.2422 102.632 52.3438 102.887C52.4479 103.139 52.5885 103.335 52.7656 103.473C52.9453 103.611 53.1497 103.68 53.3789 103.68ZM57.3242 100.047V100.848C57.5664 100.572 57.7826 100.365 57.9727 100.227C58.1654 100.089 58.3516 100.02 58.5312 100.02C58.6901 100.02 58.8008 100.062 58.8633 100.148C58.9284 100.234 58.9609 100.335 58.9609 100.449C58.9609 100.504 58.9544 100.557 58.9414 100.609C58.9284 100.659 58.9102 100.698 58.8867 100.727C58.8451 100.714 58.7891 100.704 58.7188 100.699C58.651 100.691 58.5781 100.688 58.5 100.688C58.276 100.688 58.0521 100.725 57.8281 100.801C57.6068 100.876 57.4453 100.973 57.3438 101.09V103.316C57.3438 103.413 57.3568 103.486 57.3828 103.535C57.4089 103.585 57.4674 103.621 57.5586 103.645C57.6497 103.665 57.7904 103.685 57.9805 103.703V104H56V103.703C56.2552 103.677 56.4141 103.643 56.4766 103.602C56.5417 103.56 56.5742 103.48 56.5742 103.363V100.859C56.5742 100.753 56.5586 100.68 56.5273 100.641C56.4987 100.602 56.4271 100.569 56.3125 100.543L56 100.469V100.207L57.3242 100.047ZM60.6172 98.1992V103.363C60.6172 103.48 60.6484 103.56 60.7109 103.602C60.776 103.643 60.9362 103.677 61.1914 103.703V104H59.2734V103.703C59.5286 103.677 59.6875 103.643 59.75 103.602C59.8151 103.56 59.8477 103.48 59.8477 103.363V99.0117C59.8477 98.9049 59.832 98.832 59.8008 98.793C59.7721 98.7513 59.7005 98.7174 59.5859 98.6914L59.2734 98.6172V98.3594L60.6172 98.1992ZM61.8047 102.094C61.8047 101.68 61.8867 101.316 62.0508 101.004C62.2174 100.689 62.4414 100.444 62.7227 100.27C63.0039 100.092 63.3177 100.004 63.6641 100.004C63.8828 100.004 64.082 100.042 64.2617 100.117C64.444 100.193 64.5938 100.288 64.7109 100.402V99.0117C64.7109 98.9049 64.6953 98.832 64.6641 98.793C64.6354 98.7513 64.5651 98.7174 64.4531 98.6914L64.1367 98.6172V98.3594L65.4844 98.1953V103.227C65.4844 103.331 65.5 103.404 65.5312 103.445C65.5625 103.484 65.6367 103.518 65.7539 103.547L66.0586 103.621V103.879L64.7305 104.043V103.406C64.6237 103.607 64.4492 103.771 64.207 103.898C63.9648 104.023 63.6992 104.086 63.4102 104.086C63.1237 104.086 62.8581 104.007 62.6133 103.848C62.3711 103.689 62.1758 103.461 62.0273 103.164C61.8789 102.867 61.8047 102.51 61.8047 102.094ZM62.6094 102.023C62.6094 102.513 62.7174 102.898 62.9336 103.18C63.1497 103.458 63.4388 103.598 63.8008 103.598C64.0065 103.598 64.1888 103.557 64.3477 103.477C64.5091 103.396 64.6302 103.28 64.7109 103.129V100.824C64.6458 100.712 64.5352 100.616 64.3789 100.535C64.2253 100.454 64.0404 100.414 63.8242 100.414C63.4701 100.414 63.1784 100.557 62.9492 100.844C62.7227 101.13 62.6094 101.523 62.6094 102.023ZM69.875 100.047V103.363C69.875 103.48 69.9062 103.56 69.9688 103.602C70.0339 103.643 70.194 103.677 70.4492 103.703V104H68.5312V103.703C68.7865 103.677 68.9453 103.643 69.0078 103.602C69.0729 103.56 69.1055 103.48 69.1055 103.363V100.859C69.1055 100.753 69.0898 100.68 69.0586 100.641C69.0299 100.602 68.9583 100.569 68.8438 100.543L68.5312 100.469V100.207L69.875 100.047ZM69.4062 99.2266C69.2656 99.2266 69.1471 99.1797 69.0508 99.0859C68.9544 98.9922 68.9062 98.8763 68.9062 98.7383C68.9062 98.6003 68.9544 98.4857 69.0508 98.3945C69.1471 98.3008 69.2656 98.2539 69.4062 98.2539C69.5469 98.2539 69.6654 98.3008 69.7617 98.3945C69.8581 98.4857 69.9062 98.6003 69.9062 98.7383C69.9062 98.8763 69.8581 98.9922 69.7617 99.0859C69.6654 99.1797 69.5469 99.2266 69.4062 99.2266ZM71.1055 101.109C71.1055 100.88 71.168 100.684 71.293 100.52C71.418 100.355 71.5938 100.229 71.8203 100.141C72.0495 100.049 72.3164 100.004 72.6211 100.004C72.9232 100.004 73.1849 100.034 73.4062 100.094C73.6276 100.154 73.7956 100.223 73.9102 100.301L73.9414 101.277H73.668C73.6133 100.991 73.4909 100.775 73.3008 100.629C73.1133 100.483 72.888 100.41 72.625 100.41C72.3802 100.41 72.1823 100.461 72.0312 100.562C71.8802 100.664 71.8047 100.805 71.8047 100.984C71.8047 101.164 71.875 101.302 72.0156 101.398C72.1562 101.492 72.3503 101.573 72.5977 101.641L72.9141 101.727C73.2786 101.823 73.5638 101.965 73.7695 102.152C73.9779 102.337 74.082 102.592 74.082 102.918C74.082 103.15 74.013 103.353 73.875 103.527C73.737 103.699 73.5508 103.833 73.3164 103.93C73.0846 104.023 72.8268 104.07 72.543 104.07C72.2279 104.07 71.944 104.035 71.6914 103.965C71.4388 103.892 71.2396 103.807 71.0938 103.711L71.0625 102.715H71.3359C71.3828 102.931 71.4635 103.109 71.5781 103.25C71.6953 103.391 71.8359 103.495 72 103.562C72.1667 103.63 72.3451 103.664 72.5352 103.664C72.7956 103.664 73.0013 103.607 73.1523 103.492C73.306 103.375 73.3828 103.225 73.3828 103.043C73.3828 102.868 73.3229 102.73 73.2031 102.629C73.0859 102.525 72.888 102.435 72.6094 102.359L72.2891 102.273C71.9297 102.174 71.6419 102.035 71.4258 101.855C71.2122 101.673 71.1055 101.424 71.1055 101.109ZM78.0703 103.316C78.0703 103.413 78.0833 103.486 78.1094 103.535C78.1354 103.585 78.194 103.621 78.2852 103.645C78.3763 103.665 78.5169 103.685 78.707 103.703V104H76.7266V103.703C76.9818 103.677 77.1406 103.643 77.2031 103.602C77.2682 103.56 77.3008 103.48 77.3008 103.363V100.5H76.7266V100.293L77.3008 100.09V99.5977C77.3008 99.2852 77.349 99.0234 77.4453 98.8125C77.5443 98.6016 77.6823 98.444 77.8594 98.3398C78.0391 98.2331 78.25 98.1797 78.4922 98.1797C78.7682 98.1797 78.9792 98.2448 79.125 98.375C79.2734 98.5026 79.3477 98.6536 79.3477 98.8281C79.3477 98.9349 79.3112 99.026 79.2383 99.1016C79.168 99.1745 79.0794 99.2109 78.9727 99.2109C78.8633 99.2109 78.7734 99.1745 78.7031 99.1016C78.6328 99.0286 78.5977 98.9375 78.5977 98.8281C78.5977 98.7266 78.6315 98.6419 78.6992 98.5742C78.7695 98.5039 78.8529 98.4688 78.9492 98.4688C79.0404 98.4688 79.1172 98.5039 79.1797 98.5742C79.2448 98.6419 79.2773 98.7266 79.2773 98.8281H79.0078C78.987 98.7578 78.9401 98.694 78.8672 98.6367C78.7943 98.5768 78.7044 98.5469 78.5977 98.5469C78.431 98.5469 78.3008 98.6133 78.207 98.7461C78.1159 98.8789 78.0703 99.0794 78.0703 99.3477V100.105L79.2188 100.09V100.5L78.0703 100.484V103.316ZM80.9453 100.047V103.363C80.9453 103.48 80.9766 103.56 81.0391 103.602C81.1042 103.643 81.2643 103.677 81.5195 103.703V104H79.6016V103.703C79.8568 103.677 80.0156 103.643 80.0781 103.602C80.1432 103.56 80.1758 103.48 80.1758 103.363V100.859C80.1758 100.753 80.1602 100.68 80.1289 100.641C80.1003 100.602 80.0286 100.569 79.9141 100.543L79.6016 100.469V100.207L80.9453 100.047ZM80.4766 99.2266C80.3359 99.2266 80.2174 99.1797 80.1211 99.0859C80.0247 98.9922 79.9766 98.8763 79.9766 98.7383C79.9766 98.6003 80.0247 98.4857 80.1211 98.3945C80.2174 98.3008 80.3359 98.2539 80.4766 98.2539C80.6172 98.2539 80.7357 98.3008 80.832 98.3945C80.9284 98.4857 80.9766 98.6003 80.9766 98.7383C80.9766 98.8763 80.9284 98.9922 80.832 99.0859C80.7357 99.1797 80.6172 99.2266 80.4766 99.2266ZM83.3359 98.1992V103.363C83.3359 103.48 83.3672 103.56 83.4297 103.602C83.4948 103.643 83.6549 103.677 83.9102 103.703V104H81.9922V103.703C82.2474 103.677 82.4062 103.643 82.4688 103.602C82.5339 103.56 82.5664 103.48 82.5664 103.363V99.0117C82.5664 98.9049 82.5508 98.832 82.5195 98.793C82.4909 98.7513 82.4193 98.7174 82.3047 98.6914L81.9922 98.6172V98.3594L83.3359 98.1992ZM85.7266 98.1992V103.363C85.7266 103.48 85.7578 103.56 85.8203 103.602C85.8854 103.643 86.0456 103.677 86.3008 103.703V104H84.3828V103.703C84.638 103.677 84.7969 103.643 84.8594 103.602C84.9245 103.56 84.957 103.48 84.957 103.363V99.0117C84.957 98.9049 84.9414 98.832 84.9102 98.793C84.8815 98.7513 84.8099 98.7174 84.6953 98.6914L84.3828 98.6172V98.3594L85.7266 98.1992ZM86.9141 102.074C86.9141 101.668 86.9922 101.31 87.1484 101C87.3073 100.69 87.5273 100.448 87.8086 100.273C88.0898 100.096 88.4128 100.008 88.7773 100.008C89.1315 100.008 89.4297 100.076 89.6719 100.211C89.9167 100.346 90.1016 100.54 90.2266 100.793C90.3542 101.043 90.418 101.342 90.418 101.691C90.418 101.741 90.4167 101.789 90.4141 101.836C90.4141 101.883 90.4115 101.924 90.4062 101.961H87.3281V101.617H89.7773L89.6719 101.734C89.6719 101.714 89.6719 101.694 89.6719 101.676C89.6719 101.658 89.6719 101.635 89.6719 101.609C89.6719 101.219 89.5924 100.922 89.4336 100.719C89.2773 100.513 89.0547 100.41 88.7656 100.41C88.4557 100.41 88.2005 100.527 88 100.762C87.7995 100.993 87.6992 101.358 87.6992 101.855C87.6992 102.21 87.7643 102.517 87.8945 102.777C88.0247 103.038 88.2083 103.24 88.4453 103.383C88.6823 103.526 88.9596 103.598 89.2773 103.598C89.4753 103.598 89.668 103.564 89.8555 103.496C90.0456 103.428 90.2018 103.337 90.3242 103.223V103.52C90.1836 103.681 89.987 103.816 89.7344 103.926C89.4818 104.033 89.1888 104.086 88.8555 104.086C88.4883 104.086 88.1576 104.007 87.8633 103.848C87.5716 103.686 87.3398 103.456 87.168 103.156C86.9987 102.854 86.9141 102.493 86.9141 102.074ZM91.2188 102.094C91.2188 101.68 91.3008 101.316 91.4648 101.004C91.6315 100.689 91.8555 100.444 92.1367 100.27C92.418 100.092 92.7318 100.004 93.0781 100.004C93.2969 100.004 93.4961 100.042 93.6758 100.117C93.8581 100.193 94.0078 100.288 94.125 100.402V99.0117C94.125 98.9049 94.1094 98.832 94.0781 98.793C94.0495 98.7513 93.9792 98.7174 93.8672 98.6914L93.5508 98.6172V98.3594L94.8984 98.1953V103.227C94.8984 103.331 94.9141 103.404 94.9453 103.445C94.9766 103.484 95.0508 103.518 95.168 103.547L95.4727 103.621V103.879L94.1445 104.043V103.406C94.0378 103.607 93.8633 103.771 93.6211 103.898C93.3789 104.023 93.1133 104.086 92.8242 104.086C92.5378 104.086 92.2721 104.007 92.0273 103.848C91.7852 103.689 91.5898 103.461 91.4414 103.164C91.293 102.867 91.2188 102.51 91.2188 102.094ZM92.0234 102.023C92.0234 102.513 92.1315 102.898 92.3477 103.18C92.5638 103.458 92.8529 103.598 93.2148 103.598C93.4206 103.598 93.6029 103.557 93.7617 103.477C93.9232 103.396 94.0443 103.28 94.125 103.129V100.824C94.0599 100.712 93.9492 100.616 93.793 100.535C93.6393 100.454 93.4544 100.414 93.2383 100.414C92.8841 100.414 92.5924 100.557 92.3633 100.844C92.1367 101.13 92.0234 101.523 92.0234 102.023ZM98.4141 101.016C98.3594 100.859 98.3047 100.741 98.25 100.66C98.1953 100.579 98.1276 100.521 98.0469 100.484C97.9688 100.445 97.8646 100.413 97.7344 100.387V100.09H99.5664V100.387C99.3424 100.405 99.2044 100.451 99.1523 100.523C99.1029 100.594 99.1133 100.737 99.1836 100.953L99.9453 103.301H99.7812L100.609 100.953C100.685 100.74 100.698 100.596 100.648 100.523C100.599 100.448 100.474 100.402 100.273 100.387V100.09H101.969V100.387C101.768 100.402 101.645 100.448 101.598 100.523C101.551 100.596 101.561 100.74 101.629 100.953L102.387 103.301H102.223L103.039 100.953C103.115 100.734 103.126 100.59 103.074 100.52C103.022 100.449 102.883 100.405 102.656 100.387V100.09H104.105V100.387C103.978 100.405 103.876 100.43 103.801 100.461C103.728 100.49 103.664 100.546 103.609 100.629C103.557 100.71 103.499 100.839 103.434 101.016L102.336 104H101.895L100.848 100.926H101.023L99.9062 104H99.4648L98.4141 101.016ZM105.758 100.047V103.363C105.758 103.48 105.789 103.56 105.852 103.602C105.917 103.643 106.077 103.677 106.332 103.703V104H104.414V103.703C104.669 103.677 104.828 103.643 104.891 103.602C104.956 103.56 104.988 103.48 104.988 103.363V100.859C104.988 100.753 104.973 100.68 104.941 100.641C104.913 100.602 104.841 100.569 104.727 100.543L104.414 100.469V100.207L105.758 100.047ZM105.289 99.2266C105.148 99.2266 105.03 99.1797 104.934 99.0859C104.837 98.9922 104.789 98.8763 104.789 98.7383C104.789 98.6003 104.837 98.4857 104.934 98.3945C105.03 98.3008 105.148 98.2539 105.289 98.2539C105.43 98.2539 105.548 98.3008 105.645 98.3945C105.741 98.4857 105.789 98.6003 105.789 98.7383C105.789 98.8763 105.741 98.9922 105.645 99.0859C105.548 99.1797 105.43 99.2266 105.289 99.2266ZM107.297 102.883V100.5H106.762V100.293L107.93 99.3633H108.066V100.113L109.305 100.09V100.5L108.066 100.484V102.703C108.066 103.049 108.137 103.286 108.277 103.414C108.418 103.539 108.595 103.602 108.809 103.602C108.915 103.602 109.018 103.589 109.117 103.562C109.216 103.534 109.301 103.497 109.371 103.453V103.75C109.283 103.846 109.151 103.927 108.977 103.992C108.802 104.055 108.608 104.086 108.395 104.086C108.199 104.086 108.018 104.047 107.852 103.969C107.685 103.891 107.551 103.764 107.449 103.59C107.348 103.413 107.297 103.177 107.297 102.883ZM111.102 98.1953V100.617C111.219 100.44 111.385 100.294 111.602 100.18C111.82 100.062 112.078 100.004 112.375 100.004C112.779 100.004 113.107 100.115 113.359 100.336C113.612 100.555 113.738 100.863 113.738 101.262V103.363C113.738 103.441 113.75 103.503 113.773 103.547C113.799 103.589 113.853 103.621 113.934 103.645C114.014 103.665 114.141 103.685 114.312 103.703V104H112.43V103.703C112.669 103.677 112.818 103.645 112.875 103.605C112.935 103.566 112.965 103.491 112.965 103.379V101.477C112.965 101.156 112.88 100.913 112.711 100.746C112.544 100.577 112.318 100.492 112.031 100.492C111.802 100.492 111.608 100.535 111.449 100.621C111.293 100.707 111.177 100.811 111.102 100.934V103.379C111.102 103.491 111.132 103.566 111.191 103.605C111.251 103.645 111.401 103.677 111.641 103.703V104H109.758V103.703C110.013 103.677 110.172 103.643 110.234 103.602C110.299 103.56 110.332 103.48 110.332 103.363V99.0117C110.332 98.9049 110.316 98.832 110.285 98.793C110.257 98.7513 110.185 98.7174 110.07 98.6914L109.758 98.6172V98.3594L111.102 98.1953ZM118.039 104.086C117.708 104.086 117.431 103.992 117.207 103.805C116.986 103.617 116.875 103.379 116.875 103.09C116.875 102.874 116.926 102.688 117.027 102.531C117.132 102.375 117.294 102.242 117.516 102.133C117.737 102.021 118.022 101.927 118.371 101.852L119.652 101.57V101.93L118.703 102.133C118.326 102.216 118.056 102.322 117.895 102.449C117.736 102.577 117.656 102.745 117.656 102.953C117.656 103.167 117.728 103.333 117.871 103.453C118.014 103.573 118.197 103.633 118.418 103.633C118.608 103.633 118.78 103.595 118.934 103.52C119.09 103.444 119.212 103.342 119.301 103.215V101.34C119.301 100.991 119.212 100.749 119.035 100.613C118.858 100.478 118.63 100.41 118.352 100.41C118.182 100.41 118.026 100.432 117.883 100.477C117.742 100.518 117.622 100.583 117.523 100.672C117.424 100.758 117.354 100.867 117.312 101H117.113C117.113 100.865 117.151 100.75 117.227 100.656C117.302 100.56 117.392 100.512 117.496 100.512C117.603 100.512 117.695 100.553 117.773 100.637C117.852 100.72 117.891 100.819 117.891 100.934C117.891 101.053 117.848 101.152 117.762 101.23C117.678 101.309 117.573 101.348 117.445 101.348C117.32 101.348 117.214 101.307 117.125 101.227C117.039 101.146 116.996 101.042 116.996 100.914C116.996 100.732 117.07 100.573 117.219 100.438C117.367 100.302 117.564 100.197 117.809 100.121C118.056 100.043 118.326 100.004 118.617 100.004C119.06 100.004 119.41 100.103 119.668 100.301C119.928 100.499 120.059 100.807 120.059 101.227V103.172C120.059 103.346 120.1 103.469 120.184 103.539C120.27 103.609 120.371 103.645 120.488 103.645C120.585 103.645 120.66 103.632 120.715 103.605V103.879C120.65 103.923 120.562 103.965 120.453 104.004C120.344 104.043 120.22 104.062 120.082 104.062C119.952 104.062 119.835 104.042 119.73 104C119.629 103.958 119.543 103.897 119.473 103.816C119.405 103.736 119.357 103.637 119.328 103.52C119.214 103.671 119.042 103.803 118.812 103.918C118.583 104.03 118.326 104.086 118.039 104.086ZM122.41 100.047V100.641C122.525 100.458 122.693 100.307 122.914 100.188C123.138 100.065 123.401 100.004 123.703 100.004C124.107 100.004 124.435 100.115 124.688 100.336C124.94 100.555 125.066 100.863 125.066 101.262V103.363C125.066 103.441 125.078 103.503 125.102 103.547C125.128 103.589 125.181 103.621 125.262 103.645C125.342 103.665 125.469 103.685 125.641 103.703V104H123.758V103.703C123.997 103.677 124.146 103.645 124.203 103.605C124.263 103.566 124.293 103.491 124.293 103.379V101.477C124.293 101.156 124.208 100.913 124.039 100.746C123.872 100.577 123.646 100.492 123.359 100.492C123.13 100.492 122.936 100.535 122.777 100.621C122.621 100.707 122.505 100.811 122.43 100.934V103.379C122.43 103.491 122.46 103.566 122.52 103.605C122.579 103.645 122.729 103.677 122.969 103.703V104H121.086V103.703C121.341 103.677 121.5 103.643 121.562 103.602C121.628 103.56 121.66 103.48 121.66 103.363V100.859C121.66 100.753 121.645 100.68 121.613 100.641C121.585 100.602 121.513 100.569 121.398 100.543L121.086 100.469V100.207L122.41 100.047ZM129.367 104.086C129.036 104.086 128.759 103.992 128.535 103.805C128.314 103.617 128.203 103.379 128.203 103.09C128.203 102.874 128.254 102.688 128.355 102.531C128.46 102.375 128.622 102.242 128.844 102.133C129.065 102.021 129.35 101.927 129.699 101.852L130.98 101.57V101.93L130.031 102.133C129.654 102.216 129.384 102.322 129.223 102.449C129.064 102.577 128.984 102.745 128.984 102.953C128.984 103.167 129.056 103.333 129.199 103.453C129.342 103.573 129.525 103.633 129.746 103.633C129.936 103.633 130.108 103.595 130.262 103.52C130.418 103.444 130.54 103.342 130.629 103.215V101.34C130.629 100.991 130.54 100.749 130.363 100.613C130.186 100.478 129.958 100.41 129.68 100.41C129.51 100.41 129.354 100.432 129.211 100.477C129.07 100.518 128.951 100.583 128.852 100.672C128.753 100.758 128.682 100.867 128.641 101H128.441C128.441 100.865 128.479 100.75 128.555 100.656C128.63 100.56 128.72 100.512 128.824 100.512C128.931 100.512 129.023 100.553 129.102 100.637C129.18 100.72 129.219 100.819 129.219 100.934C129.219 101.053 129.176 101.152 129.09 101.23C129.007 101.309 128.901 101.348 128.773 101.348C128.648 101.348 128.542 101.307 128.453 101.227C128.367 101.146 128.324 101.042 128.324 100.914C128.324 100.732 128.398 100.573 128.547 100.438C128.695 100.302 128.892 100.197 129.137 100.121C129.384 100.043 129.654 100.004 129.945 100.004C130.388 100.004 130.738 100.103 130.996 100.301C131.257 100.499 131.387 100.807 131.387 101.227V103.172C131.387 103.346 131.428 103.469 131.512 103.539C131.598 103.609 131.699 103.645 131.816 103.645C131.913 103.645 131.988 103.632 132.043 103.605V103.879C131.978 103.923 131.891 103.965 131.781 104.004C131.672 104.043 131.548 104.062 131.41 104.062C131.28 104.062 131.163 104.042 131.059 104C130.957 103.958 130.871 103.897 130.801 103.816C130.733 103.736 130.685 103.637 130.656 103.52C130.542 103.671 130.37 103.803 130.141 103.918C129.911 104.03 129.654 104.086 129.367 104.086ZM136.523 101.996C136.523 102.408 136.44 102.771 136.273 103.086C136.107 103.401 135.882 103.647 135.598 103.824C135.314 103.999 134.996 104.086 134.645 104.086C134.382 104.086 134.145 104.033 133.934 103.926C133.723 103.819 133.562 103.693 133.453 103.547L133.082 104H132.844V99.0117C132.844 98.9049 132.828 98.832 132.797 98.793C132.768 98.7513 132.697 98.7174 132.582 98.6914L132.27 98.6172V98.3594L133.613 98.1953V100.668C133.72 100.47 133.893 100.31 134.133 100.188C134.372 100.065 134.634 100.004 134.918 100.004C135.204 100.004 135.469 100.083 135.711 100.242C135.956 100.401 136.152 100.629 136.301 100.926C136.449 101.223 136.523 101.579 136.523 101.996ZM135.719 102.066C135.719 101.577 135.609 101.193 135.391 100.914C135.174 100.633 134.887 100.492 134.527 100.492C134.322 100.492 134.138 100.533 133.977 100.613C133.818 100.694 133.697 100.81 133.613 100.961V103.262C133.684 103.366 133.793 103.461 133.941 103.547C134.092 103.633 134.275 103.676 134.488 103.676C134.848 103.676 135.142 103.533 135.371 103.246C135.603 102.96 135.719 102.566 135.719 102.066ZM138.414 100.047V102.582C138.414 102.913 138.496 103.165 138.66 103.34C138.827 103.512 139.057 103.598 139.352 103.598C139.562 103.598 139.742 103.555 139.891 103.469C140.042 103.38 140.154 103.276 140.227 103.156V100.859C140.227 100.753 140.211 100.68 140.18 100.641C140.151 100.602 140.081 100.569 139.969 100.543L139.652 100.469V100.207L141 100.047V103.227C141 103.331 141.016 103.404 141.047 103.445C141.078 103.484 141.151 103.518 141.266 103.547L141.574 103.621V103.879L140.242 104.043V103.449C140.13 103.632 139.966 103.784 139.75 103.906C139.536 104.026 139.28 104.086 138.98 104.086C138.585 104.086 138.263 103.974 138.016 103.75C137.768 103.523 137.645 103.206 137.645 102.797V100.859C137.645 100.753 137.629 100.68 137.598 100.641C137.569 100.602 137.497 100.569 137.383 100.543L137.07 100.469V100.207L138.414 100.047ZM143.371 100.047V100.641C143.486 100.458 143.654 100.307 143.875 100.188C144.099 100.065 144.362 100.004 144.664 100.004C145.068 100.004 145.396 100.115 145.648 100.336C145.901 100.555 146.027 100.863 146.027 101.262V103.363C146.027 103.441 146.039 103.503 146.062 103.547C146.089 103.589 146.142 103.621 146.223 103.645C146.303 103.665 146.43 103.685 146.602 103.703V104H144.719V103.703C144.958 103.677 145.107 103.645 145.164 103.605C145.224 103.566 145.254 103.491 145.254 103.379V101.477C145.254 101.156 145.169 100.913 145 100.746C144.833 100.577 144.607 100.492 144.32 100.492C144.091 100.492 143.897 100.535 143.738 100.621C143.582 100.707 143.466 100.811 143.391 100.934V103.379C143.391 103.491 143.421 103.566 143.48 103.605C143.54 103.645 143.69 103.677 143.93 103.703V104H142.047V103.703C142.302 103.677 142.461 103.643 142.523 103.602C142.589 103.56 142.621 103.48 142.621 103.363V100.859C142.621 100.753 142.605 100.68 142.574 100.641C142.546 100.602 142.474 100.569 142.359 100.543L142.047 100.469V100.207L143.371 100.047ZM147.195 102.094C147.195 101.68 147.277 101.316 147.441 101.004C147.608 100.689 147.832 100.444 148.113 100.27C148.395 100.092 148.708 100.004 149.055 100.004C149.273 100.004 149.473 100.042 149.652 100.117C149.835 100.193 149.984 100.288 150.102 100.402V99.0117C150.102 98.9049 150.086 98.832 150.055 98.793C150.026 98.7513 149.956 98.7174 149.844 98.6914L149.527 98.6172V98.3594L150.875 98.1953V103.227C150.875 103.331 150.891 103.404 150.922 103.445C150.953 103.484 151.027 103.518 151.145 103.547L151.449 103.621V103.879L150.121 104.043V103.406C150.014 103.607 149.84 103.771 149.598 103.898C149.355 104.023 149.09 104.086 148.801 104.086C148.514 104.086 148.249 104.007 148.004 103.848C147.762 103.689 147.566 103.461 147.418 103.164C147.27 102.867 147.195 102.51 147.195 102.094ZM148 102.023C148 102.513 148.108 102.898 148.324 103.18C148.54 103.458 148.829 103.598 149.191 103.598C149.397 103.598 149.579 103.557 149.738 103.477C149.9 103.396 150.021 103.28 150.102 103.129V100.824C150.036 100.712 149.926 100.616 149.77 100.535C149.616 100.454 149.431 100.414 149.215 100.414C148.861 100.414 148.569 100.557 148.34 100.844C148.113 101.13 148 101.523 148 102.023ZM153.195 104.086C152.865 104.086 152.587 103.992 152.363 103.805C152.142 103.617 152.031 103.379 152.031 103.09C152.031 102.874 152.082 102.688 152.184 102.531C152.288 102.375 152.451 102.242 152.672 102.133C152.893 102.021 153.178 101.927 153.527 101.852L154.809 101.57V101.93L153.859 102.133C153.482 102.216 153.212 102.322 153.051 102.449C152.892 102.577 152.812 102.745 152.812 102.953C152.812 103.167 152.884 103.333 153.027 103.453C153.171 103.573 153.353 103.633 153.574 103.633C153.764 103.633 153.936 103.595 154.09 103.52C154.246 103.444 154.368 103.342 154.457 103.215V101.34C154.457 100.991 154.368 100.749 154.191 100.613C154.014 100.478 153.786 100.41 153.508 100.41C153.339 100.41 153.182 100.432 153.039 100.477C152.898 100.518 152.779 100.583 152.68 100.672C152.581 100.758 152.51 100.867 152.469 101H152.27C152.27 100.865 152.307 100.75 152.383 100.656C152.458 100.56 152.548 100.512 152.652 100.512C152.759 100.512 152.852 100.553 152.93 100.637C153.008 100.72 153.047 100.819 153.047 100.934C153.047 101.053 153.004 101.152 152.918 101.23C152.835 101.309 152.729 101.348 152.602 101.348C152.477 101.348 152.37 101.307 152.281 101.227C152.195 101.146 152.152 101.042 152.152 100.914C152.152 100.732 152.227 100.573 152.375 100.438C152.523 100.302 152.72 100.197 152.965 100.121C153.212 100.043 153.482 100.004 153.773 100.004C154.216 100.004 154.566 100.103 154.824 100.301C155.085 100.499 155.215 100.807 155.215 101.227V103.172C155.215 103.346 155.257 103.469 155.34 103.539C155.426 103.609 155.527 103.645 155.645 103.645C155.741 103.645 155.816 103.632 155.871 103.605V103.879C155.806 103.923 155.719 103.965 155.609 104.004C155.5 104.043 155.376 104.062 155.238 104.062C155.108 104.062 154.991 104.042 154.887 104C154.785 103.958 154.699 103.897 154.629 103.816C154.561 103.736 154.513 103.637 154.484 103.52C154.37 103.671 154.198 103.803 153.969 103.918C153.74 104.03 153.482 104.086 153.195 104.086ZM157.566 100.047V100.641C157.681 100.458 157.849 100.307 158.07 100.188C158.294 100.065 158.557 100.004 158.859 100.004C159.263 100.004 159.591 100.115 159.844 100.336C160.096 100.555 160.223 100.863 160.223 101.262V103.363C160.223 103.441 160.234 103.503 160.258 103.547C160.284 103.589 160.337 103.621 160.418 103.645C160.499 103.665 160.625 103.685 160.797 103.703V104H158.914V103.703C159.154 103.677 159.302 103.645 159.359 103.605C159.419 103.566 159.449 103.491 159.449 103.379V101.477C159.449 101.156 159.365 100.913 159.195 100.746C159.029 100.577 158.802 100.492 158.516 100.492C158.286 100.492 158.092 100.535 157.934 100.621C157.777 100.707 157.661 100.811 157.586 100.934V103.379C157.586 103.491 157.616 103.566 157.676 103.605C157.736 103.645 157.885 103.677 158.125 103.703V104H156.242V103.703C156.497 103.677 156.656 103.643 156.719 103.602C156.784 103.56 156.816 103.48 156.816 103.363V100.859C156.816 100.753 156.801 100.68 156.77 100.641C156.741 100.602 156.669 100.569 156.555 100.543L156.242 100.469V100.207L157.566 100.047ZM163.305 104.086C162.948 104.086 162.625 104.004 162.336 103.84C162.047 103.676 161.816 103.443 161.645 103.141C161.475 102.839 161.391 102.483 161.391 102.074C161.391 101.642 161.483 101.272 161.668 100.965C161.855 100.655 162.1 100.418 162.402 100.254C162.707 100.087 163.036 100.004 163.391 100.004C163.846 100.004 164.182 100.096 164.398 100.281C164.615 100.466 164.723 100.684 164.723 100.934C164.723 101.069 164.68 101.181 164.594 101.27C164.508 101.355 164.401 101.398 164.273 101.398C164.146 101.398 164.039 101.355 163.953 101.27C163.87 101.184 163.828 101.078 163.828 100.953C163.828 100.836 163.866 100.736 163.941 100.652C164.02 100.566 164.113 100.523 164.223 100.523C164.327 100.523 164.417 100.566 164.492 100.652C164.57 100.736 164.609 100.835 164.609 100.949H164.387C164.324 100.751 164.219 100.612 164.07 100.531C163.922 100.451 163.72 100.41 163.465 100.41C163.23 100.41 163.018 100.47 162.828 100.59C162.638 100.707 162.487 100.879 162.375 101.105C162.263 101.332 162.207 101.605 162.207 101.926C162.207 102.264 162.27 102.56 162.395 102.812C162.522 103.062 162.701 103.257 162.93 103.395C163.159 103.53 163.426 103.598 163.73 103.598C163.923 103.598 164.112 103.564 164.297 103.496C164.484 103.426 164.641 103.335 164.766 103.223V103.52C164.628 103.681 164.432 103.816 164.18 103.926C163.927 104.033 163.635 104.086 163.305 104.086ZM165.414 102.074C165.414 101.668 165.492 101.31 165.648 101C165.807 100.69 166.027 100.448 166.309 100.273C166.59 100.096 166.913 100.008 167.277 100.008C167.632 100.008 167.93 100.076 168.172 100.211C168.417 100.346 168.602 100.54 168.727 100.793C168.854 101.043 168.918 101.342 168.918 101.691C168.918 101.741 168.917 101.789 168.914 101.836C168.914 101.883 168.911 101.924 168.906 101.961H165.828V101.617H168.277L168.172 101.734C168.172 101.714 168.172 101.694 168.172 101.676C168.172 101.658 168.172 101.635 168.172 101.609C168.172 101.219 168.092 100.922 167.934 100.719C167.777 100.513 167.555 100.41 167.266 100.41C166.956 100.41 166.701 100.527 166.5 100.762C166.299 100.993 166.199 101.358 166.199 101.855C166.199 102.21 166.264 102.517 166.395 102.777C166.525 103.038 166.708 103.24 166.945 103.383C167.182 103.526 167.46 103.598 167.777 103.598C167.975 103.598 168.168 103.564 168.355 103.496C168.546 103.428 168.702 103.337 168.824 103.223V103.52C168.684 103.681 168.487 103.816 168.234 103.926C167.982 104.033 167.689 104.086 167.355 104.086C166.988 104.086 166.658 104.007 166.363 103.848C166.072 103.686 165.84 103.456 165.668 103.156C165.499 102.854 165.414 102.493 165.414 102.074ZM173.676 104.086C173.306 104.086 172.973 104 172.676 103.828C172.382 103.656 172.148 103.418 171.977 103.113C171.805 102.809 171.719 102.458 171.719 102.062C171.719 101.656 171.807 101.299 171.984 100.992C172.161 100.682 172.401 100.44 172.703 100.266C173.008 100.091 173.353 100.004 173.738 100.004C174.111 100.004 174.444 100.09 174.738 100.262C175.035 100.434 175.27 100.672 175.441 100.977C175.613 101.281 175.699 101.632 175.699 102.027C175.699 102.431 175.611 102.788 175.434 103.098C175.257 103.408 175.016 103.65 174.711 103.824C174.406 103.999 174.061 104.086 173.676 104.086ZM173.738 103.68C174.095 103.68 174.372 103.539 174.57 103.258C174.768 102.977 174.867 102.592 174.867 102.105C174.867 101.759 174.815 101.46 174.711 101.207C174.607 100.952 174.465 100.755 174.285 100.617C174.108 100.479 173.905 100.41 173.676 100.41C173.322 100.41 173.046 100.551 172.848 100.832C172.65 101.111 172.551 101.495 172.551 101.984C172.551 102.331 172.602 102.632 172.703 102.887C172.807 103.139 172.948 103.335 173.125 103.473C173.305 103.611 173.509 103.68 173.738 103.68ZM177.703 103.316C177.703 103.413 177.716 103.486 177.742 103.535C177.768 103.585 177.827 103.621 177.918 103.645C178.009 103.665 178.15 103.685 178.34 103.703V104H176.359V103.703C176.615 103.677 176.773 103.643 176.836 103.602C176.901 103.56 176.934 103.48 176.934 103.363V100.5H176.359V100.293L176.934 100.09V99.5977C176.934 99.2852 176.982 99.0234 177.078 98.8125C177.177 98.6016 177.315 98.444 177.492 98.3398C177.672 98.2331 177.883 98.1797 178.125 98.1797C178.401 98.1797 178.612 98.2448 178.758 98.375C178.906 98.5026 178.98 98.6536 178.98 98.8281C178.98 98.9349 178.944 99.026 178.871 99.1016C178.801 99.1745 178.712 99.2109 178.605 99.2109C178.496 99.2109 178.406 99.1745 178.336 99.1016C178.266 99.0286 178.23 98.9375 178.23 98.8281C178.23 98.7266 178.264 98.6419 178.332 98.5742C178.402 98.5039 178.486 98.4688 178.582 98.4688C178.673 98.4688 178.75 98.5039 178.812 98.5742C178.878 98.6419 178.91 98.7266 178.91 98.8281H178.641C178.62 98.7578 178.573 98.694 178.5 98.6367C178.427 98.5768 178.337 98.5469 178.23 98.5469C178.064 98.5469 177.934 98.6133 177.84 98.7461C177.749 98.8789 177.703 99.0794 177.703 99.3477V100.105L178.852 100.09V100.5L177.703 100.484V103.316ZM33.0469 116.086C32.6771 116.086 32.3438 116 32.0469 115.828C31.7526 115.656 31.5195 115.418 31.3477 115.113C31.1758 114.809 31.0898 114.458 31.0898 114.062C31.0898 113.656 31.1784 113.299 31.3555 112.992C31.5326 112.682 31.7721 112.44 32.0742 112.266C32.3789 112.091 32.724 112.004 33.1094 112.004C33.4818 112.004 33.8151 112.09 34.1094 112.262C34.4062 112.434 34.6406 112.672 34.8125 112.977C34.9844 113.281 35.0703 113.632 35.0703 114.027C35.0703 114.431 34.9818 114.788 34.8047 115.098C34.6276 115.408 34.3867 115.65 34.082 115.824C33.7773 115.999 33.4323 116.086 33.0469 116.086ZM33.1094 115.68C33.4661 115.68 33.7435 115.539 33.9414 115.258C34.1393 114.977 34.2383 114.592 34.2383 114.105C34.2383 113.759 34.1862 113.46 34.082 113.207C33.9779 112.952 33.8359 112.755 33.6562 112.617C33.4792 112.479 33.276 112.41 33.0469 112.41C32.6927 112.41 32.4167 112.551 32.2188 112.832C32.0208 113.111 31.9219 113.495 31.9219 113.984C31.9219 114.331 31.9727 114.632 32.0742 114.887C32.1784 115.139 32.319 115.335 32.4961 115.473C32.6758 115.611 32.8802 115.68 33.1094 115.68ZM39.9062 113.996C39.9062 114.408 39.8229 114.771 39.6562 115.086C39.4922 115.401 39.2695 115.647 38.9883 115.824C38.7096 115.999 38.3958 116.086 38.0469 116.086C37.8281 116.086 37.6276 116.048 37.4453 115.973C37.263 115.895 37.1133 115.799 36.9961 115.688V117.113C36.9961 117.21 37.0091 117.283 37.0352 117.332C37.0612 117.382 37.1198 117.417 37.2109 117.438C37.3021 117.461 37.444 117.482 37.6367 117.5V117.797H35.6523V117.5C35.8242 117.482 35.9505 117.461 36.0312 117.438C36.1146 117.417 36.168 117.384 36.1914 117.34C36.2148 117.298 36.2266 117.238 36.2266 117.16V112.859C36.2266 112.753 36.2109 112.68 36.1797 112.641C36.151 112.602 36.0794 112.569 35.9648 112.543L35.6523 112.469V112.207L36.9766 112.047V112.695C37.0859 112.49 37.2617 112.323 37.5039 112.195C37.7461 112.068 38.0117 112.004 38.3008 112.004C38.5872 112.004 38.8516 112.083 39.0938 112.242C39.3385 112.401 39.5352 112.629 39.6836 112.926C39.832 113.223 39.9062 113.579 39.9062 113.996ZM39.1016 114.066C39.1016 113.577 38.9922 113.193 38.7734 112.914C38.5573 112.633 38.2695 112.492 37.9102 112.492C37.7044 112.492 37.5208 112.533 37.3594 112.613C37.2005 112.694 37.0794 112.81 36.9961 112.961V115.262C37.0638 115.374 37.1758 115.471 37.332 115.555C37.4883 115.635 37.6732 115.676 37.8867 115.676C38.2409 115.676 38.5312 115.533 38.7578 115.246C38.987 114.96 39.1016 114.566 39.1016 114.066ZM44.7422 113.996C44.7422 114.408 44.6589 114.771 44.4922 115.086C44.3281 115.401 44.1055 115.647 43.8242 115.824C43.5456 115.999 43.2318 116.086 42.8828 116.086C42.6641 116.086 42.4635 116.048 42.2812 115.973C42.099 115.895 41.9492 115.799 41.832 115.688V117.113C41.832 117.21 41.8451 117.283 41.8711 117.332C41.8971 117.382 41.9557 117.417 42.0469 117.438C42.138 117.461 42.2799 117.482 42.4727 117.5V117.797H40.4883V117.5C40.6602 117.482 40.7865 117.461 40.8672 117.438C40.9505 117.417 41.0039 117.384 41.0273 117.34C41.0508 117.298 41.0625 117.238 41.0625 117.16V112.859C41.0625 112.753 41.0469 112.68 41.0156 112.641C40.987 112.602 40.9154 112.569 40.8008 112.543L40.4883 112.469V112.207L41.8125 112.047V112.695C41.9219 112.49 42.0977 112.323 42.3398 112.195C42.582 112.068 42.8477 112.004 43.1367 112.004C43.4232 112.004 43.6875 112.083 43.9297 112.242C44.1745 112.401 44.3711 112.629 44.5195 112.926C44.668 113.223 44.7422 113.579 44.7422 113.996ZM43.9375 114.066C43.9375 113.577 43.8281 113.193 43.6094 112.914C43.3932 112.633 43.1055 112.492 42.7461 112.492C42.5404 112.492 42.3568 112.533 42.1953 112.613C42.0365 112.694 41.9154 112.81 41.832 112.961V115.262C41.8997 115.374 42.0117 115.471 42.168 115.555C42.3242 115.635 42.5091 115.676 42.7227 115.676C43.0768 115.676 43.3672 115.533 43.5938 115.246C43.8229 114.96 43.9375 114.566 43.9375 114.066ZM47.5 116.086C47.1302 116.086 46.7969 116 46.5 115.828C46.2057 115.656 45.9727 115.418 45.8008 115.113C45.6289 114.809 45.543 114.458 45.543 114.062C45.543 113.656 45.6315 113.299 45.8086 112.992C45.9857 112.682 46.2253 112.44 46.5273 112.266C46.832 112.091 47.1771 112.004 47.5625 112.004C47.9349 112.004 48.2682 112.09 48.5625 112.262C48.8594 112.434 49.0938 112.672 49.2656 112.977C49.4375 113.281 49.5234 113.632 49.5234 114.027C49.5234 114.431 49.4349 114.788 49.2578 115.098C49.0807 115.408 48.8398 115.65 48.5352 115.824C48.2305 115.999 47.8854 116.086 47.5 116.086ZM47.5625 115.68C47.9193 115.68 48.1966 115.539 48.3945 115.258C48.5924 114.977 48.6914 114.592 48.6914 114.105C48.6914 113.759 48.6393 113.46 48.5352 113.207C48.431 112.952 48.2891 112.755 48.1094 112.617C47.9323 112.479 47.7292 112.41 47.5 112.41C47.1458 112.41 46.8698 112.551 46.6719 112.832C46.474 113.111 46.375 113.495 46.375 113.984C46.375 114.331 46.4258 114.632 46.5273 114.887C46.6315 115.139 46.7721 115.335 46.9492 115.473C47.1289 115.611 47.3333 115.68 47.5625 115.68ZM51.5078 112.047V112.848C51.75 112.572 51.9661 112.365 52.1562 112.227C52.349 112.089 52.5352 112.02 52.7148 112.02C52.8737 112.02 52.9844 112.062 53.0469 112.148C53.112 112.234 53.1445 112.335 53.1445 112.449C53.1445 112.504 53.138 112.557 53.125 112.609C53.112 112.659 53.0938 112.698 53.0703 112.727C53.0286 112.714 52.9727 112.704 52.9023 112.699C52.8346 112.691 52.7617 112.688 52.6836 112.688C52.4596 112.688 52.2357 112.725 52.0117 112.801C51.7904 112.876 51.6289 112.973 51.5273 113.09V115.316C51.5273 115.413 51.5404 115.486 51.5664 115.535C51.5924 115.585 51.651 115.621 51.7422 115.645C51.8333 115.665 51.974 115.685 52.1641 115.703V116H50.1836V115.703C50.4388 115.677 50.5977 115.643 50.6602 115.602C50.7253 115.56 50.7578 115.48 50.7578 115.363V112.859C50.7578 112.753 50.7422 112.68 50.7109 112.641C50.6823 112.602 50.6107 112.569 50.4961 112.543L50.1836 112.469V112.207L51.5078 112.047ZM54.0664 114.883V112.5H53.5312V112.293L54.6992 111.363H54.8359V112.113L56.0742 112.09V112.5L54.8359 112.484V114.703C54.8359 115.049 54.9062 115.286 55.0469 115.414C55.1875 115.539 55.3646 115.602 55.5781 115.602C55.6849 115.602 55.7878 115.589 55.8867 115.562C55.9857 115.534 56.0703 115.497 56.1406 115.453V115.75C56.0521 115.846 55.9206 115.927 55.7461 115.992C55.5716 116.055 55.3776 116.086 55.1641 116.086C54.9688 116.086 54.7878 116.047 54.6211 115.969C54.4544 115.891 54.3203 115.764 54.2188 115.59C54.1172 115.413 54.0664 115.177 54.0664 114.883ZM57.7617 112.047V114.582C57.7617 114.913 57.8438 115.165 58.0078 115.34C58.1745 115.512 58.4049 115.598 58.6992 115.598C58.9102 115.598 59.0898 115.555 59.2383 115.469C59.3893 115.38 59.5013 115.276 59.5742 115.156V112.859C59.5742 112.753 59.5586 112.68 59.5273 112.641C59.4987 112.602 59.4284 112.569 59.3164 112.543L59 112.469V112.207L60.3477 112.047V115.227C60.3477 115.331 60.3633 115.404 60.3945 115.445C60.4258 115.484 60.4987 115.518 60.6133 115.547L60.9219 115.621V115.879L59.5898 116.043V115.449C59.4779 115.632 59.3138 115.784 59.0977 115.906C58.8841 116.026 58.6276 116.086 58.3281 116.086C57.9323 116.086 57.6107 115.974 57.3633 115.75C57.1159 115.523 56.9922 115.206 56.9922 114.797V112.859C56.9922 112.753 56.9766 112.68 56.9453 112.641C56.9167 112.602 56.8451 112.569 56.7305 112.543L56.418 112.469V112.207L57.7617 112.047ZM62.7188 112.047V112.641C62.8333 112.458 63.0013 112.307 63.2227 112.188C63.4466 112.065 63.7096 112.004 64.0117 112.004C64.4154 112.004 64.7435 112.115 64.9961 112.336C65.2487 112.555 65.375 112.863 65.375 113.262V115.363C65.375 115.441 65.3867 115.503 65.4102 115.547C65.4362 115.589 65.4896 115.621 65.5703 115.645C65.651 115.665 65.7773 115.685 65.9492 115.703V116H64.0664V115.703C64.306 115.677 64.4544 115.645 64.5117 115.605C64.5716 115.566 64.6016 115.491 64.6016 115.379V113.477C64.6016 113.156 64.5169 112.913 64.3477 112.746C64.181 112.577 63.9544 112.492 63.668 112.492C63.4388 112.492 63.2448 112.535 63.0859 112.621C62.9297 112.707 62.8138 112.811 62.7383 112.934V115.379C62.7383 115.491 62.7682 115.566 62.8281 115.605C62.888 115.645 63.0378 115.677 63.2773 115.703V116H61.3945V115.703C61.6497 115.677 61.8086 115.643 61.8711 115.602C61.9362 115.56 61.9688 115.48 61.9688 115.363V112.859C61.9688 112.753 61.9531 112.68 61.9219 112.641C61.8932 112.602 61.8216 112.569 61.707 112.543L61.3945 112.469V112.207L62.7188 112.047ZM67.7461 112.047V115.363C67.7461 115.48 67.7773 115.56 67.8398 115.602C67.9049 115.643 68.0651 115.677 68.3203 115.703V116H66.4023V115.703C66.6576 115.677 66.8164 115.643 66.8789 115.602C66.944 115.56 66.9766 115.48 66.9766 115.363V112.859C66.9766 112.753 66.9609 112.68 66.9297 112.641C66.901 112.602 66.8294 112.569 66.7148 112.543L66.4023 112.469V112.207L67.7461 112.047ZM67.2773 111.227C67.1367 111.227 67.0182 111.18 66.9219 111.086C66.8255 110.992 66.7773 110.876 66.7773 110.738C66.7773 110.6 66.8255 110.486 66.9219 110.395C67.0182 110.301 67.1367 110.254 67.2773 110.254C67.418 110.254 67.5365 110.301 67.6328 110.395C67.7292 110.486 67.7773 110.6 67.7773 110.738C67.7773 110.876 67.7292 110.992 67.6328 111.086C67.5365 111.18 67.418 111.227 67.2773 111.227ZM69.2852 114.883V112.5H68.75V112.293L69.918 111.363H70.0547V112.113L71.293 112.09V112.5L70.0547 112.484V114.703C70.0547 115.049 70.125 115.286 70.2656 115.414C70.4062 115.539 70.5833 115.602 70.7969 115.602C70.9036 115.602 71.0065 115.589 71.1055 115.562C71.2044 115.534 71.2891 115.497 71.3594 115.453V115.75C71.2708 115.846 71.1393 115.927 70.9648 115.992C70.7904 116.055 70.5964 116.086 70.3828 116.086C70.1875 116.086 70.0065 116.047 69.8398 115.969C69.6732 115.891 69.5391 115.764 69.4375 115.59C69.3359 115.413 69.2852 115.177 69.2852 114.883ZM72.2109 113.016C72.1484 112.859 72.0898 112.741 72.0352 112.66C71.9805 112.579 71.9154 112.521 71.8398 112.484C71.7643 112.445 71.6628 112.413 71.5352 112.387V112.09H73.4648V112.387C73.1966 112.41 73.0312 112.457 72.9688 112.527C72.9089 112.595 72.9193 112.737 73 112.953L73.8789 115.301H73.7031L74.6328 112.953C74.7188 112.734 74.7305 112.591 74.668 112.523C74.6055 112.453 74.4388 112.408 74.168 112.387V112.09H75.7227V112.387C75.5898 112.405 75.4857 112.43 75.4102 112.461C75.3372 112.492 75.2734 112.549 75.2188 112.633C75.1641 112.716 75.1003 112.846 75.0273 113.023L74.0859 115.301L73.7969 116L73.1445 117.797H72.4414V117.781C72.5247 117.628 72.6211 117.448 72.7305 117.242C72.8398 117.036 72.9531 116.82 73.0703 116.594C73.1875 116.37 73.2995 116.155 73.4062 115.949L72.2109 113.016ZM78.4961 113.016C78.4414 112.859 78.3867 112.741 78.332 112.66C78.2773 112.579 78.2096 112.521 78.1289 112.484C78.0508 112.445 77.9466 112.413 77.8164 112.387V112.09H79.6484V112.387C79.4245 112.405 79.2865 112.451 79.2344 112.523C79.1849 112.594 79.1953 112.737 79.2656 112.953L80.0273 115.301H79.8633L80.6914 112.953C80.7669 112.74 80.7799 112.596 80.7305 112.523C80.681 112.448 80.556 112.402 80.3555 112.387V112.09H82.0508V112.387C81.8503 112.402 81.7266 112.448 81.6797 112.523C81.6328 112.596 81.6432 112.74 81.7109 112.953L82.4688 115.301H82.3047L83.1211 112.953C83.1966 112.734 83.2083 112.59 83.1562 112.52C83.1042 112.449 82.9648 112.405 82.7383 112.387V112.09H84.1875V112.387C84.0599 112.405 83.9583 112.43 83.8828 112.461C83.8099 112.49 83.7461 112.546 83.6914 112.629C83.6393 112.71 83.5807 112.839 83.5156 113.016L82.418 116H81.9766L80.9297 112.926H81.1055L79.9883 116H79.5469L78.4961 113.016ZM85.7227 110.195V112.617C85.8398 112.44 86.0065 112.294 86.2227 112.18C86.4414 112.062 86.6992 112.004 86.9961 112.004C87.3997 112.004 87.7279 112.115 87.9805 112.336C88.2331 112.555 88.3594 112.863 88.3594 113.262V115.363C88.3594 115.441 88.3711 115.503 88.3945 115.547C88.4206 115.589 88.474 115.621 88.5547 115.645C88.6354 115.665 88.7617 115.685 88.9336 115.703V116H87.0508V115.703C87.2904 115.677 87.4388 115.645 87.4961 115.605C87.556 115.566 87.5859 115.491 87.5859 115.379V113.477C87.5859 113.156 87.5013 112.913 87.332 112.746C87.1654 112.577 86.9388 112.492 86.6523 112.492C86.4232 112.492 86.2292 112.535 86.0703 112.621C85.9141 112.707 85.7982 112.811 85.7227 112.934V115.379C85.7227 115.491 85.7526 115.566 85.8125 115.605C85.8724 115.645 86.0221 115.677 86.2617 115.703V116H84.3789V115.703C84.6341 115.677 84.793 115.643 84.8555 115.602C84.9206 115.56 84.9531 115.48 84.9531 115.363V111.012C84.9531 110.905 84.9375 110.832 84.9062 110.793C84.8776 110.751 84.806 110.717 84.6914 110.691L84.3789 110.617V110.359L85.7227 110.195ZM90.7305 112.047V115.363C90.7305 115.48 90.7617 115.56 90.8242 115.602C90.8893 115.643 91.0495 115.677 91.3047 115.703V116H89.3867V115.703C89.6419 115.677 89.8008 115.643 89.8633 115.602C89.9284 115.56 89.9609 115.48 89.9609 115.363V112.859C89.9609 112.753 89.9453 112.68 89.9141 112.641C89.8854 112.602 89.8138 112.569 89.6992 112.543L89.3867 112.469V112.207L90.7305 112.047ZM90.2617 111.227C90.1211 111.227 90.0026 111.18 89.9062 111.086C89.8099 110.992 89.7617 110.876 89.7617 110.738C89.7617 110.6 89.8099 110.486 89.9062 110.395C90.0026 110.301 90.1211 110.254 90.2617 110.254C90.4023 110.254 90.5208 110.301 90.6172 110.395C90.7135 110.486 90.7617 110.6 90.7617 110.738C90.7617 110.876 90.7135 110.992 90.6172 111.086C90.5208 111.18 90.4023 111.227 90.2617 111.227ZM93.832 116.086C93.4753 116.086 93.1523 116.004 92.8633 115.84C92.5742 115.676 92.3438 115.443 92.1719 115.141C92.0026 114.839 91.918 114.483 91.918 114.074C91.918 113.642 92.0104 113.272 92.1953 112.965C92.3828 112.655 92.6276 112.418 92.9297 112.254C93.2344 112.087 93.5638 112.004 93.918 112.004C94.3737 112.004 94.7096 112.096 94.9258 112.281C95.1419 112.466 95.25 112.684 95.25 112.934C95.25 113.069 95.207 113.181 95.1211 113.27C95.0352 113.355 94.9284 113.398 94.8008 113.398C94.6732 113.398 94.5664 113.355 94.4805 113.27C94.3971 113.184 94.3555 113.078 94.3555 112.953C94.3555 112.836 94.3932 112.736 94.4688 112.652C94.5469 112.566 94.6406 112.523 94.75 112.523C94.8542 112.523 94.944 112.566 95.0195 112.652C95.0977 112.736 95.1367 112.835 95.1367 112.949H94.9141C94.8516 112.751 94.7461 112.612 94.5977 112.531C94.4492 112.451 94.2474 112.41 93.9922 112.41C93.7578 112.41 93.5456 112.47 93.3555 112.59C93.1654 112.707 93.0143 112.879 92.9023 113.105C92.7904 113.332 92.7344 113.605 92.7344 113.926C92.7344 114.264 92.7969 114.56 92.9219 114.812C93.0495 115.062 93.2279 115.257 93.457 115.395C93.6862 115.53 93.9531 115.598 94.2578 115.598C94.4505 115.598 94.6393 115.564 94.8242 115.496C95.0117 115.426 95.168 115.335 95.293 115.223V115.52C95.1549 115.681 94.9596 115.816 94.707 115.926C94.4544 116.033 94.1628 116.086 93.832 116.086ZM97.1445 110.195V112.617C97.2617 112.44 97.4284 112.294 97.6445 112.18C97.8633 112.062 98.1211 112.004 98.418 112.004C98.8216 112.004 99.1497 112.115 99.4023 112.336C99.6549 112.555 99.7812 112.863 99.7812 113.262V115.363C99.7812 115.441 99.793 115.503 99.8164 115.547C99.8424 115.589 99.8958 115.621 99.9766 115.645C100.057 115.665 100.184 115.685 100.355 115.703V116H98.4727V115.703C98.7122 115.677 98.8607 115.645 98.918 115.605C98.9779 115.566 99.0078 115.491 99.0078 115.379V113.477C99.0078 113.156 98.9232 112.913 98.7539 112.746C98.5872 112.577 98.3607 112.492 98.0742 112.492C97.8451 112.492 97.651 112.535 97.4922 112.621C97.3359 112.707 97.2201 112.811 97.1445 112.934V115.379C97.1445 115.491 97.1745 115.566 97.2344 115.605C97.2943 115.645 97.444 115.677 97.6836 115.703V116H95.8008V115.703C96.056 115.677 96.2148 115.643 96.2773 115.602C96.3424 115.56 96.375 115.48 96.375 115.363V111.012C96.375 110.905 96.3594 110.832 96.3281 110.793C96.2995 110.751 96.2279 110.717 96.1133 110.691L95.8008 110.617V110.359L97.1445 110.195ZM103.301 114.883V112.5H102.766V112.293L103.934 111.363H104.07V112.113L105.309 112.09V112.5L104.07 112.484V114.703C104.07 115.049 104.141 115.286 104.281 115.414C104.422 115.539 104.599 115.602 104.812 115.602C104.919 115.602 105.022 115.589 105.121 115.562C105.22 115.534 105.305 115.497 105.375 115.453V115.75C105.286 115.846 105.155 115.927 104.98 115.992C104.806 116.055 104.612 116.086 104.398 116.086C104.203 116.086 104.022 116.047 103.855 115.969C103.689 115.891 103.555 115.764 103.453 115.59C103.352 115.413 103.301 115.177 103.301 114.883ZM107.105 110.195V112.617C107.223 112.44 107.389 112.294 107.605 112.18C107.824 112.062 108.082 112.004 108.379 112.004C108.783 112.004 109.111 112.115 109.363 112.336C109.616 112.555 109.742 112.863 109.742 113.262V115.363C109.742 115.441 109.754 115.503 109.777 115.547C109.803 115.589 109.857 115.621 109.938 115.645C110.018 115.665 110.145 115.685 110.316 115.703V116H108.434V115.703C108.673 115.677 108.822 115.645 108.879 115.605C108.939 115.566 108.969 115.491 108.969 115.379V113.477C108.969 113.156 108.884 112.913 108.715 112.746C108.548 112.577 108.322 112.492 108.035 112.492C107.806 112.492 107.612 112.535 107.453 112.621C107.297 112.707 107.181 112.811 107.105 112.934V115.379C107.105 115.491 107.135 115.566 107.195 115.605C107.255 115.645 107.405 115.677 107.645 115.703V116H105.762V115.703C106.017 115.677 106.176 115.643 106.238 115.602C106.303 115.56 106.336 115.48 106.336 115.363V111.012C106.336 110.905 106.32 110.832 106.289 110.793C106.26 110.751 106.189 110.717 106.074 110.691L105.762 110.617V110.359L107.105 110.195ZM110.91 114.074C110.91 113.668 110.988 113.31 111.145 113C111.303 112.69 111.523 112.448 111.805 112.273C112.086 112.096 112.409 112.008 112.773 112.008C113.128 112.008 113.426 112.076 113.668 112.211C113.913 112.346 114.098 112.54 114.223 112.793C114.35 113.043 114.414 113.342 114.414 113.691C114.414 113.741 114.413 113.789 114.41 113.836C114.41 113.883 114.408 113.924 114.402 113.961H111.324V113.617H113.773L113.668 113.734C113.668 113.714 113.668 113.694 113.668 113.676C113.668 113.658 113.668 113.635 113.668 113.609C113.668 113.219 113.589 112.922 113.43 112.719C113.273 112.513 113.051 112.41 112.762 112.41C112.452 112.41 112.197 112.527 111.996 112.762C111.796 112.993 111.695 113.358 111.695 113.855C111.695 114.21 111.76 114.517 111.891 114.777C112.021 115.038 112.204 115.24 112.441 115.383C112.678 115.526 112.956 115.598 113.273 115.598C113.471 115.598 113.664 115.564 113.852 115.496C114.042 115.428 114.198 115.337 114.32 115.223V115.52C114.18 115.681 113.983 115.816 113.73 115.926C113.478 116.033 113.185 116.086 112.852 116.086C112.484 116.086 112.154 116.007 111.859 115.848C111.568 115.686 111.336 115.456 111.164 115.156C110.995 114.854 110.91 114.493 110.91 114.074ZM117.215 114.094C117.215 113.68 117.297 113.316 117.461 113.004C117.628 112.689 117.852 112.444 118.133 112.27C118.414 112.092 118.728 112.004 119.074 112.004C119.293 112.004 119.492 112.042 119.672 112.117C119.854 112.193 120.004 112.288 120.121 112.402V111.012C120.121 110.905 120.105 110.832 120.074 110.793C120.046 110.751 119.975 110.717 119.863 110.691L119.547 110.617V110.359L120.895 110.195V115.227C120.895 115.331 120.91 115.404 120.941 115.445C120.973 115.484 121.047 115.518 121.164 115.547L121.469 115.621V115.879L120.141 116.043V115.406C120.034 115.607 119.859 115.771 119.617 115.898C119.375 116.023 119.109 116.086 118.82 116.086C118.534 116.086 118.268 116.007 118.023 115.848C117.781 115.689 117.586 115.461 117.438 115.164C117.289 114.867 117.215 114.51 117.215 114.094ZM118.02 114.023C118.02 114.513 118.128 114.898 118.344 115.18C118.56 115.458 118.849 115.598 119.211 115.598C119.417 115.598 119.599 115.557 119.758 115.477C119.919 115.396 120.04 115.28 120.121 115.129V112.824C120.056 112.712 119.945 112.616 119.789 112.535C119.635 112.454 119.451 112.414 119.234 112.414C118.88 112.414 118.589 112.557 118.359 112.844C118.133 113.13 118.02 113.523 118.02 114.023ZM123.266 112.047V112.848C123.508 112.572 123.724 112.365 123.914 112.227C124.107 112.089 124.293 112.02 124.473 112.02C124.632 112.02 124.742 112.062 124.805 112.148C124.87 112.234 124.902 112.335 124.902 112.449C124.902 112.504 124.896 112.557 124.883 112.609C124.87 112.659 124.852 112.698 124.828 112.727C124.786 112.714 124.73 112.704 124.66 112.699C124.592 112.691 124.52 112.688 124.441 112.688C124.217 112.688 123.993 112.725 123.77 112.801C123.548 112.876 123.387 112.973 123.285 113.09V115.316C123.285 115.413 123.298 115.486 123.324 115.535C123.35 115.585 123.409 115.621 123.5 115.645C123.591 115.665 123.732 115.685 123.922 115.703V116H121.941V115.703C122.197 115.677 122.355 115.643 122.418 115.602C122.483 115.56 122.516 115.48 122.516 115.363V112.859C122.516 112.753 122.5 112.68 122.469 112.641C122.44 112.602 122.368 112.569 122.254 112.543L121.941 112.469V112.207L123.266 112.047ZM125.238 114.074C125.238 113.668 125.316 113.31 125.473 113C125.632 112.69 125.852 112.448 126.133 112.273C126.414 112.096 126.737 112.008 127.102 112.008C127.456 112.008 127.754 112.076 127.996 112.211C128.241 112.346 128.426 112.54 128.551 112.793C128.678 113.043 128.742 113.342 128.742 113.691C128.742 113.741 128.741 113.789 128.738 113.836C128.738 113.883 128.736 113.924 128.73 113.961H125.652V113.617H128.102L127.996 113.734C127.996 113.714 127.996 113.694 127.996 113.676C127.996 113.658 127.996 113.635 127.996 113.609C127.996 113.219 127.917 112.922 127.758 112.719C127.602 112.513 127.379 112.41 127.09 112.41C126.78 112.41 126.525 112.527 126.324 112.762C126.124 112.993 126.023 113.358 126.023 113.855C126.023 114.21 126.089 114.517 126.219 114.777C126.349 115.038 126.533 115.24 126.77 115.383C127.007 115.526 127.284 115.598 127.602 115.598C127.799 115.598 127.992 115.564 128.18 115.496C128.37 115.428 128.526 115.337 128.648 115.223V115.52C128.508 115.681 128.311 115.816 128.059 115.926C127.806 116.033 127.513 116.086 127.18 116.086C126.812 116.086 126.482 116.007 126.188 115.848C125.896 115.686 125.664 115.456 125.492 115.156C125.323 114.854 125.238 114.493 125.238 114.074ZM130.676 116.086C130.345 116.086 130.068 115.992 129.844 115.805C129.622 115.617 129.512 115.379 129.512 115.09C129.512 114.874 129.562 114.688 129.664 114.531C129.768 114.375 129.931 114.242 130.152 114.133C130.374 114.021 130.659 113.927 131.008 113.852L132.289 113.57V113.93L131.34 114.133C130.962 114.216 130.693 114.322 130.531 114.449C130.372 114.577 130.293 114.745 130.293 114.953C130.293 115.167 130.365 115.333 130.508 115.453C130.651 115.573 130.833 115.633 131.055 115.633C131.245 115.633 131.417 115.595 131.57 115.52C131.727 115.444 131.849 115.342 131.938 115.215V113.34C131.938 112.991 131.849 112.749 131.672 112.613C131.495 112.478 131.267 112.41 130.988 112.41C130.819 112.41 130.663 112.432 130.52 112.477C130.379 112.518 130.259 112.583 130.16 112.672C130.061 112.758 129.991 112.867 129.949 113H129.75C129.75 112.865 129.788 112.75 129.863 112.656C129.939 112.56 130.029 112.512 130.133 112.512C130.24 112.512 130.332 112.553 130.41 112.637C130.488 112.72 130.527 112.819 130.527 112.934C130.527 113.053 130.484 113.152 130.398 113.23C130.315 113.309 130.21 113.348 130.082 113.348C129.957 113.348 129.85 113.307 129.762 113.227C129.676 113.146 129.633 113.042 129.633 112.914C129.633 112.732 129.707 112.573 129.855 112.438C130.004 112.302 130.201 112.197 130.445 112.121C130.693 112.043 130.962 112.004 131.254 112.004C131.697 112.004 132.047 112.103 132.305 112.301C132.565 112.499 132.695 112.807 132.695 113.227V115.172C132.695 115.346 132.737 115.469 132.82 115.539C132.906 115.609 133.008 115.645 133.125 115.645C133.221 115.645 133.297 115.632 133.352 115.605V115.879C133.286 115.923 133.199 115.965 133.09 116.004C132.98 116.043 132.857 116.062 132.719 116.062C132.589 116.062 132.471 116.042 132.367 116C132.266 115.958 132.18 115.897 132.109 115.816C132.042 115.736 131.993 115.637 131.965 115.52C131.85 115.671 131.678 115.803 131.449 115.918C131.22 116.03 130.962 116.086 130.676 116.086ZM135.047 112.047V112.758H135.066V115.379C135.066 115.491 135.096 115.566 135.156 115.605C135.216 115.645 135.366 115.677 135.605 115.703V116H133.723V115.703C133.978 115.677 134.137 115.643 134.199 115.602C134.264 115.56 134.297 115.48 134.297 115.363V112.859C134.297 112.753 134.281 112.68 134.25 112.641C134.221 112.602 134.15 112.569 134.035 112.543L133.723 112.469V112.207L135.047 112.047ZM136.32 112.004C136.698 112.004 137.01 112.105 137.258 112.309C137.505 112.512 137.629 112.823 137.629 113.242V115.379C137.629 115.491 137.659 115.566 137.719 115.605C137.779 115.645 137.928 115.677 138.168 115.703V116H136.324V115.703C136.564 115.677 136.712 115.645 136.77 115.605C136.829 115.566 136.859 115.491 136.859 115.379V113.492C136.859 113.167 136.78 112.919 136.621 112.75C136.465 112.578 136.245 112.492 135.961 112.492C135.518 112.492 135.198 112.673 135 113.035V112.707C135.13 112.491 135.307 112.32 135.531 112.195C135.758 112.068 136.021 112.004 136.32 112.004ZM138.816 112.004C139.225 112.004 139.556 112.116 139.809 112.34C140.064 112.564 140.191 112.882 140.191 113.293V115.363C140.191 115.48 140.223 115.56 140.285 115.602C140.35 115.643 140.51 115.677 140.766 115.703V116H138.887V115.703C139.126 115.677 139.275 115.645 139.332 115.605C139.392 115.566 139.422 115.491 139.422 115.379V113.492C139.422 113.167 139.34 112.919 139.176 112.75C139.014 112.578 138.786 112.492 138.492 112.492C138.263 112.492 138.065 112.536 137.898 112.625C137.734 112.714 137.603 112.849 137.504 113.031V112.703C137.634 112.477 137.812 112.303 138.039 112.184C138.266 112.064 138.525 112.004 138.816 112.004ZM141.363 114.074C141.363 113.668 141.441 113.31 141.598 113C141.757 112.69 141.977 112.448 142.258 112.273C142.539 112.096 142.862 112.008 143.227 112.008C143.581 112.008 143.879 112.076 144.121 112.211C144.366 112.346 144.551 112.54 144.676 112.793C144.803 113.043 144.867 113.342 144.867 113.691C144.867 113.741 144.866 113.789 144.863 113.836C144.863 113.883 144.861 113.924 144.855 113.961H141.777V113.617H144.227L144.121 113.734C144.121 113.714 144.121 113.694 144.121 113.676C144.121 113.658 144.121 113.635 144.121 113.609C144.121 113.219 144.042 112.922 143.883 112.719C143.727 112.513 143.504 112.41 143.215 112.41C142.905 112.41 142.65 112.527 142.449 112.762C142.249 112.993 142.148 113.358 142.148 113.855C142.148 114.21 142.214 114.517 142.344 114.777C142.474 115.038 142.658 115.24 142.895 115.383C143.132 115.526 143.409 115.598 143.727 115.598C143.924 115.598 144.117 115.564 144.305 115.496C144.495 115.428 144.651 115.337 144.773 115.223V115.52C144.633 115.681 144.436 115.816 144.184 115.926C143.931 116.033 143.638 116.086 143.305 116.086C142.938 116.086 142.607 116.007 142.312 115.848C142.021 115.686 141.789 115.456 141.617 115.156C141.448 114.854 141.363 114.493 141.363 114.074ZM146.852 112.047V112.848C147.094 112.572 147.31 112.365 147.5 112.227C147.693 112.089 147.879 112.02 148.059 112.02C148.217 112.02 148.328 112.062 148.391 112.148C148.456 112.234 148.488 112.335 148.488 112.449C148.488 112.504 148.482 112.557 148.469 112.609C148.456 112.659 148.438 112.698 148.414 112.727C148.372 112.714 148.316 112.704 148.246 112.699C148.178 112.691 148.105 112.688 148.027 112.688C147.803 112.688 147.579 112.725 147.355 112.801C147.134 112.876 146.973 112.973 146.871 113.09V115.316C146.871 115.413 146.884 115.486 146.91 115.535C146.936 115.585 146.995 115.621 147.086 115.645C147.177 115.665 147.318 115.685 147.508 115.703V116H145.527V115.703C145.783 115.677 145.941 115.643 146.004 115.602C146.069 115.56 146.102 115.48 146.102 115.363V112.859C146.102 112.753 146.086 112.68 146.055 112.641C146.026 112.602 145.954 112.569 145.84 112.543L145.527 112.469V112.207L146.852 112.047ZM149.102 113.109C149.102 112.88 149.164 112.684 149.289 112.52C149.414 112.355 149.59 112.229 149.816 112.141C150.046 112.049 150.312 112.004 150.617 112.004C150.919 112.004 151.181 112.034 151.402 112.094C151.624 112.154 151.792 112.223 151.906 112.301L151.938 113.277H151.664C151.609 112.991 151.487 112.775 151.297 112.629C151.109 112.483 150.884 112.41 150.621 112.41C150.376 112.41 150.178 112.461 150.027 112.562C149.876 112.664 149.801 112.805 149.801 112.984C149.801 113.164 149.871 113.302 150.012 113.398C150.152 113.492 150.346 113.573 150.594 113.641L150.91 113.727C151.275 113.823 151.56 113.965 151.766 114.152C151.974 114.337 152.078 114.592 152.078 114.918C152.078 115.15 152.009 115.353 151.871 115.527C151.733 115.699 151.547 115.833 151.312 115.93C151.081 116.023 150.823 116.07 150.539 116.07C150.224 116.07 149.94 116.035 149.688 115.965C149.435 115.892 149.236 115.807 149.09 115.711L149.059 114.715H149.332C149.379 114.931 149.46 115.109 149.574 115.25C149.691 115.391 149.832 115.495 149.996 115.562C150.163 115.63 150.341 115.664 150.531 115.664C150.792 115.664 150.997 115.607 151.148 115.492C151.302 115.375 151.379 115.225 151.379 115.043C151.379 114.868 151.319 114.73 151.199 114.629C151.082 114.525 150.884 114.435 150.605 114.359L150.285 114.273C149.926 114.174 149.638 114.035 149.422 113.855C149.208 113.673 149.102 113.424 149.102 113.109ZM156.82 116.086C156.451 116.086 156.117 116 155.82 115.828C155.526 115.656 155.293 115.418 155.121 115.113C154.949 114.809 154.863 114.458 154.863 114.062C154.863 113.656 154.952 113.299 155.129 112.992C155.306 112.682 155.546 112.44 155.848 112.266C156.152 112.091 156.497 112.004 156.883 112.004C157.255 112.004 157.589 112.09 157.883 112.262C158.18 112.434 158.414 112.672 158.586 112.977C158.758 113.281 158.844 113.632 158.844 114.027C158.844 114.431 158.755 114.788 158.578 115.098C158.401 115.408 158.16 115.65 157.855 115.824C157.551 115.999 157.206 116.086 156.82 116.086ZM156.883 115.68C157.24 115.68 157.517 115.539 157.715 115.258C157.913 114.977 158.012 114.592 158.012 114.105C158.012 113.759 157.96 113.46 157.855 113.207C157.751 112.952 157.609 112.755 157.43 112.617C157.253 112.479 157.049 112.41 156.82 112.41C156.466 112.41 156.19 112.551 155.992 112.832C155.794 113.111 155.695 113.495 155.695 113.984C155.695 114.331 155.746 114.632 155.848 114.887C155.952 115.139 156.092 115.335 156.27 115.473C156.449 115.611 156.654 115.68 156.883 115.68ZM160.848 115.316C160.848 115.413 160.861 115.486 160.887 115.535C160.913 115.585 160.971 115.621 161.062 115.645C161.154 115.665 161.294 115.685 161.484 115.703V116H159.504V115.703C159.759 115.677 159.918 115.643 159.98 115.602C160.046 115.56 160.078 115.48 160.078 115.363V112.5H159.504V112.293L160.078 112.09V111.598C160.078 111.285 160.126 111.023 160.223 110.812C160.322 110.602 160.46 110.444 160.637 110.34C160.816 110.233 161.027 110.18 161.27 110.18C161.546 110.18 161.757 110.245 161.902 110.375C162.051 110.503 162.125 110.654 162.125 110.828C162.125 110.935 162.089 111.026 162.016 111.102C161.945 111.174 161.857 111.211 161.75 111.211C161.641 111.211 161.551 111.174 161.48 111.102C161.41 111.029 161.375 110.938 161.375 110.828C161.375 110.727 161.409 110.642 161.477 110.574C161.547 110.504 161.63 110.469 161.727 110.469C161.818 110.469 161.895 110.504 161.957 110.574C162.022 110.642 162.055 110.727 162.055 110.828H161.785C161.764 110.758 161.717 110.694 161.645 110.637C161.572 110.577 161.482 110.547 161.375 110.547C161.208 110.547 161.078 110.613 160.984 110.746C160.893 110.879 160.848 111.079 160.848 111.348V112.105L161.996 112.09V112.5L160.848 112.484V115.316ZM164.793 114.883V112.5H164.258V112.293L165.426 111.363H165.562V112.113L166.801 112.09V112.5L165.562 112.484V114.703C165.562 115.049 165.633 115.286 165.773 115.414C165.914 115.539 166.091 115.602 166.305 115.602C166.411 115.602 166.514 115.589 166.613 115.562C166.712 115.534 166.797 115.497 166.867 115.453V115.75C166.779 115.846 166.647 115.927 166.473 115.992C166.298 116.055 166.104 116.086 165.891 116.086C165.695 116.086 165.514 116.047 165.348 115.969C165.181 115.891 165.047 115.764 164.945 115.59C164.844 115.413 164.793 115.177 164.793 114.883ZM168.598 110.195V112.617C168.715 112.44 168.882 112.294 169.098 112.18C169.316 112.062 169.574 112.004 169.871 112.004C170.275 112.004 170.603 112.115 170.855 112.336C171.108 112.555 171.234 112.863 171.234 113.262V115.363C171.234 115.441 171.246 115.503 171.27 115.547C171.296 115.589 171.349 115.621 171.43 115.645C171.51 115.665 171.637 115.685 171.809 115.703V116H169.926V115.703C170.165 115.677 170.314 115.645 170.371 115.605C170.431 115.566 170.461 115.491 170.461 115.379V113.477C170.461 113.156 170.376 112.913 170.207 112.746C170.04 112.577 169.814 112.492 169.527 112.492C169.298 112.492 169.104 112.535 168.945 112.621C168.789 112.707 168.673 112.811 168.598 112.934V115.379C168.598 115.491 168.628 115.566 168.688 115.605C168.747 115.645 168.897 115.677 169.137 115.703V116H167.254V115.703C167.509 115.677 167.668 115.643 167.73 115.602C167.796 115.56 167.828 115.48 167.828 115.363V111.012C167.828 110.905 167.812 110.832 167.781 110.793C167.753 110.751 167.681 110.717 167.566 110.691L167.254 110.617V110.359L168.598 110.195ZM172.402 114.074C172.402 113.668 172.48 113.31 172.637 113C172.796 112.69 173.016 112.448 173.297 112.273C173.578 112.096 173.901 112.008 174.266 112.008C174.62 112.008 174.918 112.076 175.16 112.211C175.405 112.346 175.59 112.54 175.715 112.793C175.842 113.043 175.906 113.342 175.906 113.691C175.906 113.741 175.905 113.789 175.902 113.836C175.902 113.883 175.9 113.924 175.895 113.961H172.816V113.617H175.266L175.16 113.734C175.16 113.714 175.16 113.694 175.16 113.676C175.16 113.658 175.16 113.635 175.16 113.609C175.16 113.219 175.081 112.922 174.922 112.719C174.766 112.513 174.543 112.41 174.254 112.41C173.944 112.41 173.689 112.527 173.488 112.762C173.288 112.993 173.188 113.358 173.188 113.855C173.188 114.21 173.253 114.517 173.383 114.777C173.513 115.038 173.697 115.24 173.934 115.383C174.171 115.526 174.448 115.598 174.766 115.598C174.964 115.598 175.156 115.564 175.344 115.496C175.534 115.428 175.69 115.337 175.812 115.223V115.52C175.672 115.681 175.475 115.816 175.223 115.926C174.97 116.033 174.677 116.086 174.344 116.086C173.977 116.086 173.646 116.007 173.352 115.848C173.06 115.686 172.828 115.456 172.656 115.156C172.487 114.854 172.402 114.493 172.402 114.074ZM76.7227 125.996C76.7227 126.408 76.6393 126.771 76.4727 127.086C76.3086 127.401 76.0859 127.647 75.8047 127.824C75.526 127.999 75.2122 128.086 74.8633 128.086C74.6445 128.086 74.444 128.048 74.2617 127.973C74.0794 127.895 73.9297 127.799 73.8125 127.688V129.113C73.8125 129.21 73.8255 129.283 73.8516 129.332C73.8776 129.382 73.9362 129.417 74.0273 129.438C74.1185 129.461 74.2604 129.482 74.4531 129.5V129.797H72.4688V129.5C72.6406 129.482 72.7669 129.461 72.8477 129.438C72.931 129.417 72.9844 129.384 73.0078 129.34C73.0312 129.298 73.043 129.238 73.043 129.16V124.859C73.043 124.753 73.0273 124.68 72.9961 124.641C72.9674 124.602 72.8958 124.569 72.7812 124.543L72.4688 124.469V124.207L73.793 124.047V124.695C73.9023 124.49 74.0781 124.323 74.3203 124.195C74.5625 124.068 74.8281 124.004 75.1172 124.004C75.4036 124.004 75.668 124.083 75.9102 124.242C76.1549 124.401 76.3516 124.629 76.5 124.926C76.6484 125.223 76.7227 125.579 76.7227 125.996ZM75.918 126.066C75.918 125.577 75.8086 125.193 75.5898 124.914C75.3737 124.633 75.0859 124.492 74.7266 124.492C74.5208 124.492 74.3372 124.533 74.1758 124.613C74.0169 124.694 73.8958 124.81 73.8125 124.961V127.262C73.8802 127.374 73.9922 127.471 74.1484 127.555C74.3047 127.635 74.4896 127.676 74.7031 127.676C75.0573 127.676 75.3477 127.533 75.5742 127.246C75.8034 126.96 75.918 126.566 75.918 126.066ZM78.6562 128.086C78.3255 128.086 78.0482 127.992 77.8242 127.805C77.6029 127.617 77.4922 127.379 77.4922 127.09C77.4922 126.874 77.543 126.688 77.6445 126.531C77.7487 126.375 77.9115 126.242 78.1328 126.133C78.3542 126.021 78.6393 125.927 78.9883 125.852L80.2695 125.57V125.93L79.3203 126.133C78.9427 126.216 78.6732 126.322 78.5117 126.449C78.3529 126.577 78.2734 126.745 78.2734 126.953C78.2734 127.167 78.3451 127.333 78.4883 127.453C78.6315 127.573 78.8138 127.633 79.0352 127.633C79.2253 127.633 79.3971 127.595 79.5508 127.52C79.707 127.444 79.8294 127.342 79.918 127.215V125.34C79.918 124.991 79.8294 124.749 79.6523 124.613C79.4753 124.478 79.2474 124.41 78.9688 124.41C78.7995 124.41 78.6432 124.432 78.5 124.477C78.3594 124.518 78.2396 124.583 78.1406 124.672C78.0417 124.758 77.9714 124.867 77.9297 125H77.7305C77.7305 124.865 77.7682 124.75 77.8438 124.656C77.9193 124.56 78.0091 124.512 78.1133 124.512C78.2201 124.512 78.3125 124.553 78.3906 124.637C78.4688 124.72 78.5078 124.819 78.5078 124.934C78.5078 125.053 78.4648 125.152 78.3789 125.23C78.2956 125.309 78.1901 125.348 78.0625 125.348C77.9375 125.348 77.8307 125.307 77.7422 125.227C77.6562 125.146 77.6133 125.042 77.6133 124.914C77.6133 124.732 77.6875 124.573 77.8359 124.438C77.9844 124.302 78.181 124.197 78.4258 124.121C78.6732 124.043 78.9427 124.004 79.2344 124.004C79.6771 124.004 80.0273 124.103 80.2852 124.301C80.5456 124.499 80.6758 124.807 80.6758 125.227V127.172C80.6758 127.346 80.7174 127.469 80.8008 127.539C80.8867 127.609 80.9883 127.645 81.1055 127.645C81.2018 127.645 81.2773 127.632 81.332 127.605V127.879C81.2669 127.923 81.1797 127.965 81.0703 128.004C80.9609 128.043 80.8372 128.062 80.6992 128.062C80.569 128.062 80.4518 128.042 80.3477 128C80.2461 127.958 80.1602 127.897 80.0898 127.816C80.0221 127.736 79.974 127.637 79.9453 127.52C79.8307 127.671 79.6589 127.803 79.4297 127.918C79.2005 128.03 78.9427 128.086 78.6562 128.086ZM81.8867 125.109C81.8867 124.88 81.9492 124.684 82.0742 124.52C82.1992 124.355 82.375 124.229 82.6016 124.141C82.8307 124.049 83.0977 124.004 83.4023 124.004C83.7044 124.004 83.9661 124.034 84.1875 124.094C84.4089 124.154 84.5768 124.223 84.6914 124.301L84.7227 125.277H84.4492C84.3945 124.991 84.2721 124.775 84.082 124.629C83.8945 124.483 83.6693 124.41 83.4062 124.41C83.1615 124.41 82.9635 124.461 82.8125 124.562C82.6615 124.664 82.5859 124.805 82.5859 124.984C82.5859 125.164 82.6562 125.302 82.7969 125.398C82.9375 125.492 83.1315 125.573 83.3789 125.641L83.6953 125.727C84.0599 125.823 84.3451 125.965 84.5508 126.152C84.7591 126.337 84.8633 126.592 84.8633 126.918C84.8633 127.15 84.7943 127.353 84.6562 127.527C84.5182 127.699 84.332 127.833 84.0977 127.93C83.8659 128.023 83.6081 128.07 83.3242 128.07C83.0091 128.07 82.7253 128.035 82.4727 127.965C82.2201 127.892 82.0208 127.807 81.875 127.711L81.8438 126.715H82.1172C82.1641 126.931 82.2448 127.109 82.3594 127.25C82.4766 127.391 82.6172 127.495 82.7812 127.562C82.9479 127.63 83.1263 127.664 83.3164 127.664C83.5768 127.664 83.7826 127.607 83.9336 127.492C84.0872 127.375 84.1641 127.225 84.1641 127.043C84.1641 126.868 84.1042 126.73 83.9844 126.629C83.8672 126.525 83.6693 126.435 83.3906 126.359L83.0703 126.273C82.7109 126.174 82.4232 126.035 82.207 125.855C81.9935 125.673 81.8867 125.424 81.8867 125.109ZM86 126.883V124.5H85.4648V124.293L86.6328 123.363H86.7695V124.113L88.0078 124.09V124.5L86.7695 124.484V126.703C86.7695 127.049 86.8398 127.286 86.9805 127.414C87.1211 127.539 87.2982 127.602 87.5117 127.602C87.6185 127.602 87.7214 127.589 87.8203 127.562C87.9193 127.534 88.0039 127.497 88.0742 127.453V127.75C87.9857 127.846 87.8542 127.927 87.6797 127.992C87.5052 128.055 87.3112 128.086 87.0977 128.086C86.9023 128.086 86.7214 128.047 86.5547 127.969C86.388 127.891 86.2539 127.764 86.1523 127.59C86.0508 127.413 86 127.177 86 126.883ZM91.7852 124.047V124.641C91.8997 124.458 92.0677 124.307 92.2891 124.188C92.513 124.065 92.776 124.004 93.0781 124.004C93.4818 124.004 93.8099 124.115 94.0625 124.336C94.3151 124.555 94.4414 124.863 94.4414 125.262V127.363C94.4414 127.441 94.4531 127.503 94.4766 127.547C94.5026 127.589 94.556 127.621 94.6367 127.645C94.7174 127.665 94.8438 127.685 95.0156 127.703V128H93.1328V127.703C93.3724 127.677 93.5208 127.645 93.5781 127.605C93.638 127.566 93.668 127.491 93.668 127.379V125.477C93.668 125.156 93.5833 124.913 93.4141 124.746C93.2474 124.577 93.0208 124.492 92.7344 124.492C92.5052 124.492 92.3112 124.535 92.1523 124.621C91.9961 124.707 91.8802 124.811 91.8047 124.934V127.379C91.8047 127.491 91.8346 127.566 91.8945 127.605C91.9544 127.645 92.1042 127.677 92.3438 127.703V128H90.4609V127.703C90.7161 127.677 90.875 127.643 90.9375 127.602C91.0026 127.56 91.0352 127.48 91.0352 127.363V124.859C91.0352 124.753 91.0195 124.68 90.9883 124.641C90.9596 124.602 90.888 124.569 90.7734 124.543L90.4609 124.469V124.207L91.7852 124.047ZM95.6094 126.074C95.6094 125.668 95.6875 125.31 95.8438 125C96.0026 124.69 96.2227 124.448 96.5039 124.273C96.7852 124.096 97.1081 124.008 97.4727 124.008C97.8268 124.008 98.125 124.076 98.3672 124.211C98.612 124.346 98.7969 124.54 98.9219 124.793C99.0495 125.043 99.1133 125.342 99.1133 125.691C99.1133 125.741 99.112 125.789 99.1094 125.836C99.1094 125.883 99.1068 125.924 99.1016 125.961H96.0234V125.617H98.4727L98.3672 125.734C98.3672 125.714 98.3672 125.694 98.3672 125.676C98.3672 125.658 98.3672 125.635 98.3672 125.609C98.3672 125.219 98.2878 124.922 98.1289 124.719C97.9727 124.513 97.75 124.41 97.4609 124.41C97.151 124.41 96.8958 124.527 96.6953 124.762C96.4948 124.993 96.3945 125.358 96.3945 125.855C96.3945 126.21 96.4596 126.517 96.5898 126.777C96.7201 127.038 96.9036 127.24 97.1406 127.383C97.3776 127.526 97.6549 127.598 97.9727 127.598C98.1706 127.598 98.3633 127.564 98.5508 127.496C98.7409 127.428 98.8971 127.337 99.0195 127.223V127.52C98.8789 127.681 98.6823 127.816 98.4297 127.926C98.1771 128.033 97.8841 128.086 97.5508 128.086C97.1836 128.086 96.8529 128.007 96.5586 127.848C96.2669 127.686 96.0352 127.456 95.8633 127.156C95.694 126.854 95.6094 126.493 95.6094 126.074ZM100.164 125.016C100.102 124.859 100.043 124.741 99.9883 124.66C99.9336 124.579 99.8685 124.521 99.793 124.484C99.7174 124.445 99.6146 124.413 99.4844 124.387V124.09H101.438V124.387C101.26 124.4 101.128 124.423 101.039 124.457C100.953 124.491 100.905 124.546 100.895 124.621C100.887 124.697 100.91 124.807 100.965 124.953L101.879 127.371H101.699L102.613 124.953C102.668 124.807 102.691 124.697 102.684 124.621C102.676 124.546 102.628 124.491 102.539 124.457C102.453 124.423 102.32 124.4 102.141 124.387V124.09H103.688V124.387C103.557 124.405 103.456 124.43 103.383 124.461C103.31 124.492 103.247 124.549 103.195 124.633C103.143 124.716 103.081 124.846 103.008 125.023L101.805 128H101.367L100.164 125.016ZM103.82 126.074C103.82 125.668 103.898 125.31 104.055 125C104.214 124.69 104.434 124.448 104.715 124.273C104.996 124.096 105.319 124.008 105.684 124.008C106.038 124.008 106.336 124.076 106.578 124.211C106.823 124.346 107.008 124.54 107.133 124.793C107.26 125.043 107.324 125.342 107.324 125.691C107.324 125.741 107.323 125.789 107.32 125.836C107.32 125.883 107.318 125.924 107.312 125.961H104.234V125.617H106.684L106.578 125.734C106.578 125.714 106.578 125.694 106.578 125.676C106.578 125.658 106.578 125.635 106.578 125.609C106.578 125.219 106.499 124.922 106.34 124.719C106.184 124.513 105.961 124.41 105.672 124.41C105.362 124.41 105.107 124.527 104.906 124.762C104.706 124.993 104.605 125.358 104.605 125.855C104.605 126.21 104.671 126.517 104.801 126.777C104.931 127.038 105.115 127.24 105.352 127.383C105.589 127.526 105.866 127.598 106.184 127.598C106.382 127.598 106.574 127.564 106.762 127.496C106.952 127.428 107.108 127.337 107.23 127.223V127.52C107.09 127.681 106.893 127.816 106.641 127.926C106.388 128.033 106.095 128.086 105.762 128.086C105.395 128.086 105.064 128.007 104.77 127.848C104.478 127.686 104.246 127.456 104.074 127.156C103.905 126.854 103.82 126.493 103.82 126.074ZM109.309 124.047V124.848C109.551 124.572 109.767 124.365 109.957 124.227C110.15 124.089 110.336 124.02 110.516 124.02C110.674 124.02 110.785 124.062 110.848 124.148C110.913 124.234 110.945 124.335 110.945 124.449C110.945 124.504 110.939 124.557 110.926 124.609C110.913 124.659 110.895 124.698 110.871 124.727C110.829 124.714 110.773 124.704 110.703 124.699C110.635 124.691 110.562 124.688 110.484 124.688C110.26 124.688 110.036 124.725 109.812 124.801C109.591 124.876 109.43 124.973 109.328 125.09V127.316C109.328 127.413 109.341 127.486 109.367 127.535C109.393 127.585 109.452 127.621 109.543 127.645C109.634 127.665 109.775 127.685 109.965 127.703V128H107.984V127.703C108.24 127.677 108.398 127.643 108.461 127.602C108.526 127.56 108.559 127.48 108.559 127.363V124.859C108.559 124.753 108.543 124.68 108.512 124.641C108.483 124.602 108.411 124.569 108.297 124.543L107.984 124.469V124.207L109.309 124.047ZM114.719 122.195V127.379C114.719 127.491 114.749 127.566 114.809 127.605C114.868 127.645 115.018 127.677 115.258 127.703V128H113.375V127.703C113.63 127.677 113.789 127.643 113.852 127.602C113.917 127.56 113.949 127.48 113.949 127.363V123.012C113.949 122.905 113.934 122.832 113.902 122.793C113.874 122.751 113.802 122.717 113.688 122.691L113.375 122.617V122.359L114.719 122.195ZM114.34 126.023V125.672H115.637V126.023H114.34ZM116.523 128L115.168 125.809L116.008 124.922C116.188 124.732 116.26 124.603 116.227 124.535C116.193 124.465 116.048 124.415 115.793 124.387V124.09H117.5V124.387C117.37 124.405 117.253 124.435 117.148 124.477C117.044 124.518 116.922 124.594 116.781 124.703C116.643 124.81 116.453 124.975 116.211 125.199L115.734 125.645L115.781 125.449L116.77 127.023C116.871 127.185 116.964 127.314 117.047 127.41C117.133 127.504 117.217 127.576 117.301 127.625C117.384 127.672 117.474 127.706 117.57 127.727V128H116.523ZM119.152 124.047V124.641C119.267 124.458 119.435 124.307 119.656 124.188C119.88 124.065 120.143 124.004 120.445 124.004C120.849 124.004 121.177 124.115 121.43 124.336C121.682 124.555 121.809 124.863 121.809 125.262V127.363C121.809 127.441 121.82 127.503 121.844 127.547C121.87 127.589 121.923 127.621 122.004 127.645C122.085 127.665 122.211 127.685 122.383 127.703V128H120.5V127.703C120.74 127.677 120.888 127.645 120.945 127.605C121.005 127.566 121.035 127.491 121.035 127.379V125.477C121.035 125.156 120.951 124.913 120.781 124.746C120.615 124.577 120.388 124.492 120.102 124.492C119.872 124.492 119.678 124.535 119.52 124.621C119.363 124.707 119.247 124.811 119.172 124.934V127.379C119.172 127.491 119.202 127.566 119.262 127.605C119.322 127.645 119.471 127.677 119.711 127.703V128H117.828V127.703C118.083 127.677 118.242 127.643 118.305 127.602C118.37 127.56 118.402 127.48 118.402 127.363V124.859C118.402 124.753 118.387 124.68 118.355 124.641C118.327 124.602 118.255 124.569 118.141 124.543L117.828 124.469V124.207L119.152 124.047ZM122.977 126.074C122.977 125.668 123.055 125.31 123.211 125C123.37 124.69 123.59 124.448 123.871 124.273C124.152 124.096 124.475 124.008 124.84 124.008C125.194 124.008 125.492 124.076 125.734 124.211C125.979 124.346 126.164 124.54 126.289 124.793C126.417 125.043 126.48 125.342 126.48 125.691C126.48 125.741 126.479 125.789 126.477 125.836C126.477 125.883 126.474 125.924 126.469 125.961H123.391V125.617H125.84L125.734 125.734C125.734 125.714 125.734 125.694 125.734 125.676C125.734 125.658 125.734 125.635 125.734 125.609C125.734 125.219 125.655 124.922 125.496 124.719C125.34 124.513 125.117 124.41 124.828 124.41C124.518 124.41 124.263 124.527 124.062 124.762C123.862 124.993 123.762 125.358 123.762 125.855C123.762 126.21 123.827 126.517 123.957 126.777C124.087 127.038 124.271 127.24 124.508 127.383C124.745 127.526 125.022 127.598 125.34 127.598C125.538 127.598 125.73 127.564 125.918 127.496C126.108 127.428 126.264 127.337 126.387 127.223V127.52C126.246 127.681 126.049 127.816 125.797 127.926C125.544 128.033 125.251 128.086 124.918 128.086C124.551 128.086 124.22 128.007 123.926 127.848C123.634 127.686 123.402 127.456 123.23 127.156C123.061 126.854 122.977 126.493 122.977 126.074ZM127.531 125.016C127.477 124.859 127.422 124.741 127.367 124.66C127.312 124.579 127.245 124.521 127.164 124.484C127.086 124.445 126.982 124.413 126.852 124.387V124.09H128.684V124.387C128.46 124.405 128.322 124.451 128.27 124.523C128.22 124.594 128.23 124.737 128.301 124.953L129.062 127.301H128.898L129.727 124.953C129.802 124.74 129.815 124.596 129.766 124.523C129.716 124.448 129.591 124.402 129.391 124.387V124.09H131.086V124.387C130.885 124.402 130.762 124.448 130.715 124.523C130.668 124.596 130.678 124.74 130.746 124.953L131.504 127.301H131.34L132.156 124.953C132.232 124.734 132.243 124.59 132.191 124.52C132.139 124.449 132 124.405 131.773 124.387V124.09H133.223V124.387C133.095 124.405 132.993 124.43 132.918 124.461C132.845 124.49 132.781 124.546 132.727 124.629C132.674 124.71 132.616 124.839 132.551 125.016L131.453 128H131.012L129.965 124.926H130.141L129.023 128H128.582L127.531 125.016ZM133.641 128.062C133.547 128.062 133.46 128.039 133.379 127.992C133.301 127.945 133.237 127.883 133.188 127.805C133.141 127.724 133.117 127.635 133.117 127.539C133.117 127.443 133.141 127.355 133.188 127.277C133.237 127.199 133.301 127.137 133.379 127.09C133.46 127.043 133.547 127.02 133.641 127.02C133.737 127.02 133.824 127.043 133.902 127.09C133.983 127.137 134.047 127.199 134.094 127.277C134.141 127.355 134.164 127.443 134.164 127.539C134.164 127.635 134.141 127.724 134.094 127.805C134.047 127.883 133.983 127.945 133.902 127.992C133.824 128.039 133.737 128.062 133.641 128.062Z" fill="black"/>
<rect x="16.2354" y="153" width="46.1765" height="46.1765" rx="12.6985" fill="#4B4B4B"/>
<rect x="16.2354" y="208.177" width="46.1765" height="46.1765" rx="12.6985" fill="#4B4B4B"/>
<rect x="16.2354" y="263.353" width="46.1765" height="46.1765" rx="12.6985" fill="#4B4B4B"/>
<rect x="80.4119" y="153" width="46.1765" height="46.1765" rx="12.6985" fill="#4B4B4B"/>
<rect x="80.4119" y="208.177" width="46.1765" height="46.1765" rx="12.6985" fill="#4B4B4B"/>
<rect x="80.4119" y="263.353" width="46.1765" height="46.1765" rx="12.6985" fill="#4B4B4B"/>
<rect x="144.588" y="153" width="46.1765" height="46.1765" rx="12.6985" fill="#4B4B4B"/>
<rect x="144.588" y="208.177" width="46.1765" height="46.1765" rx="12.6985" fill="#4B4B4B"/>
<rect x="144.588" y="263.353" width="46.1765" height="46.1765" rx="12.6985" fill="#4B4B4B"/>
<rect x="16" y="19" width="36" height="14" rx="7" fill="#222222"/>
<path d="M34 22L34 30" stroke="#575757" stroke-linecap="round"/>
<path d="M30 26H38" stroke="#575757" stroke-linecap="round"/>
<circle cx="186.5" cy="69.5" r="6.5" fill="#222222"/>
<path d="M188.864 69.7954L184.136 69.7954" stroke="#575757" stroke-width="0.590909" stroke-linecap="round"/>
</svg>
