<svg width="27" height="25" viewBox="0 0 27 25" fill="none" xmlns="http://www.w3.org/2000/svg">
<path d="M0.316 5.728C0.316 5 0.428 4.33733 0.652 3.74C0.876 3.14267 1.19333 2.62933 1.604 2.2C2.01467 1.77067 2.5 1.444 3.06 1.22C3.63867 0.977333 4.28267 0.856 4.992 0.856C5.75733 0.856 6.448 0.968 7.064 1.192C7.69867 1.39733 8.09067 1.584 8.24 1.752C8.38933 1.93867 8.464 2.872 8.464 4.552C8.464 4.92533 8.36133 5.112 8.156 5.112C7.96933 5.112 7.85733 4.99067 7.82 4.748C7.78267 4.48667 7.67067 4.132 7.484 3.684C7.204 2.97467 6.84 2.452 6.392 2.116C5.96267 1.76133 5.42133 1.584 4.768 1.584C3.816 1.584 3.06933 1.84533 2.528 2.368C2.00533 2.89067 1.744 3.60933 1.744 4.524C1.744 4.972 1.80933 5.37333 1.94 5.728C2.08933 6.064 2.31333 6.39067 2.612 6.708C2.91067 7.00667 3.27467 7.296 3.704 7.576C4.152 7.856 4.67467 8.15467 5.272 8.472C5.90667 8.808 6.46667 9.15333 6.952 9.508C7.456 9.86267 7.876 10.2547 8.212 10.684C8.548 11.0947 8.8 11.5613 8.968 12.084C9.15467 12.588 9.248 13.176 9.248 13.848C9.248 14.688 9.108 15.4533 8.828 16.144C8.548 16.8347 8.16533 17.432 7.68 17.936C7.19467 18.44 6.616 18.832 5.944 19.112C5.29067 19.392 4.59067 19.532 3.844 19.532C3.116 19.532 2.444 19.42 1.828 19.196C1.212 18.9907 0.773333 18.7667 0.512 18.524C0.288 18.3187 0.148 18.104 0.092 17.88C0.036 17.6373 0.00800006 17.3107 0.00800006 16.9C0.00800006 16.4707 0.00800006 16.1067 0.00800006 15.808C0.0266667 15.5093 0.036 15.2573 0.036 15.052C0.036 14.4173 0.166667 14.1 0.428 14.1C0.54 14.1 0.614667 14.1747 0.652 14.324C0.689333 14.4547 0.717333 14.6413 0.736 14.884C0.754667 15.108 0.782667 15.3693 0.82 15.668C0.857333 15.9667 0.941333 16.284 1.072 16.62C1.33333 17.292 1.73467 17.8147 2.276 18.188C2.836 18.5613 3.48933 18.748 4.236 18.748C4.74 18.748 5.19733 18.664 5.608 18.496C6.01867 18.3093 6.37333 18.0573 6.672 17.74C6.97067 17.4227 7.204 17.0493 7.372 16.62C7.54 16.172 7.624 15.6773 7.624 15.136C7.624 14.52 7.54 13.9973 7.372 13.568C7.22267 13.12 6.98933 12.7187 6.672 12.364C6.35467 12.0093 5.96267 11.6827 5.496 11.384C5.048 11.0853 4.516 10.768 3.9 10.432C3.30267 10.1147 2.78 9.80667 2.332 9.508C1.90267 9.20933 1.52933 8.88267 1.212 8.528C0.913333 8.17333 0.689333 7.772 0.54 7.324C0.390667 6.876 0.316 6.344 0.316 5.728ZM19.1852 1.612C18.4572 1.612 17.7665 1.808 17.1132 2.2C16.4598 2.57333 15.8905 3.13333 15.4052 3.88C14.9198 4.608 14.5372 5.504 14.2572 6.568C13.9772 7.632 13.8372 8.836 13.8372 10.18C13.8372 11.524 13.9772 12.728 14.2572 13.792C14.5372 14.856 14.9198 15.752 15.4052 16.48C15.8905 17.208 16.4598 17.768 17.1132 18.16C17.7665 18.5333 18.4758 18.72 19.2412 18.72C19.9878 18.72 20.6785 18.5333 21.3132 18.16C21.9665 17.768 22.5358 17.208 23.0212 16.48C23.5065 15.7333 23.8892 14.8373 24.1692 13.792C24.4492 12.728 24.5892 11.524 24.5892 10.18C24.5892 8.836 24.4492 7.632 24.1692 6.568C23.8892 5.504 23.5065 4.608 23.0212 3.88C22.5358 3.13333 21.9572 2.57333 21.2852 2.2C20.6318 1.808 19.9318 1.612 19.1852 1.612ZM21.0052 19.224L20.4172 19.392C20.1932 19.448 20.0812 19.588 20.0812 19.812C20.0812 19.8307 20.0812 19.8493 20.0812 19.868C20.0998 19.8867 20.1092 19.9147 20.1092 19.952L20.2772 20.764C20.3705 21.1933 20.5385 21.5947 20.7812 21.968C21.0425 22.3413 21.3505 22.6587 21.7052 22.92C22.0785 23.2 22.4892 23.4147 22.9372 23.564C23.3852 23.7133 23.8425 23.788 24.3092 23.788C24.8505 23.788 25.2985 23.704 25.6532 23.536C26.0078 23.368 26.2598 23.284 26.4092 23.284C26.6332 23.284 26.7452 23.3867 26.7452 23.592C26.7452 23.8907 26.4558 24.1613 25.8772 24.404C25.3172 24.6653 24.6172 24.796 23.7772 24.796C22.8812 24.796 22.0785 24.684 21.3692 24.46C20.6598 24.236 20.0532 23.928 19.5492 23.536C19.0452 23.1627 18.6625 22.724 18.4012 22.22C18.1398 21.716 18.0092 21.184 18.0092 20.624V19.952C18.0092 19.5973 17.9252 19.392 17.7572 19.336L17.2812 19.196C16.4412 18.916 15.6758 18.496 14.9852 17.936C14.2945 17.3573 13.6972 16.676 13.1932 15.892C12.7078 15.108 12.3252 14.2307 12.0452 13.26C11.7838 12.2893 11.6532 11.2627 11.6532 10.18C11.6532 8.836 11.8585 7.59467 12.2692 6.456C12.6798 5.31733 13.2305 4.33733 13.9212 3.516C14.6118 2.676 15.4145 2.02267 16.3292 1.556C17.2438 1.08933 18.2052 0.856 19.2132 0.856C20.2212 0.856 21.1825 1.08933 22.0972 1.556C23.0118 2.02267 23.8145 2.676 24.5052 3.516C25.1958 4.33733 25.7372 5.31733 26.1292 6.456C26.5398 7.59467 26.7452 8.836 26.7452 10.18C26.7452 11.3187 26.5958 12.392 26.2972 13.4C26.0172 14.3893 25.6158 15.2853 25.0932 16.088C24.5892 16.872 23.9825 17.5347 23.2732 18.076C22.5825 18.6173 21.8265 19 21.0052 19.224Z" fill="black"/>
</svg>
