<?xml version="1.0" encoding="UTF-8"?>
<svg id="Layer_2" data-name="Layer 2" xmlns="http://www.w3.org/2000/svg" viewBox="0 0 233.23 516.13">
  <defs>
    <style>
      .cls-1 {
        fill: #1d1d1b;
      }
    </style>
  </defs>
  <g id="Layer_1-2" data-name="Layer 1">
    <path class="cls-1" d="M233.23,367.95c0,41.05-12.13,76-36.37,104.87-24.25,28.88-53.4,43.31-87.46,43.31-19.99,0-43.87-7.88-71.63-23.62-7.41-4.29-12.96-6.44-16.66-6.44-4.44,0-7.22,6.61-8.33,19.82-.37,6.82-2.78,10.25-7.22,10.25-3.71,0-5.55-2.86-5.55-8.59,0-3.81.18-6.68.55-8.59,2.96-29.1,4.44-56.07,4.44-80.89,0-4.76-.37-18.13-1.11-40.09-.37-2.86-.55-6.68-.55-11.45,0-7.16,2.22-10.74,6.66-10.74,3.7,0,6.29,5.78,7.77,17.35,9.62,85.79,40.9,128.68,93.85,128.68,22.58,0,40.07-8.23,52.48-24.7,12.4-16.46,18.6-39.73,18.6-69.79,0-26.72-6.02-49.51-18.05-68.36-12.04-18.85-32.68-37.58-61.92-56.19-35.18-22.43-59.61-44.14-73.3-65.14-13.7-20.99-20.55-47-20.55-78.03,0-39.61,9.9-72.3,29.71-98.07C58.39,15.75,83.48,2.86,113.84,2.86c12.58,0,29.99,5.49,52.2,16.46,7.77,3.83,13.51,5.73,17.21,5.73,4.07,0,6.75-.95,8.05-2.86,1.29-1.9,2.5-6.91,3.61-15.03C195.65,2.39,197.69,0,201.02,0c3.7,0,5.55,2.86,5.55,8.59,0,3.83-.19,6.69-.55,8.59-1.11,11.45-1.67,25.3-1.67,41.52,0,22.91.92,41.05,2.78,54.4l.56,11.45c.36,5.26-1.3,7.87-5,7.87-4.08,0-6.86-5.48-8.33-16.46-4.08-28.15-13.7-51.65-28.88-70.51-15.18-18.85-32.21-28.28-51.09-28.28-18.52,0-33.23,7.64-44.15,22.91-10.92,15.28-16.38,36.04-16.38,62.28,0,30.55,7.96,55.12,23.88,73.73,8.88,10.5,28.13,25.3,57.75,44.38,34.79,22.44,59.78,45.22,74.97,68.36,15.18,23.15,22.77,49.52,22.77,79.1Z"/>
  </g>
</svg>