<svg width="161" height="169" viewBox="0 0 161 169" fill="none" xmlns="http://www.w3.org/2000/svg">
<g clip-path="url(#clip0_1300_1188)">
<path d="M60.6658 16.9062L63.0396 16.2701C66.6879 16.5187 68.715 18.5242 69.4174 22.0739C69.728 23.6339 70.2261 25.1552 70.6454 26.7202C70.9961 26.7312 71.2631 26.7675 71.525 26.7428C91.5984 24.9374 109.624 37.4857 114.933 56.9833C116.435 62.4929 117.852 68.0251 119.399 73.5226C120.722 78.2286 122.942 82.5067 125.918 86.3866C129.74 91.3654 134.522 95.1361 140.122 97.9239C144.421 100.062 146.597 104.057 146.039 108.526C145.494 112.895 142.554 116.081 137.851 117.341C107.391 125.508 76.9325 133.667 46.4709 141.826C45.9012 141.979 45.3199 142.109 44.737 142.192C38.7231 143.042 33.5921 139.022 32.9611 132.964C32.6642 130.126 33.75 127.732 35.2552 125.416C40.2197 117.779 42.5117 109.368 41.4185 100.298C40.8597 95.6598 39.4699 91.1164 38.3916 86.5435C37.3655 82.1866 35.918 77.9028 35.2409 73.4977C32.6436 56.5884 40.6758 40.2708 55.5068 31.7926C56.7523 31.0814 58.6983 30.6423 59.0782 29.6124C59.5093 28.4468 58.6387 26.7274 58.159 25.3063C56.9989 21.8735 57.609 19.0337 60.6658 16.9062Z" fill="#333333"/>
<path d="M95.9395 152.77C93.1454 152.607 90.2819 152.787 87.5726 152.213C81.4284 150.911 76.8356 147.243 73.6003 141.857C73.4159 141.549 73.2971 141.2 73.1157 140.798L114.367 129.744C114.578 136.451 112.498 142.245 107.615 146.746C105.515 148.68 102.839 149.982 100.423 151.568L95.9395 152.77Z" fill="#333333"/>
<path d="M14.4735 87.1143C10.2266 68.3736 12.6191 50.5899 22.0288 33.8322C23.7666 30.7384 27.1708 29.7383 30.0719 31.3762C32.957 33.0071 33.8988 36.4586 32.1618 39.5664C27.3869 48.1002 24.6377 57.2208 24.1664 67.014C23.8873 72.7879 24.4047 78.4959 25.7767 84.1225C26.0146 85.0947 26.2646 86.0807 26.3525 87.0732C26.6146 90.0455 24.6437 92.5859 21.6754 93.2081C18.9051 93.7886 15.9972 92.1043 15.0786 89.3618C14.8336 88.627 14.6691 87.8651 14.4683 87.1157L14.4735 87.1143Z" fill="#333333"/>
<path d="M138.106 53.601C138.343 54.4828 138.622 55.3559 138.807 56.2485C139.421 59.1833 137.624 62.1085 134.738 62.9216C131.76 63.762 128.613 62.2297 127.701 59.3123C126.176 54.422 124.479 49.6177 121.994 45.1123C116.791 35.6759 109.618 28.1382 100.489 22.4699C98.7798 21.4068 97.0078 20.4483 96.3558 18.3212C95.6307 15.9526 96.2832 13.5243 98.1031 11.9922C99.9576 10.4309 102.453 10.0802 104.595 11.3539C107.138 12.8665 109.657 14.4507 112.018 16.2249C124.778 25.8132 133.398 38.3387 138.103 53.599L138.106 53.601Z" fill="#333333"/>
</g>
<defs>
<clipPath id="clip0_1300_1188">
<rect width="128.127" height="140.364" fill="white" transform="translate(0 33.1616) rotate(-15)"/>
</clipPath>
</defs>
</svg>
