<svg width="16" height="14" viewBox="0 0 16 14" fill="none" xmlns="http://www.w3.org/2000/svg">
<path d="M14.6773 11.914C16.9751 9.34588 14.9477 4.05993 13.0104 2.34784C11.3884 0.861033 8.6851 -0.355447 8.41477 0.0951012C8.00927 0.770924 9.58619 1.22148 10.8027 2.3028C12.2895 3.92477 13.8663 6.05682 11.7937 6.95792C9.58605 7.94913 8.95533 8.48986 8.86522 9.75139C8.73006 12.8602 12.4246 14.1217 14.6773 11.914Z" fill="black"/>
<path d="M6.3277 11.914C8.6255 9.34588 6.59788 4.05993 4.66053 2.34784C3.03855 0.861033 0.335263 -0.355447 0.0649338 0.0951012C-0.34056 0.770924 1.23636 1.22147 2.45284 2.30279C3.93965 3.92476 5.51665 6.05683 3.44413 6.95792C1.23644 7.94913 0.605731 8.48986 0.515622 9.7514C0.380457 12.8602 4.07496 14.1217 6.3277 11.914Z" fill="black"/>
</svg>
