<svg width="20" height="21" viewBox="0 0 20 21" fill="none" xmlns="http://www.w3.org/2000/svg">
<g clip-path="url(#clip0_1911_2302)">
<path d="M13.5617 2.06125C12.9077 2.06125 12.2805 2.32103 11.8181 2.78345C11.3557 3.24587 11.0959 3.87304 11.0959 4.527V9.45851C11.7499 9.45851 12.3771 9.71829 12.8395 10.1807C13.3019 10.6431 13.5617 11.2703 13.5617 11.9243V18.0886C13.5617 18.7426 13.3019 19.3698 12.8395 19.8322C12.3771 20.2946 11.7499 20.5544 11.0959 20.5544H3.69866C3.04471 20.5544 2.41753 20.2946 1.95511 19.8322C1.49269 19.3698 1.23291 18.7426 1.23291 18.0886V11.9243C1.23291 11.2703 1.49269 10.6431 1.95511 10.1807C2.41753 9.71829 3.04471 9.45851 3.69866 9.45851H9.86305V4.527C9.86305 3.54606 10.2527 2.6053 10.9463 1.91167C11.64 1.21805 12.5807 0.828369 13.5617 0.828369C14.5426 0.828369 15.4834 1.21805 16.177 1.91167C16.8706 2.6053 17.2603 3.54606 17.2603 4.527V9.45851C17.2603 9.622 17.1954 9.77879 17.0798 9.89439C16.9642 10.01 16.8074 10.0749 16.6439 10.0749C16.4804 10.0749 16.3236 10.01 16.208 9.89439C16.0924 9.77879 16.0274 9.622 16.0274 9.45851V4.527C16.0274 3.87304 15.7676 3.24587 15.3052 2.78345C14.8428 2.32103 14.2156 2.06125 13.5617 2.06125ZM3.69866 10.6914C3.37168 10.6914 3.0581 10.8213 2.82689 11.0525C2.59568 11.2837 2.46579 11.5973 2.46579 11.9243V18.0886C2.46579 18.4156 2.59568 18.7292 2.82689 18.9604C3.0581 19.1916 3.37168 19.3215 3.69866 19.3215H11.0959C11.4229 19.3215 11.7365 19.1916 11.9677 18.9604C12.1989 18.7292 12.3288 18.4156 12.3288 18.0886V11.9243C12.3288 11.5973 12.1989 11.2837 11.9677 11.0525C11.7365 10.8213 11.4229 10.6914 11.0959 10.6914H3.69866Z" fill="#9E9E9E"/>
</g>
<defs>
<clipPath id="clip0_1911_2302">
<rect width="19.726" height="19.726" fill="white" transform="translate(0 0.828369)"/>
</clipPath>
</defs>
</svg>
