<svg width="24" height="24" viewBox="0 0 24 24" fill="none" xmlns="http://www.w3.org/2000/svg">
<path d="M13.496 1.54525L13.5662 1.60878L13.6521 1.56878L15.4803 0.717166L16.5111 2.45067L16.5595 2.53209L16.6534 2.51918L18.6513 2.24427L19.1254 4.20458L19.1477 4.29666L19.2411 4.31198L21.2314 4.6382L21.1066 6.65116L21.1007 6.74571L21.1855 6.7879L22.9912 7.68627L22.2786 9.573L22.2451 9.66162L22.3137 9.72694L23.7744 11.1176L22.5373 12.7105L22.4792 12.7853L22.5255 12.8679L23.5114 14.6274L21.8597 15.7849L21.7822 15.8392L21.8021 15.9318L22.2255 17.9037L20.3061 18.5229L20.2159 18.552L20.2077 18.6464L20.0311 20.6554L18.0144 20.6814L17.9197 20.6826L17.884 20.7703L17.123 22.6381L15.1883 22.0685L15.0975 22.0417L15.0375 22.115L13.7598 23.6755L12.0789 22.5609L12 22.5086L11.9211 22.5609L10.2402 23.6755L8.96255 22.115L8.90254 22.0417L8.81167 22.0685L6.87696 22.6381L6.11604 20.7703L6.0803 20.6826L5.98558 20.6814L3.96893 20.6554L3.79235 18.6464L3.78405 18.552L3.6939 18.5229L1.77449 17.9037L2.19794 15.9318L2.21783 15.8392L2.14025 15.7849L0.488633 14.6274L1.47449 12.8679L1.5208 12.7853L1.46269 12.7105L0.225612 11.1176L1.68628 9.72694L1.75488 9.66162L1.72141 9.573L1.0088 7.68627L2.81448 6.7879L2.8993 6.74571L2.89343 6.65116L2.7686 4.6382L4.75886 4.31198L4.85234 4.29666L4.87461 4.20458L5.34865 2.24427L7.34665 2.51918L7.44049 2.53209L7.48891 2.45067L8.51971 0.717166L10.3479 1.56878L10.4338 1.60878L10.504 1.54525L12 0.192597L13.496 1.54525Z" fill="#FDECA2" stroke="black" stroke-width="0.285714"/>
<path d="M5.86203 14.2857V9.2987H7.82956C8.20781 9.2987 8.53005 9.37094 8.79628 9.51542C9.06252 9.65828 9.26544 9.85714 9.40505 10.112C9.54628 10.3653 9.6169 10.6575 9.6169 10.9886C9.6169 11.3198 9.54547 11.612 9.40261 11.8653C9.25976 12.1185 9.05278 12.3157 8.78167 12.457C8.51219 12.5982 8.18589 12.6688 7.80278 12.6688H6.54872V11.8239H7.63232C7.83524 11.8239 8.00245 11.789 8.13395 11.7192C8.26706 11.6477 8.36609 11.5495 8.43102 11.4245C8.49758 11.2979 8.53086 11.1526 8.53086 10.9886C8.53086 10.8231 8.49758 10.6786 8.43102 10.5552C8.36609 10.4302 8.26706 10.3336 8.13395 10.2654C8.00083 10.1956 7.832 10.1607 7.62745 10.1607H6.91641V14.2857H5.86203ZM10.3018 14.2857V9.2987H12.2693C12.6459 9.2987 12.9673 9.36607 13.2336 9.50081C13.5014 9.63393 13.7052 9.82305 13.8448 10.0682C13.986 10.3117 14.0566 10.5982 14.0566 10.9278C14.0566 11.2589 13.9852 11.5438 13.8423 11.7825C13.6995 12.0195 13.4925 12.2013 13.2214 12.3279C12.9519 12.4545 12.6256 12.5179 12.2425 12.5179H10.9251V11.6705H12.0721C12.2734 11.6705 12.4406 11.6429 12.5737 11.5877C12.7068 11.5325 12.8058 11.4497 12.8708 11.3393C12.9373 11.2289 12.9706 11.0917 12.9706 10.9278C12.9706 10.7622 12.9373 10.6226 12.8708 10.5089C12.8058 10.3953 12.706 10.3093 12.5712 10.2508C12.4381 10.1907 12.2701 10.1607 12.0672 10.1607H11.3561V14.2857H10.3018ZM12.9949 12.0162L14.2344 14.2857H13.0704L11.8578 12.0162H12.9949ZM19.3846 11.7922C19.3846 12.336 19.2815 12.7987 19.0753 13.1802C18.8708 13.5617 18.5915 13.8531 18.2376 14.0544C17.8854 14.2541 17.4893 14.3539 17.0493 14.3539C16.6061 14.3539 16.2084 14.2532 15.8561 14.0519C15.5039 13.8506 15.2255 13.5593 15.0209 13.1778C14.8164 12.7963 14.7141 12.3344 14.7141 11.7922C14.7141 11.2484 14.8164 10.7857 15.0209 10.4042C15.2255 10.0227 15.5039 9.73214 15.8561 9.53247C16.2084 9.33117 16.6061 9.23052 17.0493 9.23052C17.4893 9.23052 17.8854 9.33117 18.2376 9.53247C18.5915 9.73214 18.8708 10.0227 19.0753 10.4042C19.2815 10.7857 19.3846 11.2484 19.3846 11.7922ZM18.3156 11.7922C18.3156 11.4399 18.2628 11.1429 18.1573 10.901C18.0534 10.6591 17.9065 10.4756 17.7165 10.3506C17.5266 10.2256 17.3042 10.1631 17.0493 10.1631C16.7945 10.1631 16.5721 10.2256 16.3821 10.3506C16.1922 10.4756 16.0445 10.6591 15.9389 10.901C15.835 11.1429 15.7831 11.4399 15.7831 11.7922C15.7831 12.1445 15.835 12.4416 15.9389 12.6834C16.0445 12.9253 16.1922 13.1088 16.3821 13.2338C16.5721 13.3588 16.7945 13.4213 17.0493 13.4213C17.3042 13.4213 17.5266 13.3588 17.7165 13.2338C17.9065 13.1088 18.0534 12.9253 18.1573 12.6834C18.2628 12.4416 18.3156 12.1445 18.3156 11.7922Z" fill="black"/>
</svg>
