<svg width="15" height="24" viewBox="0 0 15 24" fill="none" xmlns="http://www.w3.org/2000/svg">
<g clip-path="url(#clip0_2141_4843)">
<path d="M1.52147 5.97876C1.2894 5.97617 1.0595 5.93361 0.841882 5.85294C0.682967 5.7942 0.539189 5.70068 0.421059 5.57924C0.299281 5.46134 0.205628 5.31753 0.147059 5.15847C0.0664561 4.94086 0.0239519 4.71099 0.0214118 4.47894C0.00358823 4.09318 0 3.97747 0 3C0 2.02253 0.00394118 1.90724 0.0212353 1.52118C0.0240837 1.28922 0.0666401 1.05947 0.147059 0.841882C0.205914 0.682941 0.299433 0.539105 0.420824 0.420824C0.538807 0.299155 0.682653 0.20559 0.841706 0.147059C1.05933 0.0663892 1.28922 0.0238252 1.52129 0.0212353C1.90718 0.00358823 2.02306 0 3 0C3.97694 0 4.09276 0.00394118 4.47882 0.0212353C4.71084 0.0240636 4.94065 0.0666203 5.15829 0.147059C5.31728 0.205667 5.46108 0.299199 5.57912 0.420765C5.70072 0.538838 5.79429 0.682682 5.85294 0.841706C5.93363 1.05932 5.97621 1.28922 5.97882 1.52129C5.99647 1.90735 6.00006 2.02294 6.00006 3.00012C6.00006 3.97729 5.99647 4.09288 5.97882 4.47894C5.97602 4.71098 5.93344 4.94082 5.85294 5.15847C5.79205 5.3163 5.69878 5.45964 5.57914 5.57925C5.4595 5.69885 5.31614 5.79209 5.15829 5.85294C4.94068 5.93363 4.71078 5.97621 4.47871 5.97882C4.093 5.99647 3.97706 6.00006 2.99988 6.00006C2.02271 6.00006 1.90712 5.99665 1.52141 5.97882" fill="url(#paint0_radial_2141_4843)"/>
<path d="M1.52147 5.97876C1.2894 5.97617 1.0595 5.93361 0.841882 5.85294C0.682967 5.7942 0.539189 5.70068 0.421059 5.57924C0.299281 5.46134 0.205628 5.31753 0.147059 5.15847C0.0664561 4.94086 0.0239519 4.71099 0.0214118 4.47894C0.00358823 4.09318 0 3.97747 0 3C0 2.02253 0.00394118 1.90724 0.0212353 1.52118C0.0240837 1.28922 0.0666401 1.05947 0.147059 0.841882C0.205914 0.682941 0.299433 0.539105 0.420824 0.420824C0.538807 0.299155 0.682653 0.20559 0.841706 0.147059C1.05933 0.0663892 1.28922 0.0238252 1.52129 0.0212353C1.90718 0.00358823 2.02306 0 3 0C3.97694 0 4.09276 0.00394118 4.47882 0.0212353C4.71084 0.0240636 4.94065 0.0666203 5.15829 0.147059C5.31728 0.205667 5.46108 0.299199 5.57912 0.420765C5.70072 0.538838 5.79429 0.682682 5.85294 0.841706C5.93363 1.05932 5.97621 1.28922 5.97882 1.52129C5.99647 1.90735 6.00006 2.02294 6.00006 3.00012C6.00006 3.97729 5.99647 4.09288 5.97882 4.47894C5.97602 4.71098 5.93344 4.94082 5.85294 5.15847C5.79205 5.3163 5.69878 5.45964 5.57914 5.57925C5.4595 5.69885 5.31614 5.79209 5.15829 5.85294C4.94068 5.93363 4.71078 5.97621 4.47871 5.97882C4.093 5.99647 3.97706 6.00006 2.99988 6.00006C2.02271 6.00006 1.90712 5.99665 1.52141 5.97882" fill="url(#paint1_radial_2141_4843)"/>
<path d="M2.26542 3.01277C2.26543 2.86581 2.30902 2.72216 2.39067 2.59998C2.47232 2.4778 2.58837 2.38258 2.72415 2.32636C2.85992 2.27013 3.00932 2.25543 3.15345 2.28412C3.29757 2.3128 3.42996 2.38358 3.53386 2.48751C3.63776 2.59143 3.70851 2.72384 3.73716 2.86797C3.76581 3.0121 3.75107 3.1615 3.69482 3.29726C3.63856 3.43302 3.54331 3.54904 3.42111 3.63067C3.29891 3.71229 3.15525 3.75585 3.0083 3.75583C2.81125 3.7558 2.62229 3.67749 2.48297 3.53814C2.34366 3.3988 2.2654 3.20981 2.26542 3.01277ZM1.86371 3.01277C1.86371 3.23915 1.93084 3.46044 2.05661 3.64867C2.18238 3.83689 2.36114 3.9836 2.57028 4.07023C2.77943 4.15686 3.00957 4.17953 3.23159 4.13536C3.45362 4.0912 3.65757 3.98219 3.81764 3.82211C3.97772 3.66204 4.08673 3.4581 4.13089 3.23607C4.17506 3.01404 4.15239 2.7839 4.06576 2.57475C3.97913 2.36561 3.83242 2.18685 3.6442 2.06108C3.45597 1.93531 3.23468 1.86818 3.0083 1.86818C2.85799 1.86817 2.70914 1.89777 2.57027 1.95529C2.4314 2.01281 2.30522 2.09712 2.19893 2.2034C2.09265 2.30969 2.00834 2.43587 1.95082 2.57474C1.8933 2.71361 1.8637 2.86246 1.86371 3.01277ZM3.93071 1.82283C3.93069 1.87573 3.94635 1.92745 3.97572 1.97145C4.00509 2.01544 4.04685 2.04974 4.09571 2.07001C4.14458 2.09028 4.19836 2.0956 4.25024 2.0853C4.30213 2.075 4.3498 2.04955 4.38723 2.01216C4.42465 1.97477 4.45014 1.92712 4.46049 1.87524C4.47083 1.82336 4.46556 1.76958 4.44533 1.7207C4.42511 1.67181 4.39085 1.63003 4.34688 1.60062C4.3029 1.57121 4.2512 1.5555 4.1983 1.55547C4.12739 1.55551 4.05939 1.58368 4.00924 1.63381C3.95909 1.68394 3.93089 1.75192 3.93083 1.82283M2.10789 4.82718C1.96654 4.82563 1.82651 4.79976 1.69394 4.75071C1.5978 4.71365 1.51048 4.65687 1.43761 4.58403C1.36474 4.51119 1.30792 4.4239 1.27083 4.32777C1.22175 4.1952 1.19589 4.05517 1.19436 3.91383C1.18353 3.67889 1.18141 3.6083 1.18141 3.01306C1.18141 2.41783 1.18377 2.34742 1.19436 2.11224C1.19607 1.97091 1.22193 1.83091 1.27083 1.6983C1.30788 1.60212 1.36468 1.51478 1.43755 1.44191C1.51043 1.36903 1.59777 1.31223 1.69394 1.27518C1.82651 1.22611 1.96654 1.20024 2.10789 1.19871C2.34283 1.18789 2.41341 1.18577 3.00841 1.18577C3.60341 1.18577 3.67406 1.18806 3.90924 1.19877C4.05057 1.20048 4.19057 1.22635 4.32318 1.27524C4.41935 1.3123 4.50669 1.36909 4.57956 1.44197C4.65244 1.51485 4.70924 1.60219 4.7463 1.69836C4.79537 1.83092 4.82123 1.97095 4.82277 2.1123C4.83359 2.34759 4.83571 2.41783 4.83571 3.01312C4.83571 3.60842 4.83353 3.67877 4.82277 3.91394C4.82112 4.05528 4.79526 4.19529 4.7463 4.32789C4.7092 4.42401 4.65239 4.51131 4.57951 4.58415C4.50664 4.65699 4.41932 4.71377 4.32318 4.75083C4.19061 4.7999 4.05059 4.82577 3.90924 4.8273C3.6743 4.83812 3.60371 4.84024 3.00841 4.84024C2.41312 4.84024 2.34277 4.83806 2.10789 4.8273M2.08941 0.797357C1.90446 0.800993 1.72147 0.835999 1.54824 0.900885C1.40015 0.958142 1.26566 1.04571 1.15339 1.15798C1.04112 1.27025 0.953553 1.40474 0.896296 1.55283C0.831419 1.72606 0.796413 1.90905 0.792768 2.094C0.781768 2.33165 0.779297 2.40765 0.779297 3.013C0.779297 3.61836 0.781827 3.6943 0.792768 3.932C0.796412 4.11695 0.831418 4.29994 0.896296 4.47318C0.953556 4.62127 1.04113 4.75575 1.1534 4.86802C1.26566 4.98029 1.40015 5.06786 1.54824 5.12512C1.72148 5.18998 1.90447 5.22498 2.08941 5.22865C2.32718 5.23947 2.40306 5.24212 3.00841 5.24212C3.61377 5.24212 3.68971 5.23959 3.92742 5.22865C4.11236 5.225 4.29535 5.18999 4.46859 5.12512C4.61668 5.06786 4.75116 4.98029 4.86343 4.86802C4.9757 4.75575 5.06327 4.62127 5.12053 4.47318C5.1855 4.29997 5.22051 4.11696 5.22406 3.932C5.23489 3.69418 5.23736 3.61836 5.23736 3.013C5.23736 2.40765 5.23483 2.33171 5.22406 2.094C5.22043 1.90905 5.18542 1.72606 5.12053 1.55283C5.06328 1.40477 4.97573 1.2703 4.86349 1.15803C4.75126 1.04577 4.61681 0.958182 4.46877 0.900885C4.29555 0.835957 4.11255 0.80095 3.92759 0.797357C3.68989 0.786474 3.61394 0.783886 3.00871 0.783886C2.40347 0.783886 2.32736 0.786416 2.08953 0.797357" fill="white"/>
</g>
<g clip-path="url(#clip1_2141_4843)">
<path d="M13.6 9H10.4C9.6268 9 9 9.6268 9 10.4V13.6C9 14.3732 9.6268 15 10.4 15H13.6C14.3732 15 15 14.3732 15 13.6V10.4C15 9.6268 14.3732 9 13.6 9Z" fill="url(#paint2_linear_2141_4843)"/>
<mask id="mask0_2141_4843" style="mask-type:luminance" maskUnits="userSpaceOnUse" x="9" y="9" width="6" height="6">
<path d="M13.6 9H10.4C9.6268 9 9 9.6268 9 10.4V13.6C9 14.3732 9.6268 15 10.4 15H13.6C14.3732 15 15 14.3732 15 13.6V10.4C15 9.6268 14.3732 9 13.6 9Z" fill="white"/>
</mask>
<g mask="url(#mask0_2141_4843)">
<path fill-rule="evenodd" clip-rule="evenodd" d="M11.3968 13.5808C11.5893 13.6258 11.7926 13.65 12.0027 13.65C13.2177 13.65 14.2027 12.8441 14.2027 11.85C14.2027 10.8559 13.2177 10.05 12.0027 10.05C10.7877 10.05 9.80273 10.8559 9.80273 11.85C9.80273 12.4988 10.2222 13.0674 10.8515 13.3841C10.817 13.6295 10.7173 13.8097 10.5527 13.925C10.8817 13.925 11.1631 13.8103 11.3968 13.5808Z" fill="white"/>
</g>
</g>
<g clip-path="url(#clip2_2141_4843)">
<path d="M14.9998 4.48332C14.9998 4.51617 14.9988 4.58742 14.9968 4.64246C14.992 4.77712 14.9813 4.95089 14.9651 5.03006C14.9409 5.14904 14.9043 5.26134 14.8565 5.35482C14.8 5.46539 14.7279 5.56443 14.6423 5.64992C14.5568 5.73523 14.4579 5.80702 14.3475 5.86329C14.2535 5.91117 14.1405 5.94782 14.0209 5.97198C13.9425 5.9878 13.77 5.99827 13.6362 6.00303C13.5811 6.005 13.5098 6.00599 13.4771 6.00599L10.5227 6.00552C10.4898 6.00552 10.4186 6.00451 10.3635 6.00253C10.2289 5.99771 10.0551 5.98703 9.97593 5.97089C9.85695 5.94662 9.74464 5.91 9.65117 5.86225C9.54059 5.80574 9.44155 5.73367 9.35607 5.64803C9.27076 5.56258 9.19897 5.46363 9.1427 5.35322C9.0948 5.25925 9.05816 5.14625 9.034 5.0266C9.01818 4.94821 9.00771 4.77575 9.00295 4.64193C9.00099 4.58685 9 4.51559 9 4.48286L9.00047 1.5284C9.00047 1.49555 9.00147 1.42431 9.00345 1.36927C9.00828 1.2346 9.01895 1.06084 9.03509 0.981665C9.05936 0.862685 9.09598 0.750378 9.14374 0.656903C9.20024 0.546331 9.27231 0.447284 9.35795 0.361802C9.4434 0.276495 9.54236 0.2047 9.65276 0.148427C9.74673 0.100544 9.85974 0.0638995 9.97939 0.0397413C10.0578 0.0239151 10.2302 0.0134444 10.3641 0.00868662C10.4191 0.00672372 10.4904 0.00573349 10.5231 0.00573349L13.4776 0.0062081C13.5104 0.0062081 13.5817 0.00721005 13.6367 0.00918466C13.7714 0.0140186 13.9451 0.0246886 14.0243 0.0408311C14.1433 0.0650948 14.2556 0.101716 14.3491 0.149476C14.4597 0.205978 14.5587 0.278054 14.6442 0.363689C14.7295 0.449142 14.8013 0.548089 14.8575 0.658503C14.9054 0.75247 14.9421 0.865474 14.9662 0.985128C14.9821 1.06351 14.9925 1.23598 14.9973 1.36979C14.9993 1.42488 15.0003 1.49614 15.0003 1.52887L14.9998 4.48332V4.48332Z" fill="url(#paint3_linear_2141_4843)"/>
<path d="M13.5882 1.42527C13.182 1.0187 12.6418 0.794689 12.0662 0.79446C10.8802 0.79446 9.915 1.75931 9.91453 2.94527C9.91437 3.32437 10.0134 3.69442 10.2017 4.0206L9.89648 5.13522L11.0371 4.83612C11.3514 5.00747 11.7052 5.09777 12.0653 5.09793H12.0662C13.252 5.09793 14.2173 4.13296 14.2178 2.94698C14.218 2.37226 13.9945 1.83183 13.5882 1.42527ZM12.0662 4.73465H12.0655C11.7446 4.73453 11.4298 4.64835 11.1552 4.48546L11.0899 4.44671L10.4131 4.62421L10.5938 3.96449L10.5512 3.89685C10.3722 3.61221 10.2777 3.28321 10.2778 2.94541C10.2782 1.9597 11.0804 1.15774 12.0669 1.15774C12.5446 1.15792 12.9936 1.34413 13.3312 1.68205C13.6689 2.01997 13.8547 2.46915 13.8545 2.94685C13.8541 3.93265 13.0519 4.73465 12.0662 4.73465ZM13.0471 3.39569C12.9934 3.36879 12.7291 3.23877 12.6798 3.22083C12.6305 3.20289 12.5947 3.19393 12.5588 3.24774C12.523 3.30154 12.42 3.4226 12.3886 3.45847C12.3572 3.49434 12.3259 3.49883 12.2721 3.47192C12.2183 3.44502 12.0451 3.38826 11.8398 3.20517C11.6799 3.06267 11.572 2.88666 11.5407 2.83284C11.5093 2.77904 11.5373 2.74996 11.5643 2.72316C11.5884 2.69908 11.618 2.66038 11.6449 2.629C11.6718 2.59762 11.6807 2.57519 11.6987 2.53933C11.7166 2.50346 11.7076 2.47207 11.6942 2.44517C11.6807 2.41827 11.5732 2.15373 11.5284 2.04612C11.4848 1.94132 11.4405 1.9555 11.4075 1.95385C11.3761 1.9523 11.3403 1.95197 11.3044 1.95197C11.2686 1.95197 11.2103 1.96542 11.1611 2.01922C11.1118 2.07303 10.9729 2.20305 10.9729 2.46759C10.9729 2.73212 11.1655 2.98769 11.1924 3.02355C11.2193 3.05943 11.5715 3.60229 12.1108 3.83509C12.2391 3.89046 12.3392 3.92353 12.4173 3.9483C12.5461 3.9892 12.6633 3.98343 12.7559 3.9696C12.8592 3.95417 13.074 3.83958 13.1188 3.71404C13.1636 3.58849 13.1636 3.48089 13.1502 3.45847C13.1367 3.43605 13.1009 3.4226 13.0471 3.39569Z" fill="white"/>
</g>
<g clip-path="url(#clip3_2141_4843)">
<mask id="mask1_2141_4843" style="mask-type:luminance" maskUnits="userSpaceOnUse" x="9" y="18" width="6" height="6">
<path d="M15 18H9V24H15V18Z" fill="white"/>
</mask>
<g mask="url(#mask1_2141_4843)">
<path d="M14.2969 18H9.70312C9.3148 18 9 18.3148 9 18.7031V23.2969C9 23.6852 9.3148 24 9.70312 24H14.2969C14.6852 24 15 23.6852 15 23.2969V18.7031C15 18.3148 14.6852 18 14.2969 18Z" fill="black"/>
<path d="M13.17 19.1719H13.7902L12.4352 20.7206L14.0293 22.8281H12.7811L11.8035 21.5499L10.6849 22.8281H10.0643L11.5136 21.1716L9.98438 19.1719H11.2642L12.1479 20.3402L13.17 19.1719ZM12.9523 22.4569H13.296L11.0775 19.5236H10.7087L12.9523 22.4569Z" fill="white"/>
</g>
</g>
<g clip-path="url(#clip4_2141_4843)">
<path d="M5.25 9H0.75C0.336375 9 0 9.33637 0 9.75V14.25C0 14.6636 0.336375 15 0.75 15H5.25C5.66363 15 6 14.6636 6 14.25V9.75C6 9.33637 5.66363 9 5.25 9Z" fill="#1976D2"/>
<path fill-rule="evenodd" clip-rule="evenodd" d="M5.0625 12H4.125V11.25C4.125 11.043 4.293 11.0625 4.5 11.0625H4.875V10.125H4.125C3.82663 10.125 3.54048 10.2435 3.3295 10.4545C3.11853 10.6655 3 10.9516 3 11.25V12H2.25V12.9375H3V15H4.125V12.9375H4.6875L5.0625 12Z" fill="#FAFAFA"/>
</g>
<g clip-path="url(#clip5_2141_4843)">
<path d="M3 24C4.65685 24 6 22.6569 6 21C6 19.3431 4.65685 18 3 18C1.34315 18 0 19.3431 0 21C0 22.6569 1.34315 24 3 24Z" fill="white"/>
<path d="M3 18C1.34321 18 0 19.3432 0 21C0 22.2716 0.790123 23.358 1.90617 23.7951C1.87901 23.558 1.85679 23.1926 1.91605 22.9333C1.97037 22.6988 2.26667 21.442 2.26667 21.442C2.26667 21.442 2.17778 21.2617 2.17778 20.9975C2.17778 20.5802 2.41975 20.2691 2.72099 20.2691C2.97778 20.2691 3.10123 20.4617 3.10123 20.6914C3.10123 20.9481 2.93827 21.3333 2.85185 21.6914C2.78025 21.9901 3.00247 22.2346 3.2963 22.2346C3.82963 22.2346 4.23951 21.6716 4.23951 20.8617C4.23951 20.1432 3.72346 19.642 2.98519 19.642C2.13086 19.642 1.62963 20.2815 1.62963 20.9432C1.62963 21.2 1.7284 21.4765 1.85185 21.6272C1.87654 21.6568 1.87901 21.684 1.87161 21.7136C1.84938 21.8074 1.79753 22.0123 1.78765 22.0543C1.77531 22.1086 1.74321 22.121 1.68642 22.0938C1.31111 21.9185 1.07654 21.3728 1.07654 20.9309C1.07654 19.9852 1.76296 19.116 3.05926 19.116C4.09877 19.116 4.90864 19.8568 4.90864 20.8494C4.90864 21.884 4.25679 22.716 3.35309 22.716C3.04938 22.716 2.76296 22.558 2.66667 22.3704C2.66667 22.3704 2.51605 22.9432 2.47901 23.084C2.41235 23.3457 2.22963 23.6716 2.10617 23.8716C2.38765 23.958 2.68395 24.0049 2.99506 24.0049C4.65185 24.0049 5.99506 22.6617 5.99506 21.0049C6 19.3432 4.65679 18 3 18Z" fill="#E60019"/>
</g>
<defs>
<radialGradient id="paint0_radial_2141_4843" cx="0" cy="0" r="1" gradientUnits="userSpaceOnUse" gradientTransform="translate(0.388294 5.86859) scale(7.61776)">
<stop offset="0.09" stop-color="#FA8F21"/>
<stop offset="0.78" stop-color="#D82D7E"/>
</radialGradient>
<radialGradient id="paint1_radial_2141_4843" cx="0" cy="0" r="1" gradientUnits="userSpaceOnUse" gradientTransform="translate(4.156 5.67588) scale(6.70371)">
<stop offset="0.64" stop-color="#8C3AAA" stop-opacity="0"/>
<stop offset="1" stop-color="#8C3AAA"/>
</radialGradient>
<linearGradient id="paint2_linear_2141_4843" x1="309" y1="9" x2="309" y2="609" gradientUnits="userSpaceOnUse">
<stop stop-color="#91FC8A"/>
<stop offset="1" stop-color="#00DD35"/>
</linearGradient>
<linearGradient id="paint3_linear_2141_4843" x1="12.0001" y1="0.00573349" x2="12.0001" y2="6.006" gradientUnits="userSpaceOnUse">
<stop stop-color="#61FD7D"/>
<stop offset="1" stop-color="#2BB826"/>
</linearGradient>
<clipPath id="clip0_2141_4843">
<rect width="6" height="6" fill="white"/>
</clipPath>
<clipPath id="clip1_2141_4843">
<rect width="6" height="6" fill="white" transform="translate(9 9)"/>
</clipPath>
<clipPath id="clip2_2141_4843">
<rect width="6" height="6" fill="white" transform="translate(9)"/>
</clipPath>
<clipPath id="clip3_2141_4843">
<rect width="6" height="6" fill="white" transform="translate(9 18)"/>
</clipPath>
<clipPath id="clip4_2141_4843">
<rect width="6" height="6" fill="white" transform="translate(0 9)"/>
</clipPath>
<clipPath id="clip5_2141_4843">
<rect width="6" height="6" fill="white" transform="translate(0 18)"/>
</clipPath>
</defs>
</svg>
