<svg width="176" height="176" viewBox="0 0 176 176" fill="none" xmlns="http://www.w3.org/2000/svg">
<circle cx="88" cy="88" r="87.5" fill="#3B3029"/>
<path d="M66 75.8125C66 72.0625 67 68.8958 69 66.3125C71 63.7292 73.7083 61.7708 77.125 60.4375C80.5833 59.1042 84.4583 58.4375 88.75 58.4375C93.0833 58.4375 96.8125 58.8333 99.9375 59.625C103.062 60.4167 105.333 61.2917 106.75 62.25L107.062 77.625H105.062C104.146 72.3333 102.208 68.3125 99.25 65.5625C96.2917 62.8125 92.8125 61.4375 88.8125 61.4375C84.8542 61.4375 81.75 62.375 79.5 64.25C77.2917 66.125 76.1875 68.5417 76.1875 71.5C76.1875 74.4167 77.25 76.7083 79.375 78.375C81.5 80.0417 84.4792 81.5 88.3125 82.75L93.0625 84.25C98.4375 85.9583 102.583 88.3333 105.5 91.375C108.458 94.4167 109.938 98.3542 109.938 103.188C109.938 106.938 108.812 110.146 106.562 112.812C104.354 115.479 101.479 117.521 97.9375 118.938C94.4375 120.312 90.75 121 86.875 121C82.4167 121 78.3333 120.542 74.625 119.625C70.9583 118.708 68.125 117.542 66.125 116.125L65.4375 99.5625H67.4375C68.2708 103.562 69.6667 106.938 71.625 109.688C73.625 112.438 75.9583 114.521 78.625 115.938C81.2917 117.312 84.0208 118 86.8125 118C90.7708 118 93.9167 116.979 96.25 114.938C98.5833 112.896 99.75 110.354 99.75 107.312C99.75 104.312 98.7917 101.875 96.875 100C95 98.125 92.0208 96.5417 87.9375 95.25L83.1875 93.6875C77.7708 91.9375 73.5417 89.6667 70.5 86.875C67.5 84.0417 66 80.3542 66 75.8125Z" fill="#F2F0E5"/>
</svg>
