<svg width="18" height="17" viewBox="0 0 18 17" fill="none" xmlns="http://www.w3.org/2000/svg">
<path d="M12.6465 1.77325C14.777 1.77325 16.4443 3.44053 16.4443 5.57111C16.4443 6.88367 15.8583 8.11404 14.7256 9.49982C13.8718 10.5443 12.737 11.6423 11.3701 12.9012L9.92676 14.2186L9.13086 14.9363L8.33398 14.2108L8.33301 14.2098C6.31119 12.3764 4.67344 10.8904 3.53516 9.49884C2.40257 8.11414 1.81645 6.88367 1.81641 5.57111C1.81641 3.44053 3.48367 1.77325 5.61426 1.77325C6.82242 1.7733 7.99005 2.33795 8.75 3.23029L9.13086 3.67755L9.51074 3.23029C10.2705 2.33798 11.4383 1.77334 12.6465 1.77325Z" stroke="#EFEBEA"/>
</svg>
