<?xml version="1.0" encoding="UTF-8"?>
<svg id="Layer_2" data-name="Layer 2" xmlns="http://www.w3.org/2000/svg" viewBox="0 0 327.63 510.4">
  <defs>
    <style>
      .cls-1 {
        fill: #1d1d1b;
      }
    </style>
  </defs>
  <g id="Layer_1-2" data-name="Layer 1">
    <path class="cls-1" d="M327.63,4.92c0,4.23-3.43,14.55-10.27,30.97-6.85,16.42-13.05,41.74-18.6,75.99-1.48,7.98-3.89,11.96-7.22,11.96-2.59,0-3.89-1.67-3.89-5.01v-4.3c1.11-10.02,1.67-18.85,1.67-26.49,0-23.38-6.02-41.99-18.05-55.84-12.04-13.84-28.23-20.76-48.59-20.76-22.59,0-41.56,8.58-56.92,25.74-15.37,17.16-23.04,38.36-23.04,63.62,0,26.69,13.14,56.94,39.43,90.78l33.32,42.88c29.61,38.13,44.42,76.49,44.42,115.09,0,44.32-13.24,82.2-39.71,113.65-26.47,31.45-58.58,47.18-96.35,47.18-21.85,0-40.17-5.17-54.98-15.49-1.86-1.41-9.99-8.91-24.43-22.54-4.08-3.76-8.15-5.64-12.22-5.64-8.52,0-15.55,11.32-21.1,33.96-1.47,6.46-3.51,9.71-6.11,9.71-3.33,0-5-2.37-5-7.09,0-.47,1.67-5.91,5-16.31,12.22-38.3,23.13-75.88,32.76-112.77,2.96-11.34,6.66-17.02,11.11-17.02,2.59,0,3.89,1.67,3.89,4.99,0,.95-.75,3.8-2.22,8.54-2.59,5.22-3.89,17.09-3.89,35.6,0,59.83,25.91,89.74,77.74,89.74,26.28,0,47.66-9.75,64.14-29.26,16.47-19.51,24.71-44.97,24.71-76.38,0-36.16-12.77-69.47-38.32-99.93l-31.1-37.11c-31.47-37.59-47.2-74.72-47.2-111.36,0-38.54,12.22-71.85,36.65-99.93S186.77,0,220.46,0c18.51,0,37.01,4.87,55.53,14.59,11.47,6.03,18.88,9.04,22.21,9.04,7.03,0,13.69-5.68,19.99-17.06,2.22-4.37,4.25-6.57,6.11-6.57,2.22,0,3.33,1.64,3.33,4.92Z"/>
  </g>
</svg>