<svg width="25" height="24" viewBox="0 0 25 24" fill="none" xmlns="http://www.w3.org/2000/svg">
<rect x="1.12793" y="3.75" width="22.5" height="16.5" rx="1.25" stroke="#9E9E9E" stroke-width="1.5"/>
<g clip-path="url(#clip0_1532_4291)">
<path d="M6.98633 13.0117C8.30866 13.0118 9.39097 13.65 9.87988 14.7178H4.0918C4.5807 13.6497 5.66419 13.0117 6.98633 13.0117ZM6.98633 8.5C7.73674 8.50019 8.3291 9.09571 8.3291 9.80469C8.329 10.5136 7.73668 11.1092 6.98633 11.1094C6.23618 11.1094 5.64268 10.5136 5.64258 9.80469C5.64258 9.09567 6.23611 8.5 6.98633 8.5Z" stroke="#9E9E9E"/>
</g>
<path d="M12.0391 9H21.603" stroke="#9E9E9E" stroke-linecap="round"/>
<path d="M12.0391 11.8871H19.2571" stroke="#9E9E9E" stroke-linecap="round"/>
<path d="M12.0391 14.7743H17.9939" stroke="#9E9E9E" stroke-linecap="round"/>
<defs>
<clipPath id="clip0_1532_4291">
<rect width="7.21805" height="7.21805" fill="white" transform="translate(3.37793 8)"/>
</clipPath>
</defs>
</svg>
