<svg width="76" height="77" viewBox="0 0 76 77" fill="none" xmlns="http://www.w3.org/2000/svg">
<path d="M0.148438 31.7637C0.148438 48.9023 14.0645 62.7695 31.2032 62.7695C37.7949 62.7695 43.8496 60.7188 48.8789 57.2031L67.043 75.416C68.0684 76.3926 69.3379 76.832 70.6563 76.832C73.4883 76.832 75.5391 74.6836 75.5391 71.8515C75.5391 70.4844 75.002 69.2637 74.1719 68.3359L56.1055 50.2207C59.9629 45.0449 62.209 38.6973 62.209 31.7637C62.209 14.625 48.3418 0.708984 31.2032 0.708984C14.0645 0.708984 0.148438 14.625 0.148438 31.7637ZM7.66798 31.7637C7.66798 18.7266 18.166 8.22849 31.2032 8.22849C44.1914 8.22849 54.7383 18.7266 54.7383 31.7637C54.7383 44.752 44.1914 55.2988 31.2032 55.2988C18.166 55.2988 7.66798 44.752 7.66798 31.7637Z" fill="black"/>
<circle cx="31" cy="32" r="18" fill="black"/>
</svg>
