<svg width="23" height="19" viewBox="0 0 23 19" fill="none" xmlns="http://www.w3.org/2000/svg">
<g clip-path="url(#clip0_2067_3274)">
<path d="M19.5812 16.2306C19.9426 16.4747 20.3918 16.3868 20.6555 16.0157C21.9055 14.297 22.6379 11.9337 22.6379 9.52156C22.6379 7.10945 21.9152 4.72664 20.6555 3.02742C20.3918 2.65633 19.9426 2.56844 19.5812 2.81258C19.2199 3.05672 19.1613 3.5157 19.4445 3.91609C20.509 5.42 21.1242 7.44148 21.1242 9.52156C21.1242 11.6017 20.4894 13.6036 19.4445 15.1271C19.1711 15.5274 19.2199 15.9864 19.5812 16.2306Z" fill="#EFEBEA"/>
<path d="M15.9691 13.6816C16.2913 13.9062 16.7503 13.8379 17.014 13.457C17.7659 12.4707 18.2151 11.0156 18.2151 9.52151C18.2151 8.02737 17.7659 6.58206 17.014 5.58596C16.7503 5.20511 16.2913 5.12698 15.9691 5.36135C15.5687 5.63479 15.5101 6.12307 15.8128 6.52346C16.3792 7.30471 16.7015 8.3887 16.7015 9.52151C16.7015 10.6543 16.3694 11.7285 15.8128 12.5195C15.5198 12.9297 15.5687 13.3984 15.9691 13.6816Z" fill="#EFEBEA"/>
<path d="M11.3691 18.1446C12.0137 18.1446 12.4727 17.6856 12.4727 17.0509V2.07037C12.4727 1.43561 12.0137 0.91803 11.3496 0.91803C10.8906 0.91803 10.5879 1.12311 10.0898 1.59186L5.91992 5.4981C5.86133 5.5567 5.77344 5.58599 5.67578 5.58599H2.88282C1.55469 5.58599 0.841797 6.31842 0.841797 7.72467V11.3575C0.841797 12.7735 1.55469 13.4962 2.88282 13.4962H5.67578C5.77344 13.4962 5.86133 13.5255 5.91992 13.5841L10.0898 17.5294C10.5293 17.9591 10.9102 18.1446 11.3691 18.1446Z" fill="#EFEBEA"/>
</g>
<defs>
<clipPath id="clip0_2067_3274">
<rect width="22.1582" height="17.2363" fill="white" transform="translate(0.841797 0.908264)"/>
</clipPath>
</defs>
</svg>
