<svg width="19" height="19" viewBox="0 0 19 19" fill="none" xmlns="http://www.w3.org/2000/svg">
<path d="M9.36035 0.0447845C14.4542 0.0448897 18.584 4.17452 18.584 9.26842C18.5839 14.3622 14.4542 18.4919 9.36035 18.4921C4.26645 18.4921 0.136824 14.3623 0.136719 9.26842C0.136719 4.17445 4.26639 0.0447845 9.36035 0.0447845ZM12.6123 7.07506C12.4624 6.92518 12.2202 6.92518 12.0703 7.07506L8.27344 10.868L6.94043 9.53404C6.79066 9.38427 6.54834 9.38449 6.39844 9.53404C6.24856 9.68392 6.24856 9.92615 6.39844 10.076L8.00488 11.6825C8.15472 11.8322 8.39604 11.8322 8.5459 11.6825L12.6123 7.61705C12.7622 7.4672 12.7621 7.22495 12.6123 7.07506Z" fill="white"/>
</svg>
