<svg width="16" height="14" viewBox="0 0 16 14" fill="none" xmlns="http://www.w3.org/2000/svg">
<path d="M1.02192 11.9322C-1.27587 9.36407 0.751495 4.07812 2.68885 2.36603C4.31083 0.879222 7.01412 -0.337259 7.28445 0.11329C7.68995 0.789112 6.11303 1.23967 4.89655 2.32099C3.40974 3.94296 1.83296 6.07501 3.90548 6.97611C6.11317 7.96731 6.74389 8.50805 6.834 9.76958C6.96916 12.8784 3.27467 14.1399 1.02192 11.9322Z" fill="#CFCFCF"/>
<path d="M9.37152 11.9322C7.07372 9.36407 9.10133 4.07812 11.0387 2.36603C12.6607 0.879222 15.364 -0.337259 15.6343 0.11329C16.0398 0.789112 14.4629 1.23966 13.2464 2.32097C11.7596 3.94295 10.1826 6.07501 12.2551 6.97611C14.4628 7.96732 15.0935 8.50805 15.1836 9.76958C15.3188 12.8784 11.6243 14.1399 9.37152 11.9322Z" fill="#CFCFCF"/>
</svg>
