<svg width="16" height="14" viewBox="0 0 16 14" fill="none" xmlns="http://www.w3.org/2000/svg">
<path d="M14.9781 11.9409C17.2759 9.37274 15.2485 4.08678 13.3111 2.3747C11.6892 0.887889 8.98588 -0.328592 8.71555 0.121957C8.31005 0.797779 9.88697 1.24834 11.1034 2.32965C12.5903 3.95163 14.167 6.08368 12.0945 6.98478C9.88683 7.97598 9.25611 8.51671 9.166 9.77825C9.03084 12.887 12.7253 14.1485 14.9781 11.9409Z" fill="#292929"/>
<path d="M6.62848 11.9409C8.92628 9.37274 6.89867 4.08678 4.96131 2.3747C3.33933 0.887889 0.636044 -0.328592 0.365715 0.121957C-0.0397787 0.797779 1.53714 1.24832 2.75362 2.32964C4.24043 3.95162 5.81743 6.08368 3.74491 6.98478C1.53722 7.97598 0.906513 8.51672 0.816403 9.77825C0.681239 12.887 4.37574 14.1486 6.62848 11.9409Z" fill="#292929"/>
</svg>
