<svg width="17" height="21" viewBox="0 0 17 21" fill="none" xmlns="http://www.w3.org/2000/svg">
<g clip-path="url(#clip0_2067_3268)">
<path d="M4.56641 5.70703H11.9785C12.3203 5.70703 12.5742 5.44335 12.5742 5.10156C12.5742 4.76953 12.3203 4.50585 11.9785 4.50585H4.56641C4.21485 4.50585 3.96094 4.76953 3.96094 5.10156C3.96094 5.44335 4.21485 5.70703 4.56641 5.70703ZM4.56641 9.11523H11.9785C12.3203 9.11523 12.5742 8.85156 12.5742 8.50976C12.5742 8.17773 12.3203 7.91406 11.9785 7.91406H4.56641C4.21485 7.91406 3.96094 8.17773 3.96094 8.50976C3.96094 8.85156 4.21485 9.11523 4.56641 9.11523ZM4.56641 12.5234H8.07227C8.42383 12.5234 8.67774 12.2695 8.67774 11.9375C8.67774 11.5859 8.42383 11.3222 8.07227 11.3222H4.56641C4.21485 11.3222 3.96094 11.5859 3.96094 11.9375C3.96094 12.2695 4.21485 12.5234 4.56641 12.5234ZM0.0546875 17.9336C0.0546875 19.9746 1.06055 20.9902 3.08203 20.9902H13.4531C15.4746 20.9902 16.4805 19.9746 16.4805 17.9336V3.11914C16.4805 1.08789 15.4746 0.0527344 13.4531 0.0527344H3.08203C1.06055 0.0527344 0.0546875 1.08789 0.0546875 3.11914V17.9336ZM1.62696 17.9043V3.14843C1.62696 2.17187 2.14453 1.625 3.16016 1.625H13.375C14.3906 1.625 14.9082 2.17187 14.9082 3.14843V17.9043C14.9082 18.8808 14.3906 19.4179 13.375 19.4179H3.16016C2.14453 19.4179 1.62696 18.8808 1.62696 17.9043Z" fill="black" fill-opacity="0.85"/>
</g>
<defs>
<clipPath id="clip0_2067_3268">
<rect width="16.7871" height="20.9473" fill="white" transform="translate(0.0546875 0.0527344)"/>
</clipPath>
</defs>
</svg>
