<svg width="24" height="24" viewBox="0 0 24 24" fill="none" xmlns="http://www.w3.org/2000/svg">
<path d="M12 0C18.6274 0 24 5.37258 24 12C24 18.6274 18.6274 24 12 24C5.37258 24 0 18.6274 0 12C0 5.37258 5.37258 0 12 0ZM16.2314 9.14648C16.0364 8.95148 15.7214 8.95148 15.5264 9.14648L10.5859 14.0811L8.85156 12.3467C8.65656 12.1517 8.34148 12.1517 8.14648 12.3467C7.95162 12.5416 7.95163 12.8558 8.14648 13.0508L10.2363 15.1416C10.4313 15.3364 10.7465 15.3364 10.9414 15.1416L16.2314 9.85156C16.4264 9.65663 16.4262 9.3415 16.2314 9.14648Z" fill="black"/>
</svg>
